<svg width="17" height="15" viewBox="0 0 17 15" fill="none" xmlns="http://www.w3.org/2000/svg">
<path d="M1.43579 8.74658L13.2958 8.74658L9.66579 13.1066C9.58174 13.2077 9.51844 13.3244 9.47949 13.45C9.44053 13.5756 9.4267 13.7076 9.43877 13.8385C9.46315 14.1029 9.59157 14.3468 9.79579 14.5166C10 14.6863 10.2633 14.768 10.5277 14.7436C10.7921 14.7192 11.0361 14.5908 11.2058 14.3866L16.2058 8.38658C16.2394 8.33886 16.2695 8.28872 16.2958 8.23658C16.2958 8.18658 16.3458 8.15658 16.3658 8.10658C16.4111 7.99192 16.4348 7.86987 16.4358 7.74658C16.4348 7.62329 16.4111 7.50124 16.3658 7.38658C16.3658 7.33658 16.3158 7.30658 16.2958 7.25658C16.2695 7.20444 16.2394 7.15431 16.2058 7.10658L11.2058 1.10658C11.1118 0.993701 10.994 0.902921 10.8609 0.8407C10.7279 0.778479 10.5827 0.746345 10.4358 0.746584C10.2021 0.746127 9.9757 0.827503 9.79579 0.976584C9.69453 1.06053 9.61083 1.16363 9.54948 1.27998C9.48813 1.39633 9.45033 1.52364 9.43825 1.65461C9.42618 1.78559 9.44006 1.91766 9.4791 2.04327C9.51815 2.16887 9.58159 2.28554 9.66579 2.38658L13.2958 6.74658L1.43579 6.74658C1.17057 6.74658 0.916221 6.85194 0.728684 7.03948C0.541148 7.22701 0.435791 7.48137 0.435791 7.74658C0.435791 8.0118 0.541148 8.26615 0.728684 8.45369C0.916221 8.64123 1.17057 8.74658 1.43579 8.74658Z" fill="#8C979D"/>
</svg>
