<svg width="17" height="15" viewBox="0 0 17 15" fill="none" xmlns="http://www.w3.org/2000/svg">
<path d="M15.5642 6.74804L3.70421 6.74804L7.33421 2.38804C7.41826 2.28693 7.48156 2.17025 7.52051 2.04466C7.55947 1.91908 7.5733 1.78705 7.56123 1.65612C7.53685 1.39169 7.40843 1.14778 7.20421 0.978044C6.99999 0.808305 6.73671 0.726644 6.47229 0.751023C6.20786 0.775403 5.96395 0.903828 5.79421 1.10804L0.794209 7.10804C0.76057 7.15577 0.730488 7.2059 0.704209 7.25804C0.704209 7.30804 0.65421 7.33804 0.634209 7.38804C0.588883 7.5027 0.565151 7.62475 0.56421 7.74804C0.565151 7.87133 0.588883 7.99338 0.634209 8.10804C0.634209 8.15804 0.684208 8.18804 0.704209 8.23804C0.730488 8.29018 0.76057 8.34032 0.794209 8.38804L5.79421 14.388C5.88823 14.5009 6.00597 14.5917 6.13906 14.6539C6.27214 14.7161 6.4173 14.7483 6.56421 14.748C6.79786 14.7485 7.0243 14.6671 7.20421 14.518C7.30547 14.4341 7.38917 14.331 7.45052 14.2146C7.51187 14.0983 7.54967 13.971 7.56175 13.84C7.57382 13.709 7.55994 13.577 7.5209 13.4514C7.48185 13.3258 7.41841 13.2091 7.33421 13.108L3.70421 8.74804L15.5642 8.74804C15.8294 8.74804 16.0838 8.64269 16.2713 8.45515C16.4589 8.26762 16.5642 8.01326 16.5642 7.74804C16.5642 7.48283 16.4589 7.22847 16.2713 7.04094C16.0838 6.8534 15.8294 6.74804 15.5642 6.74804Z" fill="#8C979D"/>
</svg>
