<svg width="92" height="90" viewBox="0 0 92 90" fill="none" xmlns="http://www.w3.org/2000/svg">
<path d="M57.4402 9.16848C56.8935 8.6868 56.0507 8.72974 55.5575 9.26461C55.065 9.79965 55.109 10.6239 55.6559 11.1058C56.8131 12.1251 57.8813 13.2232 58.8592 14.3854L54.994 26.018L47.1984 28.8048L36.1245 20.9361V12.5739L46.2276 5.39693C47.9881 6.07486 49.689 6.90837 51.3064 7.8978C51.9304 8.2797 52.7532 8.09422 53.1433 7.48374C53.5336 6.87326 53.3441 6.06878 52.7199 5.68705C47.3538 2.40466 41.1542 0.669678 34.7915 0.669678C28.9023 0.669678 23.1039 2.16981 18.0233 5.00808C13.1029 7.75682 8.92849 11.706 5.95161 16.4291C5.5654 17.042 5.76019 17.8451 6.38688 18.223C6.60496 18.3544 6.84651 18.4172 7.0852 18.4172C7.53238 18.4172 7.96925 18.1971 8.22128 17.7975C8.40062 17.5129 8.58528 17.2318 8.77386 16.9535L11.9548 26.5266L3.62987 32.4402C3.78005 29.036 4.50059 25.7181 5.77939 22.5597C6.05043 21.8901 5.7154 21.1327 5.03095 20.8675C4.34667 20.6027 3.57175 20.93 3.30088 21.5996C1.72953 25.4793 0.933105 29.5787 0.933105 33.7839C0.933105 52.0432 16.1219 66.8982 34.7915 66.8982C53.4611 66.8982 68.6499 52.0432 68.6499 33.7839C68.6499 24.4156 64.5641 15.4437 57.4402 9.16848ZM61.0882 50.1754L48.5711 50.1431L43.8137 44.0447L48.0562 31.2744L55.8518 28.4876L65.924 35.6423C65.5955 40.9672 63.8655 45.9284 61.0882 50.1754ZM60.8058 16.9635C63.8976 21.5428 65.6992 26.8911 65.9508 32.4387L57.6282 26.5266L60.8058 16.9635ZM41.3616 42.9881H28.2214L24.1607 30.7656L34.7915 23.2117L45.4222 30.7656L41.3616 42.9881ZM43.1196 4.38213L34.7915 10.2984L26.4654 4.38352C29.1635 3.65518 31.9655 3.2771 34.7915 3.2771C37.6265 3.2771 40.4253 3.65431 43.1196 4.38213ZM10.7236 14.3849C13.1307 11.5324 16.0558 9.1099 19.3455 7.27202C20.6357 6.55133 21.9777 5.9278 23.3564 5.39763L33.4585 12.5739V20.9361L22.3848 28.805L14.5891 26.0182L10.7236 14.3849ZM13.7309 28.4874L21.5265 31.2742L25.769 44.0445L20.9853 50.1768H8.4957C5.71789 45.9295 3.98765 40.9677 3.65866 35.6422L13.7309 28.4874ZM10.4065 52.7842H20.6765L23.8566 62.3543C18.5322 60.3988 13.8956 57.0587 10.4065 52.7842ZM45.2442 62.5268L46.0552 60.0862C46.2827 59.4015 45.8997 58.666 45.1996 58.4434C44.4997 58.2207 43.7475 58.5955 43.5199 59.2803L42.1398 63.4334C39.7823 63.9923 37.3221 64.2908 34.7915 64.2908C32.0955 64.2908 29.4785 63.9542 26.9815 63.3224L23.1288 51.7279L27.9125 45.5956H41.6704L46.1562 51.3458L45.2833 53.9727C45.0558 54.6574 45.439 55.3929 46.1391 55.6155C46.276 55.659 46.4148 55.6797 46.5513 55.6797C47.1131 55.6797 47.6357 55.3294 47.8187 54.7786L48.4927 52.7501L59.1816 52.7778C55.5871 57.184 50.7734 60.5976 45.2442 62.5268Z" fill="white"/>
<path d="M26.6619 68.1203C26.1411 67.6111 25.2973 67.6111 24.7767 68.1203C24.2561 68.6294 24.2561 69.4549 24.7767 69.9639L36.6676 81.5935C36.928 81.848 37.2693 81.9754 37.6103 81.9754C37.9514 81.9754 38.2927 81.8482 38.553 81.5935C39.0736 81.0844 39.0736 80.2588 38.553 79.7499L26.6619 68.1203Z" fill="white"/>
<path d="M44.9505 68.346C44.4297 67.8368 43.5858 67.8368 43.0652 68.346C42.5447 68.8551 42.5447 69.6806 43.0652 70.1896L54.619 81.4893C54.8794 81.7438 55.2207 81.8712 55.5617 81.8712C55.9028 81.8712 56.2441 81.7439 56.5045 81.4893C57.025 80.9801 57.025 80.1546 56.5045 79.6457L44.9505 68.346Z" fill="white"/>
<path d="M85.6211 58.1712C85.9622 58.1712 86.3035 58.0439 86.5639 57.7893C87.0844 57.2801 87.0844 56.4546 86.5639 55.9456L75.01 44.6458C74.4893 44.1366 73.6454 44.1366 73.1248 44.6458C72.6042 45.1549 72.6042 45.9804 73.1248 46.4894L84.6786 57.7893C84.9388 58.0439 85.2801 58.1712 85.6211 58.1712Z" fill="white"/>
<path d="M86.2713 41.306C86.5317 41.5606 86.8727 41.6879 87.214 41.6879C87.555 41.6879 87.8963 41.5606 88.1567 41.306C88.6773 40.7968 88.6773 39.9713 88.1567 39.4624L73.4163 25.0457C72.8957 24.5366 72.0518 24.5364 71.5311 25.0457C71.0105 25.5549 71.0105 26.3804 71.5311 26.8894L86.2713 41.306Z" fill="white"/>
<path d="M85.2475 72.214C85.5079 72.4686 85.849 72.5959 86.1902 72.5959C86.5313 72.5959 86.8726 72.4686 87.1329 72.214C87.6535 71.7048 87.6535 70.8793 87.1329 70.3704L80.0872 63.4795C79.5666 62.9703 78.7227 62.9701 78.202 63.4795C77.6814 63.9886 77.6814 64.8141 78.202 65.3231L85.2475 72.214Z" fill="white"/>
<path d="M62.762 72.7866C62.2412 72.2775 61.3974 72.2775 60.8768 72.7866C60.3562 73.2958 60.3562 74.1213 60.8768 74.6303L67.9227 81.5213C68.1831 81.7758 68.5243 81.9032 68.8654 81.9032C69.2065 81.9032 69.5477 81.776 69.8081 81.5213C70.3287 81.0122 70.3287 80.1867 69.8081 79.6777L62.762 72.7866Z" fill="white"/>
<path d="M91.5426 87.4441L64.0418 60.5475C63.5212 60.0384 62.6773 60.0384 62.1566 60.5475C61.636 61.0566 61.636 61.8822 62.1566 62.3911L89.6574 89.2877C89.9178 89.5422 90.2589 89.6696 90.6001 89.6696C90.9412 89.6696 91.2824 89.5424 91.5428 89.2877C92.0632 88.7788 92.0632 87.9531 91.5426 87.4441Z" fill="white"/>
</svg>
