<svg width="91" height="91" viewBox="0 0 91 91" fill="none" xmlns="http://www.w3.org/2000/svg">
<path d="M62.7953 68.7018C62.5147 68.7607 62.2378 68.8317 61.9653 68.9149C60.2744 66.6614 57.8618 65.1326 55.1921 64.539L57.0027 61.0241L60.6862 57.33C63.5039 54.5004 63.5039 49.8964 60.6862 47.0668L56.7509 43.1151L76.7694 23.0127C76.7865 22.9967 76.8046 22.9823 76.8214 22.9656C76.8384 22.9485 76.8531 22.9299 76.8694 22.9123L84.6507 15.0983C84.6509 15.0981 84.6511 15.0979 84.6512 15.0979C84.6514 15.0978 84.6514 15.0976 84.6516 15.0974L88.3019 11.4317C90.8636 8.86632 90.865 4.68254 88.3037 2.10382C87.0656 0.860519 85.4157 0.176025 83.6569 0.176025C83.6555 0.176025 83.6538 0.176025 83.6524 0.176025C81.8945 0.177256 80.2465 0.862453 79.0137 2.10382L75.3624 5.77027C75.3624 5.77027 75.3624 5.77027 75.3623 5.77027L75.3621 5.77045L67.579 13.5861C67.562 13.6019 67.544 13.6163 67.5273 13.6328C67.5103 13.6499 67.4958 13.6681 67.4797 13.6857L63.066 18.1179C62.3823 18.8047 62.3825 19.9175 63.0666 20.604C63.7507 21.29 64.8597 21.2899 65.5435 20.6033L68.7679 17.3654L73.1043 21.7198L54.2745 40.6285L49.9381 36.274L54.4291 31.7642C55.1129 31.0774 55.1126 29.9645 54.4284 29.2781C53.744 28.5918 52.6351 28.592 51.9514 29.2788L47.4617 33.7872L43.5278 29.8369C42.1674 28.4709 40.3521 27.7185 38.4162 27.7185C36.4803 27.7185 34.6651 28.4709 33.3039 29.8378L29.6258 33.536L22.5334 37.2248C22.5258 37.2287 22.5183 37.2325 22.5109 37.2364L15.6794 40.7895C15.6493 40.8041 15.6197 40.8194 15.5903 40.8357L4.56754 46.5688C2.20098 47.7984 0.9184 49.2516 0.64605 51.0117C0.382633 52.7149 1.15379 54.4869 2.93782 56.2783L7.7888 61.1511C7.80684 61.1708 7.82611 61.1888 7.84485 61.2076L18.6423 72.0536L29.4111 82.864C29.4379 82.8927 29.4656 82.9206 29.4945 82.9477L34.3514 87.8235C35.9086 89.3871 37.4508 90.176 38.9456 90.176C39.1639 90.176 39.3811 90.1592 39.597 90.1256C41.3507 89.8524 42.7985 88.5643 44.0229 86.1877L44.8184 84.6444C45.2607 85.0457 45.7355 85.4169 46.2427 85.7523C48.1695 87.0265 50.3758 87.6859 52.629 87.6859C53.4189 87.6859 54.2151 87.6047 55.0064 87.4407C56.5013 87.132 57.9145 86.5356 59.1633 85.6932C61.2948 87.2428 63.9817 87.8392 66.6126 87.296C69.0865 86.7843 71.2134 85.3362 72.6016 83.2182C73.9893 81.1011 74.473 78.5683 73.9634 76.0868C72.9139 70.9645 67.907 67.6508 62.7953 68.7018V68.7018ZM83.6547 3.69166H83.6568C84.4794 3.69166 85.2499 4.01035 85.8245 4.58744C87.0213 5.79242 87.0229 7.74641 85.8261 8.94489L83.413 11.368L79.0765 7.01358L81.4927 4.58726C82.0659 4.01035 82.8336 3.69218 83.6547 3.69166V3.69166ZM71.2444 14.8786L76.6004 9.50018L80.9368 13.8546L75.5807 19.233L71.2444 14.8786ZM44.2791 67.8363L19.3746 42.8277L23.0026 40.9408L47.4545 65.4951C46.2553 66.0954 45.186 66.892 44.2791 67.8363V67.8363ZM30.341 37.1237L53.4282 60.3077L51.3513 64.3398C51.3229 64.343 51.2946 64.3462 51.2662 64.3495L26.2652 39.2437L30.341 37.1237ZM35.7825 32.3223C36.4812 31.6207 37.4166 31.2343 38.4165 31.2343C39.4163 31.2343 40.3517 31.6207 41.0505 32.3223L58.2086 49.552C59.6618 51.0112 59.6618 53.3856 58.2095 54.8439L55.573 57.488L33.1491 34.9702L35.7825 32.3223ZM40.912 84.5728C40.2746 85.81 39.5996 86.5678 39.0604 86.6516C38.5519 86.7316 37.7392 86.2521 36.8292 85.3382L32.8341 81.3275L36.6595 73.9166C37.1045 73.0545 36.7689 71.9937 35.91 71.5472C35.0509 71.1007 33.9941 71.4374 33.5493 72.2994L30.2357 78.7189L22.3612 70.8139L27.905 65.2305C28.5878 64.5429 28.5858 63.4298 27.9007 62.7446C27.2155 62.0594 26.1065 62.0612 25.4238 62.749L19.885 68.3273L12.0063 60.413L18.4006 57.0846C19.2594 56.6378 19.5944 55.5768 19.149 54.7149C18.7038 53.8532 17.6463 53.5166 16.7879 53.9638L9.40942 57.8044L5.41629 53.7933C4.50589 52.8792 4.02915 52.0618 4.10814 51.551C4.19203 51.0091 4.94655 50.3311 6.17922 49.6907L16.1122 44.5245L42.2293 70.7509C41.1001 73.018 40.6878 75.6653 41.2341 78.3363C41.4737 79.5015 41.8805 80.604 42.4349 81.6185L40.912 84.5728ZM69.676 81.2862C68.8022 82.6193 67.4634 83.531 65.9069 83.8528C63.9239 84.2629 61.8893 83.6431 60.4646 82.1964C59.8099 81.5316 58.7512 81.4972 58.055 82.1187C57.0027 83.0579 55.7045 83.7078 54.2997 83.9978C52.1671 84.4399 49.9904 84.0205 48.1705 82.8171C46.3502 81.6134 45.1051 79.7698 44.6646 77.6279C43.759 73.1996 46.6065 68.8578 51.0122 67.9491C51.0124 67.9491 51.0126 67.9491 51.0129 67.949C51.5674 67.8344 52.1223 67.7788 52.6714 67.7788C55.5674 67.7788 58.2864 69.3273 59.759 71.9368C60.2173 72.7489 61.2283 73.0598 62.0612 72.6452C62.5161 72.4187 63.0042 72.2498 63.5053 72.1447C66.719 71.4845 69.8718 73.5705 70.5333 76.7966C70.8542 78.3588 70.5498 79.9534 69.676 81.2862V81.2862Z" fill="white"/>
<path d="M84.182 74.345C80.8222 74.345 78.0889 77.0872 78.0889 80.4576C78.0889 83.8308 80.8222 86.5752 84.182 86.5752C87.539 86.5752 90.27 83.8308 90.27 80.4576C90.27 77.0872 87.539 74.345 84.182 74.345ZM84.182 83.0595C82.7537 83.0595 81.5918 81.8923 81.5918 80.4576C81.5918 79.0257 82.7537 77.8606 84.182 77.8606C85.6075 77.8606 86.7671 79.0255 86.7671 80.4576C86.7671 81.8923 85.6073 83.0595 84.182 83.0595Z" fill="white"/>
<path d="M83.751 55.649C83.751 51.4186 80.3232 47.9768 76.1098 47.9768C71.8991 47.9768 68.4736 51.4186 68.4736 55.649C68.4736 59.8793 71.8993 63.3211 76.1098 63.3211C80.3232 63.3211 83.751 59.8793 83.751 55.649ZM76.1098 59.8055C73.8306 59.8055 71.9765 57.941 71.9765 55.649C71.9765 53.357 73.8306 51.4924 76.1098 51.4924C78.3916 51.4924 80.2481 53.357 80.2481 55.649C80.2481 57.941 78.3917 59.8055 76.1098 59.8055Z" fill="white"/>
<path d="M58.7443 26.7001C59.1939 26.7001 59.6438 26.5278 59.9864 26.184C60.6703 25.4976 60.6703 24.3845 59.9864 23.6979C59.3024 23.0115 58.1934 23.0115 57.5093 23.6979L57.5044 23.7028C56.8205 24.3893 56.8229 25.4999 57.5069 26.1863C57.8484 26.5291 58.2961 26.7001 58.7443 26.7001V26.7001Z" fill="white"/>
</svg>
