<svg width="17" height="18" viewBox="0 0 17 18" fill="none" xmlns="http://www.w3.org/2000/svg">
<path d="M10.8014 8.99884L16.6011 3.21266C16.8551 2.95868 16.9978 2.61421 16.9978 2.25504C16.9978 1.89586 16.8551 1.55139 16.6011 1.29742C16.3471 1.04344 16.0027 0.900757 15.6435 0.900757C15.2843 0.900757 14.9399 1.04344 14.6859 1.29742L8.8997 7.09708L3.11352 1.29742C2.85954 1.04344 2.51507 0.900757 2.1559 0.900757C1.79672 0.900757 1.45225 1.04344 1.19828 1.29742C0.944301 1.55139 0.801618 1.89586 0.801618 2.25504C0.801618 2.61421 0.944301 2.95868 1.19828 3.21266L6.99795 8.99884L1.19828 14.785C1.07186 14.9104 0.97152 15.0596 0.903046 15.2239C0.834571 15.3883 0.799316 15.5646 0.799316 15.7426C0.799316 15.9207 0.834571 16.097 0.903046 16.2613C0.97152 16.4257 1.07186 16.5749 1.19828 16.7003C1.32366 16.8267 1.47284 16.927 1.6372 16.9955C1.80155 17.064 1.97784 17.0992 2.1559 17.0992C2.33395 17.0992 2.51024 17.064 2.6746 16.9955C2.83896 16.927 2.98813 16.8267 3.11352 16.7003L8.8997 10.9006L14.6859 16.7003C14.8113 16.8267 14.9604 16.927 15.1248 16.9955C15.2892 17.064 15.4654 17.0992 15.6435 17.0992C15.8216 17.0992 15.9978 17.064 16.1622 16.9955C16.3266 16.927 16.4757 16.8267 16.6011 16.7003C16.7275 16.5749 16.8279 16.4257 16.8964 16.2613C16.9648 16.097 17.0001 15.9207 17.0001 15.7426C17.0001 15.5646 16.9648 15.3883 16.8964 15.2239C16.8279 15.0596 16.7275 14.9104 16.6011 14.785L10.8014 8.99884Z" fill="white"/>
</svg>
