<svg width="91" height="91" viewBox="0 0 91 91" fill="none" xmlns="http://www.w3.org/2000/svg">
<path fill-rule="evenodd" clip-rule="evenodd" d="M38.7414 73.9602H25.8842C23.7532 73.9602 21.7089 73.1133 20.2014 71.6074C18.6955 70.0999 17.8485 68.0556 17.8485 65.9245V8.06744C17.8485 5.93638 18.6955 3.89207 20.2014 2.38458C21.7089 0.878685 23.7532 0.0317383 25.8842 0.0317383H64.4556C66.5867 0.0317383 68.631 0.878685 70.1385 2.38458C71.6444 3.89207 72.4913 5.93638 72.4913 8.06744V65.9245C72.4913 68.0556 71.6444 70.0999 70.1385 71.6074C68.631 73.1133 66.5867 73.9602 64.4556 73.9602H51.5985V78.7817H67.6699C68.9492 78.7817 70.1754 79.2895 71.0787 80.1943C71.9835 81.0975 72.4913 82.3238 72.4913 83.6031V85.2102C72.4913 86.4895 71.9835 87.7158 71.0787 88.619C70.1754 89.5238 68.9492 90.0316 67.6699 90.0316H22.6699C21.3907 90.0316 20.1644 89.5238 19.2612 88.619C18.3564 87.7158 17.8485 86.4895 17.8485 85.2102V83.6031C17.8485 82.3238 18.3564 81.0975 19.2612 80.1943C20.1644 79.2895 21.3907 78.7817 22.6699 78.7817H38.7414V73.9602ZM67.6699 81.9959H22.6699C22.2441 81.9959 21.8342 82.1647 21.5337 82.4668C21.2316 82.7674 21.0628 83.1772 21.0628 83.6031V85.2102C21.0628 85.6361 21.2316 86.0459 21.5337 86.3465C21.8342 86.6486 22.2441 86.8174 22.6699 86.8174H67.6699C68.0958 86.8174 68.5056 86.6486 68.8062 86.3465C69.1083 86.0459 69.277 85.6361 69.277 85.2102V83.6031C69.277 83.1772 69.1083 82.7674 68.8062 82.4668C68.5056 82.1647 68.0958 81.9959 67.6699 81.9959ZM41.9556 73.9602V78.7817H48.3842V73.9602H41.9556ZM25.8842 70.746H64.4556C65.7349 70.746 66.9612 70.2381 67.8644 69.3333C68.7692 68.4301 69.277 67.2038 69.277 65.9245V8.06744C69.277 6.78816 68.7692 5.56191 67.8644 4.65869C66.9612 3.75387 65.7349 3.24602 64.4556 3.24602H25.8842C24.6049 3.24602 23.3787 3.75387 22.4755 4.65869C21.5707 5.56191 21.0628 6.78816 21.0628 8.06744V65.9245C21.0628 67.2038 21.5707 68.4301 22.4755 69.3333C23.3787 70.2381 24.6049 70.746 25.8842 70.746ZM45.1699 40.2103C38.0744 40.2103 32.3128 45.9719 32.3128 53.0674C32.3128 60.1629 38.0744 65.9245 45.1699 65.9245C52.2655 65.9245 58.0271 60.1629 58.0271 53.0674C58.0271 45.9719 52.2655 40.2103 45.1699 40.2103ZM45.1699 43.4246C50.4912 43.4246 54.8128 47.7462 54.8128 53.0674C54.8128 58.3886 50.4912 62.7102 45.1699 62.7102C39.8487 62.7102 35.5271 58.3886 35.5271 53.0674C35.5271 47.7462 39.8487 43.4246 45.1699 43.4246ZM45.1699 46.6388C41.6214 46.6388 38.7414 49.5188 38.7414 53.0674C38.7414 56.616 41.6214 59.496 45.1699 59.496C48.7185 59.496 51.5985 56.616 51.5985 53.0674C51.5985 49.5188 48.7185 46.6388 45.1699 46.6388ZM45.1699 49.8531C46.9442 49.8531 48.3842 51.2931 48.3842 53.0674C48.3842 54.8417 46.9442 56.2817 45.1699 56.2817C43.3956 56.2817 41.9556 54.8417 41.9556 53.0674C41.9556 51.2931 43.3956 49.8531 45.1699 49.8531ZM4.91104 29.8233C2.69961 34.2478 2.9005 39.4935 5.44621 43.7347C5.90264 44.4949 5.65514 45.4833 4.89496 45.9397C4.13318 46.3962 3.14639 46.1486 2.68997 45.3885C-0.419852 40.2054 -0.667352 33.793 2.03586 28.3865C2.43282 27.5926 3.39872 27.2712 4.19264 27.6682C4.98657 28.0635 5.308 29.031 4.91104 29.8233ZM85.4288 29.8233C87.6402 34.2478 87.4393 39.4935 84.8936 43.7347C84.4372 44.4949 84.6847 45.4833 85.4449 45.9397C86.2067 46.3962 87.1935 46.1486 87.6499 45.3885C90.7597 40.2054 91.0072 33.793 88.304 28.3865C87.907 27.5926 86.9411 27.2712 86.1472 27.6682C85.3533 28.0635 85.0319 29.031 85.4288 29.8233ZM13.7455 32.2549C11.7783 34.7572 11.9391 38.3219 14.1232 40.6362C14.7307 41.2823 14.7017 42.2995 14.0557 42.9086C13.4112 43.5177 12.3923 43.4872 11.7848 42.8411C8.50943 39.3681 8.26835 34.0228 11.2175 30.2685C11.7655 29.571 12.7764 29.4505 13.4739 29.9985C14.1714 30.5465 14.2935 31.5574 13.7455 32.2549ZM76.5944 32.2549C78.5615 34.7572 78.4008 38.3219 76.2167 40.6362C75.6092 41.2823 75.6381 42.2995 76.2842 42.9086C76.9286 43.5177 77.9476 43.4872 78.5551 42.8411C81.8304 39.3681 82.0715 34.0228 79.1224 30.2685C78.5744 29.571 77.5635 29.4505 76.866 29.9985C76.1685 30.5465 76.0463 31.5574 76.5944 32.2549ZM45.1699 8.06744C38.0744 8.06744 32.3128 13.829 32.3128 20.9246C32.3128 28.0201 38.0744 33.7817 45.1699 33.7817C52.2655 33.7817 58.0271 28.0201 58.0271 20.9246C58.0271 13.829 52.2655 8.06744 45.1699 8.06744ZM45.1699 11.2817C50.4912 11.2817 54.8128 15.6033 54.8128 20.9246C54.8128 26.2458 50.4912 30.5674 45.1699 30.5674C39.8487 30.5674 35.5271 26.2458 35.5271 20.9246C35.5271 15.6033 39.8487 11.2817 45.1699 11.2817ZM45.1699 14.496C41.6214 14.496 38.7414 17.376 38.7414 20.9246C38.7414 24.4731 41.6214 27.3531 45.1699 27.3531C48.7185 27.3531 51.5985 24.4731 51.5985 20.9246C51.5985 17.376 48.7185 14.496 45.1699 14.496ZM45.1699 17.7103C46.9442 17.7103 48.3842 19.1503 48.3842 20.9246C48.3842 22.6989 46.9442 24.1389 45.1699 24.1389C43.3956 24.1389 41.9556 22.6989 41.9556 20.9246C41.9556 19.1503 43.3956 17.7103 45.1699 17.7103Z" fill="white"/>
</svg>
