<svg width="92" height="90" viewBox="0 0 92 90" fill="none" xmlns="http://www.w3.org/2000/svg">
<path d="M76.4342 9.18262C75.6952 9.18262 75.0962 9.76824 75.0962 10.4912C75.0962 11.214 75.6952 11.7998 76.4342 11.7998C78.5016 11.7998 80.1837 13.4447 80.1837 15.4667C80.1837 16.1895 80.7824 16.7753 81.5216 16.7753C82.2607 16.7753 82.8596 16.1896 82.8596 15.4667C82.8594 12.0018 79.9771 9.18262 76.4342 9.18262Z" fill="white"/>
<path d="M87.0474 5.0865C84.1814 2.28352 80.313 0.675781 76.4342 0.675781C75.6952 0.675781 75.0962 1.26141 75.0962 1.98436C75.0962 2.70714 75.6952 3.29294 76.4342 3.29294C83.0651 3.29294 88.8814 8.98146 88.8814 15.4663C88.8814 16.1891 89.4802 16.7749 90.2194 16.7749C90.9584 16.7749 91.5574 16.1892 91.5574 15.4663C91.5572 11.673 89.9134 7.88947 87.0474 5.0865Z" fill="white"/>
<path d="M76.4342 4.96606C75.6952 4.96606 75.0962 5.55169 75.0962 6.27464C75.0962 6.99742 75.6952 7.58322 76.4342 7.58322C80.8788 7.58322 84.4948 11.1198 84.4948 15.4665C84.4948 16.1893 85.0936 16.7751 85.8328 16.7751C86.5718 16.7751 87.1708 16.1895 87.1708 15.4665C87.1708 9.67646 82.3543 4.96606 76.4342 4.96606Z" fill="white"/>
<path d="M30.1344 19.0895C29.8918 18.8522 29.5582 18.7057 29.1888 18.7057H9.44982C7.62129 18.7057 6.13525 20.1608 6.13525 21.9474V39.7C6.13525 40.4222 6.73457 41.0085 7.47324 41.0085C8.21137 41.0085 8.81122 40.4224 8.81122 39.7V21.9474C8.81122 21.6038 9.09844 21.3228 9.44982 21.3228H29.1391C29.8509 21.3228 30.4753 20.8012 30.5234 20.1067C30.5519 19.7089 30.3967 19.3459 30.1344 19.0895Z" fill="white"/>
<path d="M86.0598 33.946H78.7333V20.5745C78.7333 16.4429 75.2975 13.0826 71.0731 13.0826H8.27687C4.05426 13.0826 0.616699 16.4429 0.616699 20.5745V56.8699C0.616699 60.9998 4.05426 64.3618 8.27687 64.3618H35.5568V67.3836H30.2068C28.4746 67.3836 27.0654 68.7619 27.0654 70.456V71.8762C27.0654 73.5703 28.4746 74.9486 30.2068 74.9486H49.1432C50.8754 74.9486 52.2846 73.5703 52.2846 71.8762V70.456C52.2846 68.7619 50.8754 67.3836 49.1432 67.3836H43.7932V64.3618H64.139V84.3318C64.139 87.2787 66.5901 89.676 69.6031 89.676H86.0598C89.0747 89.676 91.5259 87.2787 91.5259 84.3318V39.29C91.5257 36.3431 89.0746 33.946 86.0598 33.946ZM49.1432 70.0006C49.3964 70.0006 49.6088 70.2081 49.6088 70.456V71.8762C49.6088 72.1222 49.3966 72.3316 49.1432 72.3316H30.2068C29.9535 72.3316 29.7411 72.1223 29.7411 71.8762V70.456C29.7411 70.2083 29.9534 70.0006 30.2068 70.0006H49.1432ZM38.2326 67.3836V64.3618H41.1172V67.3836H38.2326ZM64.1388 39.29V56.4564H9.45081C9.09943 56.4564 8.81221 56.1755 8.81221 55.8318V45.8067C8.81221 45.0844 8.21289 44.4981 7.47422 44.4981C6.73592 44.4981 6.13624 45.0842 6.13624 45.8067V55.8318C6.13624 57.6185 7.62228 59.0736 9.45081 59.0736H64.139V61.7448H8.27705C5.52448 61.7448 3.29267 59.5622 3.29267 56.8699V20.5745C3.29267 17.8824 5.5243 15.6996 8.27705 15.6996H71.0729C73.8255 15.6996 76.0573 17.8822 76.0573 20.5745V33.946H73.2155V21.9475C73.2155 20.1644 71.7241 18.7058 69.9009 18.7058H35.4836C34.2565 18.7058 33.6373 20.1011 34.4881 20.939C34.7307 21.1763 35.0643 21.3228 35.4336 21.3228H69.9009C70.2523 21.3228 70.5395 21.6037 70.5395 21.9474V33.9458H69.6031C66.5846 33.946 64.1388 36.3379 64.1388 39.29ZM86.0598 87.0587H69.6031C68.0653 87.0587 66.8148 85.8356 66.8148 84.3317V79.8582H88.8499V84.3317C88.8499 85.8358 87.5976 87.0587 86.0598 87.0587ZM88.8499 46.4154H76.0779C75.3391 46.4154 74.7399 47.0012 74.7399 47.724C74.7399 48.4468 75.3389 49.0326 76.0779 49.0326H88.8499V77.2412H66.8148V49.0326H70.0723C70.8111 49.0326 71.4103 48.4468 71.4103 47.724C71.4103 47.0012 70.8113 46.4154 70.0723 46.4154H66.8148V39.29C66.8148 37.784 68.0632 36.563 69.6031 36.563H86.0598C87.6008 36.563 88.8499 37.7847 88.8499 39.2918V46.4154Z" fill="white"/>
<path d="M85.0277 40.1361H80.5982C79.8598 40.1361 79.2603 40.7223 79.2603 41.4447C79.2603 42.1687 79.8596 42.7533 80.5982 42.7533H85.0277C85.7662 42.7533 86.3657 42.1689 86.3657 41.4447C86.3657 40.7223 85.7664 40.1361 85.0277 40.1361Z" fill="white"/>
<path d="M72.1842 51.8313H70.6344C69.8953 51.8313 69.2964 52.4169 69.2964 53.1399C69.2964 53.8627 69.8952 54.4485 70.6344 54.4485H72.1842C72.9232 54.4485 73.5222 53.8628 73.5222 53.1399C73.522 52.4171 72.9232 51.8313 72.1842 51.8313Z" fill="white"/>
<path d="M78.6063 51.8313H77.0562C76.3172 51.8313 75.7183 52.4169 75.7183 53.1399C75.7183 53.8627 76.317 54.4485 77.0562 54.4485H78.6063C79.3453 54.4485 79.9443 53.8628 79.9443 53.1399C79.9443 52.4171 79.3453 51.8313 78.6063 51.8313Z" fill="white"/>
<path d="M85.028 51.8313H83.4781C82.7391 51.8313 82.1401 52.4169 82.1401 53.1399C82.1401 53.8627 82.7391 54.4485 83.4781 54.4485H85.028C85.767 54.4485 86.3659 53.8628 86.3659 53.1399C86.3659 52.4171 85.7672 51.8313 85.028 51.8313Z" fill="white"/>
<path d="M72.1842 58.3281H70.6344C69.8953 58.3281 69.2964 58.9138 69.2964 59.6367C69.2964 60.3595 69.8952 60.9453 70.6344 60.9453H72.1842C72.9232 60.9453 73.5222 60.3597 73.5222 59.6367C73.522 58.9139 72.9232 58.3281 72.1842 58.3281Z" fill="white"/>
<path d="M78.6063 58.3281H77.0562C76.3172 58.3281 75.7183 58.9138 75.7183 59.6367C75.7183 60.3595 76.317 60.9453 77.0562 60.9453H78.6063C79.3453 60.9453 79.9443 60.3597 79.9443 59.6367C79.9443 58.9139 79.3453 58.3281 78.6063 58.3281Z" fill="white"/>
<path d="M85.028 58.3281H83.4781C82.7391 58.3281 82.1401 58.9138 82.1401 59.6367C82.1401 60.3595 82.7391 60.9453 83.4781 60.9453H85.028C85.767 60.9453 86.3659 60.3597 86.3659 59.6367C86.3659 58.9139 85.7672 58.3281 85.028 58.3281Z" fill="white"/>
<path d="M72.1842 64.825H70.6344C69.8953 64.825 69.2964 65.4106 69.2964 66.1335C69.2964 66.8563 69.8952 67.4421 70.6344 67.4421H72.1842C72.9232 67.4421 73.5222 66.8565 73.5222 66.1335C73.522 65.4108 72.9232 64.825 72.1842 64.825Z" fill="white"/>
<path d="M78.6063 64.825H77.0562C76.3172 64.825 75.7183 65.4106 75.7183 66.1335C75.7183 66.8563 76.317 67.4421 77.0562 67.4421H78.6063C79.3453 67.4421 79.9443 66.8565 79.9443 66.1335C79.9443 65.4108 79.3453 64.825 78.6063 64.825Z" fill="white"/>
<path d="M85.028 64.825H83.4781C82.7391 64.825 82.1401 65.4106 82.1401 66.1335C82.1401 66.8563 82.7391 67.4421 83.4781 67.4421H85.028C85.767 67.4421 86.3659 66.8565 86.3659 66.1335C86.3659 65.4108 85.7672 64.825 85.028 64.825Z" fill="white"/>
<path d="M72.1842 71.3218H70.6344C69.8953 71.3218 69.2964 71.9074 69.2964 72.6304C69.2964 73.3531 69.8952 73.9389 70.6344 73.9389H72.1842C72.9232 73.9389 73.5222 73.3533 73.5222 72.6304C73.522 71.9076 72.9232 71.3218 72.1842 71.3218Z" fill="white"/>
<path d="M78.6063 71.3218H77.0562C76.3172 71.3218 75.7183 71.9074 75.7183 72.6304C75.7183 73.3531 76.317 73.9389 77.0562 73.9389H78.6063C79.3453 73.9389 79.9443 73.3533 79.9443 72.6304C79.9443 71.9076 79.3453 71.3218 78.6063 71.3218Z" fill="white"/>
<path d="M85.028 71.3218H83.4781C82.7391 71.3218 82.1401 71.9074 82.1401 72.6304C82.1401 73.3531 82.7391 73.9389 83.4781 73.9389H85.028C85.767 73.9389 86.3659 73.3533 86.3659 72.6304C86.3659 71.9076 85.7672 71.3218 85.028 71.3218Z" fill="white"/>
</svg>
