<svg width="55" height="52" viewBox="0 0 55 52" fill="none" xmlns="http://www.w3.org/2000/svg">
<path d="M8.46546 29.1916C8.15302 29.4962 8.14649 29.9966 8.45117 30.309C8.60596 30.4679 8.81139 30.5475 9.01683 30.5475C9.21573 30.5475 9.41503 30.4732 9.5686 30.3233C11.1479 28.784 10.501 27.5171 10.0726 26.6786C9.67029 25.892 9.50407 25.5661 10.3515 24.7684C10.6689 24.4695 10.6844 23.9691 10.385 23.6518C10.0861 23.3336 9.58575 23.3189 9.26841 23.6179C7.55674 25.2287 8.22368 26.534 8.66518 27.3978C9.05113 28.153 9.21082 28.4654 8.46546 29.1916Z" fill="white"/>
<path d="M12.8396 24.955C12.5271 25.2597 12.5206 25.76 12.8253 26.0724C12.9801 26.2313 13.1855 26.3109 13.3913 26.3109C13.5898 26.3109 13.7891 26.2366 13.9427 26.0867C15.5229 24.5466 14.8743 23.2797 14.4451 22.4416C14.0424 21.655 13.8757 21.3291 14.7228 20.5318C15.0405 20.2329 15.0556 19.7326 14.7567 19.4152C14.4573 19.0971 13.957 19.0824 13.6397 19.3813C11.928 20.9925 12.5962 22.2978 13.0385 23.1616C13.4248 23.9164 13.5845 24.2288 12.8396 24.955Z" fill="white"/>
<path d="M24.4502 20.4768C24.6548 20.4768 24.859 20.3975 25.0138 20.2395C25.2711 20.0112 26.4216 20.0136 26.6756 20.2419C26.9836 20.5515 27.4839 20.5532 27.793 20.2456C28.1026 19.9381 28.1043 19.4378 27.7967 19.1282C27.2253 18.5527 26.2488 18.4878 25.8384 18.4878C25.8331 18.4878 25.8277 18.4878 25.8224 18.4878C25.4279 18.4894 24.4497 18.5556 23.8857 19.1327C23.5806 19.4447 23.5851 19.9462 23.8976 20.2513C24.0511 20.4016 24.2508 20.4768 24.4502 20.4768Z" fill="white"/>
<path d="M30.8497 20.4768C31.0544 20.4768 31.2586 20.3975 31.4129 20.2395C31.6703 20.0112 32.8212 20.0136 33.0752 20.2419C33.3827 20.5515 33.8831 20.5532 34.1926 20.2456C34.5022 19.9381 34.5038 19.4378 34.1963 19.1282C33.6245 18.5527 32.6484 18.4878 32.238 18.4878C32.2322 18.4878 32.2269 18.4878 32.222 18.4878C31.8275 18.4894 30.8493 18.5556 30.2853 19.1327C29.9802 19.4447 29.9847 19.9462 30.2967 20.2509C30.4507 20.4016 30.65 20.4768 30.8497 20.4768Z" fill="white"/>
<path d="M29.1198 10.7861C29.5559 10.7861 29.9096 10.4324 29.9096 9.99581V6.36703C29.9096 5.93084 29.5559 5.57715 29.1198 5.57715C28.6832 5.57715 28.3295 5.93084 28.3295 6.36703V9.99581C28.3295 10.4324 28.6832 10.7861 29.1198 10.7861Z" fill="white"/>
<path d="M23.7552 7.21729C23.319 7.21729 22.9653 7.57097 22.9653 8.00757V11.6335C22.9653 12.0697 23.319 12.4234 23.7552 12.4234C24.1918 12.4234 24.5455 12.0697 24.5455 11.6335V8.00757C24.5455 7.57097 24.1918 7.21729 23.7552 7.21729Z" fill="white"/>
<path d="M34.4843 12.4234C34.9204 12.4234 35.2741 12.0697 35.2741 11.6331V8.00716C35.2741 7.57097 34.9204 7.21729 34.4843 7.21729C34.0477 7.21729 33.694 7.57097 33.694 8.00716V11.6331C33.694 12.0697 34.0477 12.4234 34.4843 12.4234Z" fill="white"/>
<path d="M51.3688 27.916C53.0592 27.916 54.4343 26.5396 54.4343 24.848V17.9678C54.4343 16.2765 53.0592 14.9002 51.3688 14.9002H48.0144C46.324 14.9002 44.9489 16.2765 44.9489 17.9678V24.848C44.9489 26.5396 46.324 27.916 48.0144 27.916H48.9015V38.9808H48.2472C48.021 38.9808 47.8012 39.0094 47.5917 39.0629L46.8378 35.8691C45.9617 32.1553 42.8774 30.1472 37.6701 29.9005C37.6664 29.9001 37.6627 29.9001 37.659 29.9001C37.2396 29.8862 36.8814 29.8106 36.5649 29.6603C36.5526 29.6546 36.5408 29.6481 36.5281 29.6428C36.1511 29.4557 35.833 29.1584 35.5402 28.7283C35.7084 28.5989 35.8751 28.4665 36.0364 28.3285C38.3207 26.3783 39.5782 23.9041 39.5782 21.3609V16.2741C39.59 16.1961 39.5896 16.1189 39.5782 16.0441V10.8576C41.0579 9.77289 41.6684 8.22213 41.2151 6.63707C40.6625 4.70485 38.6903 3.35544 36.4183 3.35544H34.1895C33.5022 1.76956 32.0074 0.737083 30.0833 0.552887C27.7504 0.329892 25.48 1.44324 24.2809 3.35544H22.1519C19.8472 3.35544 17.8459 4.72486 17.2852 6.68567C16.8371 8.25358 17.4367 9.78596 18.8947 10.8572V19.9698V19.9772V21.7709C18.8947 24.435 20.5178 26.531 21.8794 27.8196C22.2058 28.1288 22.5513 28.4228 22.9099 28.7006C22.6109 29.1474 22.2858 29.4549 21.8978 29.646C21.8966 29.6469 21.8958 29.6473 21.8946 29.6477C21.5711 29.8065 21.2043 29.8858 20.7726 29.9001C20.769 29.9001 20.7653 29.9005 20.7616 29.9005C19.9623 29.9385 19.2133 30.0181 18.5145 30.139C18.5116 30.1394 18.5088 30.1398 18.5059 30.1406C15.067 30.7373 12.8457 32.3375 11.8814 34.9154H3.57298C2.10023 34.9154 0.902344 36.1154 0.902344 37.5906C0.902344 39.0641 2.10023 40.2632 3.57298 40.2632H5.6265C6.41638 42.0999 7.63836 43.6641 9.19892 44.8432H8.43069C7.14336 44.8432 6.09618 45.8912 6.09618 47.1794V48.793C6.09618 50.0812 7.14336 51.1292 8.43069 51.1292H13.0585C13.4946 51.1292 13.8483 50.7755 13.8483 50.3393C13.8483 49.9027 13.4946 49.549 13.0585 49.549H8.43069C8.01451 49.549 7.67634 49.21 7.67634 48.793V47.1794C7.67634 46.7624 8.01492 46.4234 8.43069 46.4234H24.887C25.2501 46.4234 25.554 46.6815 25.6258 47.0246C25.6283 47.0507 25.6324 47.0764 25.6377 47.1022C25.6405 47.1275 25.6418 47.1532 25.6418 47.1794V48.793C25.6418 49.21 25.3032 49.549 24.887 49.549H16.6574C16.2212 49.549 15.8675 49.9027 15.8675 50.3393C15.8675 50.7755 16.2212 51.1292 16.6574 51.1292H24.887C26.1748 51.1292 27.2219 50.0812 27.2219 48.793V47.7303H45.6031C45.6693 49.1345 46.8296 50.256 48.2468 50.256H49.6914C51.9475 50.256 53.7829 48.4193 53.7829 46.1616V43.0752C53.7829 41.0882 52.3608 39.4276 50.4813 39.0584V27.916H51.3688ZM45.2997 36.2322L46.1827 39.9745C45.8188 40.4282 45.6003 41.0037 45.6003 41.6298V46.1502H43.3532L42.0613 38.6696C41.9017 37.7172 41.3548 36.9996 40.616 36.7014V31.898C43.2315 32.5678 44.7732 33.9998 45.2997 36.2322ZM39.0358 31.6032V36.5499H37.0109V31.4243C37.1975 31.4533 37.3936 31.4721 37.6006 31.479C38.1042 31.5031 38.5816 31.5452 39.0358 31.6032ZM31.6185 36.5499C31.2118 35.5901 30.261 34.9154 29.1554 34.9154H23.0626V32.5074C24.5697 33.6073 26.7559 34.0986 28.6718 34.1721C28.8393 34.1786 29.01 34.1819 29.1832 34.1819C31.2681 34.1819 33.7333 33.7032 35.4307 32.4388V36.5499H31.6185ZM27.8047 38.0827C27.9346 37.495 27.9518 36.9563 27.8603 36.4952H29.1554C29.7582 36.4952 30.2487 36.9865 30.2487 37.5906C30.2487 38.193 29.7582 38.6827 29.1554 38.6827H27.654C27.7092 38.4846 27.7598 38.2849 27.8047 38.0827ZM37.998 16.7911V18.9206C37.2045 18.5767 36.1838 17.8567 36.0311 16.4084C36.6878 16.5199 37.3437 16.6478 37.998 16.7911ZM22.4083 16.4093C22.256 17.8252 21.2701 18.5469 20.4749 18.9018V16.7895C21.1182 16.647 21.763 16.5203 22.4083 16.4093ZM20.4749 21.7709V20.5861C20.9646 20.4264 21.6332 20.1434 22.2589 19.6602C23.0671 19.037 23.9713 17.9441 24.0101 16.1658C25.2003 16.009 26.3892 15.9053 27.5691 15.8571C28.0053 15.8395 28.3443 15.4715 28.3267 15.0357C28.3087 14.5996 27.9387 14.2622 27.505 14.2781C26.0522 14.3374 24.5872 14.477 23.1223 14.6943C23.1157 14.6947 23.1092 14.6947 23.1026 14.6955C23.0745 14.6988 23.0471 14.7033 23.0197 14.709C22.1706 14.8373 21.3215 14.9916 20.4745 15.1722V10.4386C20.4745 10.1658 20.334 9.91216 20.102 9.76799C18.9776 9.06756 18.5165 8.12738 18.8049 7.11982C19.1149 6.03466 20.3642 4.93561 22.1519 4.93561H24.7396C25.0361 4.93561 25.3077 4.76979 25.4429 4.50595C26.3908 2.65623 28.3802 1.97744 29.9326 2.12611C31.4094 2.26742 32.5101 3.10467 32.8769 4.36627C32.9749 4.70363 33.2841 4.93561 33.6357 4.93561H36.4183C38.2504 4.93561 39.4013 6.04323 39.6954 7.07203C39.9837 8.08123 39.501 9.06388 38.3705 9.76799C38.1385 9.91216 37.998 10.1658 37.998 10.4386V15.1726C37.1465 14.9937 36.2925 14.8418 35.4385 14.7139C35.4058 14.7062 35.3723 14.6992 35.338 14.6955C35.3274 14.6943 35.3168 14.6943 35.3061 14.6935C33.9751 14.4987 32.6445 14.3647 31.3241 14.2965C30.8903 14.2736 30.5166 14.609 30.4942 15.0447C30.4717 15.4805 30.807 15.8522 31.2428 15.8746C32.2998 15.929 33.3641 16.029 34.4301 16.1683C34.4681 18.0233 35.443 19.1375 36.3137 19.7644C36.9165 20.1981 37.5406 20.453 37.998 20.598V21.3609C37.998 23.434 36.9369 25.4818 35.0104 27.1269C33.2984 28.5882 31.057 29.5619 29.1619 29.6677C29.1158 29.6701 29.068 29.6718 29.0186 29.6718C27.9101 29.6714 26.1229 29.0269 24.4394 27.8633C24.4137 27.8429 24.3863 27.8245 24.3585 27.8073C23.8786 27.4704 23.4086 27.091 22.9658 26.6719C21.8296 25.5966 20.4749 23.8731 20.4749 21.7709ZM29.019 31.2519C29.097 31.2519 29.1742 31.2495 29.2493 31.2454C30.8679 31.1551 32.6294 30.567 34.2312 29.6162C34.464 29.9585 34.7515 30.2995 35.1134 30.5944C33.8236 32.0888 31.0901 32.6834 28.7327 32.5932C26.2826 32.4992 24.2221 31.7171 23.3236 30.5903C23.6887 30.2913 23.9775 29.9458 24.2115 29.5995C25.875 30.6209 27.6487 31.2519 29.019 31.2519ZM20.831 31.4794C21.0614 31.4713 21.2778 31.4484 21.4829 31.4137V34.9154H19.4579V31.595C19.8933 31.5415 20.3503 31.5023 20.831 31.4794ZM17.8778 31.8821V34.9154H13.6049C14.3687 33.4092 15.7822 32.4045 17.8778 31.8821ZM3.57298 38.6827C2.97179 38.6827 2.48251 38.193 2.48251 37.5906C2.48251 36.9865 2.97179 36.4952 3.57298 36.4952H4.86889C4.77699 36.9563 4.79415 37.495 4.92402 38.0827V38.0839C4.96895 38.2861 5.02 38.4854 5.07391 38.6827H3.57298ZM12.3711 44.8432C9.34554 43.6045 7.19768 41.0241 6.46702 37.7417C6.33306 37.1368 6.39596 36.7071 6.51072 36.5638C6.52747 36.5434 6.56586 36.4956 6.73862 36.4956H12.4487H12.4515H12.454H25.9897C26.1637 36.4956 26.2025 36.5434 26.2189 36.5638C26.3332 36.7063 26.3953 37.1356 26.2617 37.7413C25.556 40.9294 23.3836 43.5735 20.4357 44.8432H12.3711ZM26.9826 46.1502C26.6016 45.3766 25.8055 44.8432 24.8874 44.8432H23.5245C25.072 43.6502 26.3022 42.0746 27.0937 40.2628H29.1554C30.4452 40.2628 31.5242 39.3459 31.7746 38.1297H39.8257C40.3529 38.1297 40.4889 38.8489 40.5032 38.9347L41.7497 46.1502H26.9826ZM52.2027 43.0752V46.1616C52.2027 47.5478 51.0763 48.6758 49.6914 48.6758H48.2472C47.6587 48.6758 47.18 48.1951 47.18 47.6041V41.6298C47.18 41.3035 47.3271 41.0115 47.5578 40.8154C47.5652 40.8097 47.5721 40.804 47.5791 40.7979C47.762 40.65 47.9944 40.561 48.2468 40.561H49.6914C51.0763 40.561 52.2027 41.689 52.2027 43.0752ZM46.5286 24.848V17.9678C46.5286 17.1477 47.1951 16.4803 48.0144 16.4803H51.3688C52.1876 16.4803 52.8542 17.1477 52.8542 17.9678V24.848C52.8542 25.6685 52.1876 26.3358 51.3688 26.3358H48.0144C47.1951 26.3358 46.5286 25.6685 46.5286 24.848Z" fill="white"/>
</svg>
