<svg width="63" height="63" viewBox="0 0 63 63" fill="none" xmlns="http://www.w3.org/2000/svg">
<path d="M62.225 27.4546C62.225 28.7945 61.1388 29.8807 59.7988 29.8807C58.4588 29.8807 57.3726 28.7945 57.3726 27.4546C57.3726 26.9013 56.9294 26.4841 56.3415 26.4841C55.8532 26.4841 55.4431 26.8253 55.3371 27.2817C56.7338 32.542 56.0414 38.2327 53.4144 42.9664C52.9713 43.7649 52.1437 44.2156 51.2908 44.2157C50.8925 44.2157 50.4888 44.1175 50.1157 43.9104C48.9441 43.2603 48.5213 41.7833 49.1716 40.6117C51.2498 36.8669 51.7533 32.3392 50.5535 28.1892C50.4902 27.9701 50.458 27.7433 50.458 27.5152C50.458 27.1633 50.4909 26.8191 50.5503 26.4841H11.7894C11.849 26.8191 11.8817 27.1026 11.8817 27.4546C11.8817 27.6826 11.8496 27.9701 11.7863 28.1892C10.0244 34.2824 11.9466 40.8539 16.6835 44.9307C20.6771 48.3678 25.8201 50.2607 31.1655 50.2607C34.949 50.2607 38.6863 49.2993 41.9818 47.4805C43.1547 46.8328 44.6308 47.259 45.2782 48.4323C45.9258 49.6055 45.4996 51.0813 44.3264 51.7287C44.2716 51.7591 44.2156 51.787 44.1605 51.8169L47.5967 59.3707C48.2854 60.972 47.1111 62.7556 45.3679 62.7556C44.3985 62.7556 43.5222 62.1786 43.1391 61.288L39.7059 53.7408C37.7276 54.3922 35.6756 54.8164 33.5962 55.0028V60.3293C33.5962 61.6693 32.51 62.7555 31.17 62.7555C29.83 62.7555 28.7438 61.6693 28.7438 60.3293V55.0054C26.6168 54.8167 24.533 54.3798 22.5328 53.7132L19.3723 61.2878C18.9891 62.1784 18.1128 62.7555 17.1434 62.7555C15.4002 62.7555 14.2258 60.972 14.9146 59.3706L18.0851 51.7721C16.4644 50.8827 14.9323 49.8255 13.5183 48.6086C7.46086 43.3952 4.9312 35.0685 7.0028 27.2815C6.89653 26.8252 6.48638 26.4841 5.99824 26.4841C5.41037 26.4841 4.96711 26.9013 4.96711 27.4546C4.96711 28.7945 3.88091 29.8807 2.54093 29.8807C1.20095 29.8807 0.114746 28.7945 0.114746 27.4546C0.114746 24.2439 2.75407 21.6317 5.99824 21.6317H8.12114V17.384C8.12114 11.1856 10.5615 6.63393 15.3745 3.85546C19.1164 1.69531 24.283 0.645264 31.1699 0.645264C37.2929 0.645264 41.765 1.33527 45.2439 2.81682C49.8183 4.76492 52.6777 8.13962 53.7429 12.8474C54.0387 14.1542 53.2189 15.4533 51.9119 15.7491C50.6054 16.0445 49.3059 15.2252 49.0102 13.9181C48.2888 10.7296 46.4879 8.62061 43.3427 7.28123C40.4853 6.06438 36.6172 5.49763 31.1699 5.49763C25.1578 5.49763 20.7847 6.33502 17.8005 8.05773C14.5073 9.95901 12.9735 12.9225 12.9735 17.384V21.6317H56.3415C59.5857 21.6317 62.225 24.2438 62.225 27.4546ZM42.1659 33.6368C41.7748 35.1399 40.8739 36.5318 39.5604 37.6622C38.4152 38.6479 37.4863 39.2607 36.5492 39.649C35.3114 40.162 34.7236 41.5814 35.2366 42.8192C35.6237 43.7534 36.527 44.3172 37.4789 44.3172C37.7884 44.3172 38.1032 44.2577 38.4067 44.1319C40.2653 43.3617 41.7617 42.1697 42.7258 41.3401C44.7907 39.5627 46.221 37.3216 46.8619 34.859C47.1994 33.5624 46.4217 32.2375 45.125 31.8999C43.8281 31.5628 42.5035 32.3399 42.1659 33.6368Z" fill="white"/>
</svg>
