<svg width="24" height="24" viewBox="0 0 24 24" fill="none" xmlns="http://www.w3.org/2000/svg">
<path d="M22.5546 0.252289H2.09384C1.75716 0.252425 1.4343 0.386232 1.19623 0.624302C0.958162 0.862373 0.824355 1.18523 0.824219 1.52191V21.9827C0.824355 22.3194 0.958162 22.6422 1.19623 22.8803C1.4343 23.1183 1.75716 23.2522 2.09384 23.2523H12.3242V14.2166H9.575V10.9309H12.3242V8.31256C12.3242 5.34207 14.3845 3.72488 17.0382 3.72488C18.3078 3.72488 19.6734 3.82037 19.9907 3.86247V6.9649H17.8766C16.4329 6.9649 16.1577 7.64771 16.1577 8.65396V10.9309H19.5975L19.1482 14.2166H16.1577V23.2523H22.5546C22.8913 23.2522 23.2141 23.1183 23.4522 22.8803C23.6903 22.6422 23.8241 22.3194 23.8242 21.9827V1.52191C23.8241 1.18523 23.6903 0.862373 23.4522 0.624302C23.2141 0.386232 22.8913 0.252425 22.5546 0.252289Z" fill="#1E82BD"/>
</svg>
