<svg width="23" height="24" viewBox="0 0 23 24" fill="none" xmlns="http://www.w3.org/2000/svg">
<path d="M21.7304 0.50293H1.26962C0.932938 0.503066 0.610084 0.636873 0.372014 0.874943C0.133943 1.11301 0.000136061 1.43587 0 1.77255V22.2333C0.000136061 22.57 0.133943 22.8928 0.372014 23.1309C0.610084 23.369 0.932938 23.5028 1.26962 23.5029H11.5V14.4672H8.75078V11.1815H11.5V8.5632C11.5 5.59271 13.5602 3.97552 16.214 3.97552C17.4836 3.97552 18.8492 4.07101 19.1665 4.11311V7.21554H17.0523C15.6087 7.21554 15.3335 7.89835 15.3335 8.9046V11.1815H18.7732L18.324 14.4672H15.3335V23.5029H21.7304C22.0671 23.5028 22.3899 23.369 22.628 23.1309C22.8661 22.8928 22.9999 22.57 23 22.2333V1.77255C22.9999 1.43587 22.8661 1.11301 22.628 0.874943C22.3899 0.636873 22.0671 0.503066 21.7304 0.50293Z" fill="white"/>
</svg>
