<svg width="91" height="84" viewBox="0 0 91 84" fill="none" xmlns="http://www.w3.org/2000/svg">
<path d="M89.741 30.6464L45.9301 0.255491C45.5224 -0.0275466 44.9821 -0.0275466 44.5744 0.255491L0.763919 30.6464C0.336587 30.9427 0.151462 31.4824 0.306856 31.9788C0.462051 32.4751 0.921889 32.8128 1.44178 32.8128H7.14635V80.7786H2.73726C2.0804 80.7786 1.54802 81.3112 1.54802 81.9679C1.54802 82.6245 2.0804 83.1571 2.73726 83.1571H87.7676C88.4245 83.1571 88.9569 82.6245 88.9569 81.9679C88.9569 81.3112 88.4245 80.7786 87.7676 80.7786H83.3585V32.8128H89.0631C89.5832 32.8128 90.0428 32.4751 90.198 31.9788C90.3534 31.4824 90.1683 30.9429 89.741 30.6464ZM9.52482 80.7786V32.8128H13.6871V80.7786H9.52482ZM36.5409 14.5124H53.9636L59.5354 18.3775H30.9693L36.5409 14.5124ZM39.9697 12.134L45.2522 8.46954L50.5348 12.134H39.9697ZM27.5406 20.7559H62.9641L68.5359 24.621H21.9688L27.5406 20.7559ZM18.54 26.9994H71.9647L76.9164 30.4343H13.5884L18.54 26.9994ZM29.7924 61.0909V59.7034H60.7125V61.0909H29.7924ZM61.9017 63.4693C62.5584 63.4693 63.091 62.9367 63.091 62.2801V58.5142C63.091 57.8575 62.5584 57.3249 61.9017 57.3249H28.6031C27.9465 57.3249 27.4139 57.8575 27.4139 58.5142V62.2801C27.4139 62.9367 27.9465 63.4693 28.6031 63.4693H42.1802V80.7786H16.0656V46.29L29.5426 32.8128H60.9622L74.4393 46.29V80.7786H48.3246V63.4693H61.9017ZM19.0318 32.8128L16.0656 35.779V32.8128H19.0318ZM16.0656 39.1425L22.3953 32.8128H26.1791L16.0656 42.9265V39.1425ZM68.1096 32.8128L74.4393 39.1425V42.9265L64.3258 32.8128H68.1096ZM74.4393 35.779L71.4731 32.8128H74.4393V35.779ZM44.5587 80.7786V63.4693H45.9462V80.7786H44.5587ZM80.9801 80.7786H76.8177V32.8128H80.9801V80.7786ZM81.0893 30.4343L45.9301 6.04489C45.5224 5.76185 44.9821 5.76185 44.5744 6.04489L9.41541 30.4343H5.24258L45.2524 2.68015L85.2623 30.4343H81.0893Z" fill="white"/>
</svg>
