<svg width="51" height="51" viewBox="0 0 51 51" fill="none" xmlns="http://www.w3.org/2000/svg">
<path d="M49.7492 18.3559H48.9159C47.0749 18.3559 45.5825 19.8425 45.5825 21.6764C45.5825 23.0518 44.4633 24.1667 43.0826 24.1667V24.2588C41.9882 23.1382 40.4854 22.5061 38.9159 22.5065H34.4401C34.4702 21.9734 34.4423 21.4389 34.3568 20.9118L33.0734 13.2391C33.06 13.1574 33.0345 13.0783 32.9976 13.0042L32.6243 12.2571C32.2014 11.4123 31.3335 10.8802 30.3859 10.8849H27.2493C27.0847 10.8852 26.9239 10.9337 26.7868 11.0244L19.3501 15.9627L18.7726 16.2117L17.7793 15.2222C16.0641 13.5032 13.7299 12.5392 11.2968 12.5451H11.2327L10.5577 9.85391C10.4462 9.40907 9.99393 9.13856 9.54737 9.24948C9.52612 9.25477 9.50508 9.26089 9.48435 9.26785L9.35685 9.31101C7.73331 9.85121 6.58863 11.3026 6.44602 13.0017L1.34438 18.0836C0.328653 19.0953 0.328549 20.7357 1.34417 21.7475C1.83198 22.2335 2.49364 22.5065 3.18354 22.5065H6.41602C6.96477 22.5028 7.50394 22.3625 7.98435 22.0981L12.2493 27.7636V30.8076C12.2534 33.1202 12.7954 35.4004 13.8327 37.4693L13.9202 37.6444V49.9002C13.9202 50.3586 14.2933 50.7303 14.7535 50.7303H18.0868C18.547 50.7303 18.9201 50.3586 18.9201 49.9002V42.5197L20.3718 36.0116C21.8655 36.4097 23.4095 36.5887 24.9551 36.5429L25.2793 38.321C25.5712 39.9414 27.1266 41.0192 28.7533 40.7285C30.2836 40.455 31.3487 39.0595 31.2043 37.5174L30.9968 35.2412L31.7301 34.9756C33.1181 34.4791 34.631 34.4479 36.0384 34.8868C36.3989 35.6725 36.8551 36.4111 37.3967 37.0857L40.5634 41.0271L39.7492 49.8247C39.7074 50.2812 40.045 50.6852 40.5033 50.7269C40.5296 50.7293 40.5561 50.7304 40.5826 50.7303H43.9159C44.3305 50.7304 44.682 50.4269 44.7409 50.0181L46.3159 39.0382C46.3922 38.5074 46.3639 37.9668 46.2325 37.4468L45.5292 34.6402C45.0821 32.8413 44.829 30.9999 44.7742 29.1474C47.9847 29.1305 50.5794 26.5348 50.5825 23.3366V19.186C50.5825 18.7276 50.2094 18.3559 49.7492 18.3559ZM16.601 16.3935L17.1235 16.914L15.8568 17.4552L12.7327 14.3432C14.1993 14.6249 15.547 15.3392 16.601 16.3935ZM9.18685 11.2385L9.51518 12.5451H8.23519C8.4055 12.0202 8.73872 11.5627 9.18685 11.2385ZM23.9351 30.6275C23.9111 30.7367 23.9093 30.8496 23.9301 30.9595L24.6468 34.8893C23.0728 34.9073 21.5068 34.6646 20.0126 34.1712C19.789 34.0959 19.5436 34.1194 19.3385 34.236C19.1331 34.3517 18.9865 34.5486 18.9351 34.778L17.2685 42.249C17.2559 42.3083 17.2494 42.3687 17.2493 42.4292V49.0701H15.5827V37.4485C15.5828 37.3197 15.5529 37.1927 15.4952 37.0774L15.3193 36.7271C14.3988 34.8884 13.9185 32.8622 13.916 30.8076V27.4872C13.916 27.3075 13.8576 27.1328 13.7493 26.9891L9.21768 20.9708C9.56351 20.4392 9.7481 19.8195 9.74935 19.186H8.08269C8.08269 20.103 7.33654 20.8463 6.41602 20.8463H3.18354C2.6676 20.8466 2.24917 20.4302 2.24885 19.9162C2.24875 19.6691 2.34729 19.4321 2.52271 19.2574L7.59435 14.2054H10.2377L14.3002 18.2522C13.2178 19.1654 13.0835 20.7797 14.0003 21.858C14.2143 22.1097 14.4752 22.3177 14.7685 22.4708C15.4187 22.8096 16.1828 22.857 16.8702 22.6011L18.176 22.113L19.9935 23.9235C20.1497 24.0791 20.3616 24.1667 20.5826 24.1667H25.3768L23.9351 30.6275ZM19.8901 21.473L21.2068 20.9816L22.7376 22.5065H20.9276L19.8901 21.473ZM25.0943 22.5065L22.761 20.1822L24.936 18.8822L25.4551 22.5065H25.0943ZM28.9168 30.8873L29.5359 37.6726C29.5711 38.0405 29.4479 38.4059 29.1968 38.6779C28.947 38.954 28.5907 39.1108 28.2176 39.1087C27.5774 39.1083 27.0293 38.6514 26.9159 38.0238L25.5993 30.8242L27.2301 23.5192C27.2513 23.4213 27.2549 23.3204 27.2409 23.2212L26.4076 17.4104C26.3422 16.9567 25.9199 16.6415 25.4643 16.7067C25.3543 16.7225 25.2487 16.7599 25.1535 16.8169L21.0518 19.269L16.2843 21.0496C16.0424 21.1426 15.7719 21.1259 15.5435 21.004C15.099 20.7723 14.9272 20.2254 15.1599 19.7828C15.257 19.598 15.4152 19.4523 15.6077 19.3703L20.0776 17.4611C20.1246 17.4414 20.1696 17.4173 20.2118 17.3888L27.4993 12.5451H30.3834C30.6994 12.5439 30.9884 12.722 31.1284 13.0042L31.4451 13.6351L32.7084 21.1891C32.9232 22.4855 32.6927 23.8163 32.0543 24.9661L29.0184 30.4092C28.9369 30.5546 28.9014 30.7214 28.9168 30.8873ZM44.6659 38.8049H44.665L43.1934 49.0701H41.4992L42.2492 40.8445C42.2689 40.6307 42.2046 40.4177 42.0701 40.2501L38.6959 36.0481C36.8131 33.714 36.2529 30.5857 37.2092 27.747L35.6259 27.2223C35.0014 29.097 34.9237 31.1097 35.4017 33.0265C33.9753 32.7891 32.5114 32.9223 31.1518 33.4133L30.8309 33.5287L30.5984 30.9844L33.5101 25.7655C33.7899 25.2595 34.01 24.7231 34.1659 24.1667H38.9159C41.2217 24.1713 43.0871 26.0369 43.0826 28.3339C43.0826 28.3342 43.0826 28.3344 43.0826 28.3347C43.0844 30.5957 43.3643 32.8479 43.9159 35.0412L44.62 37.8478C44.6979 38.1607 44.7135 38.4859 44.6659 38.8049ZM48.9159 23.3366C48.9132 25.6277 47.0492 27.4845 44.7492 27.4872H44.6825C44.5925 26.8588 44.3989 26.2496 44.1092 25.6841C45.9509 25.2177 47.2424 23.5692 47.2492 21.6764C47.2492 20.7594 47.9953 20.0161 48.9159 20.0161V23.3366Z" fill="white"/>
<path d="M28.4993 0.923584H24.7493C24.2891 0.923584 23.916 1.29527 23.916 1.7537V5.4892C23.916 8.01077 25.9679 10.0548 28.4993 10.0548C31.0306 10.0548 33.0826 8.01077 33.0826 5.4892C33.0794 2.96898 31.0293 0.926801 28.4993 0.923584ZM26.7023 7.78343C25.9926 7.23265 25.5791 6.38541 25.5826 5.4892V5.08411C27.5327 5.12758 29.3921 5.91298 30.7793 7.27893C29.7933 8.53966 27.968 8.76555 26.7023 7.78343ZM31.4043 5.60459C29.7732 4.23241 27.7172 3.46217 25.5826 3.42388V2.58381H28.4993C30.1101 2.58381 31.4159 3.8846 31.4159 5.4892C31.4159 5.52905 31.4059 5.56557 31.4043 5.60459Z" fill="white"/>
</svg>
