<svg width="23" height="24" viewBox="0 0 23 24" fill="none" xmlns="http://www.w3.org/2000/svg">
<path d="M16.1724 2.22866C17.4329 2.23242 18.6406 2.73481 19.5319 3.6261C20.4232 4.51739 20.9256 5.72516 20.9294 6.98563V16.4986C20.9256 17.759 20.4232 18.9668 19.5319 19.8581C18.6406 20.7494 17.4329 21.2518 16.1724 21.2555H6.65946C5.39899 21.2518 4.19122 20.7494 3.29993 19.8581C2.40864 18.9668 1.90625 17.759 1.90249 16.4986V6.98563C1.90625 5.72516 2.40864 4.51739 3.29993 3.6261C4.19122 2.73481 5.39899 2.23242 6.65946 2.22866H16.1724ZM16.1724 0.326172H6.65946C2.99668 0.326172 0 3.32285 0 6.98563V16.4986C0 20.1613 2.99668 23.158 6.65946 23.158H16.1724C19.8352 23.158 22.8319 20.1613 22.8319 16.4986V6.98563C22.8319 3.32285 19.8352 0.326172 16.1724 0.326172Z" fill="white"/>
<path d="M17.5996 6.98545C17.3174 6.98545 17.0415 6.90176 16.8068 6.74496C16.5721 6.58816 16.3892 6.3653 16.2812 6.10455C16.1732 5.8438 16.145 5.55688 16.2 5.28007C16.2551 5.00326 16.391 4.74899 16.5906 4.54943C16.7901 4.34986 17.0444 4.21395 17.3212 4.15889C17.598 4.10383 17.8849 4.13209 18.1457 4.24009C18.4064 4.3481 18.6293 4.531 18.7861 4.76567C18.9429 5.00034 19.0266 5.27623 19.0266 5.55846C19.027 5.74597 18.9904 5.93171 18.9188 6.10502C18.8472 6.27834 18.7421 6.43581 18.6095 6.5684C18.4769 6.70098 18.3195 6.80608 18.1462 6.87765C17.9728 6.94922 17.7871 6.98586 17.5996 6.98545Z" fill="white"/>
<path d="M11.416 7.93663C12.1686 7.93663 12.9044 8.15982 13.5302 8.57797C14.156 8.99612 14.6438 9.59046 14.9318 10.2858C15.2198 10.9812 15.2952 11.7463 15.1483 12.4845C15.0015 13.2227 14.6391 13.9008 14.1069 14.433C13.5746 14.9652 12.8966 15.3276 12.1584 15.4745C11.4202 15.6213 10.655 15.5459 9.95968 15.2579C9.26432 14.9699 8.66999 14.4821 8.25183 13.8563C7.83368 13.2305 7.6105 12.4948 7.6105 11.7421C7.61157 10.7332 8.01285 9.76586 8.72629 9.05243C9.43972 8.33899 10.407 7.93771 11.416 7.93663ZM11.416 6.03415C10.287 6.03415 9.18347 6.36892 8.2448 6.99611C7.30613 7.62331 6.57453 8.51478 6.1425 9.55777C5.71048 10.6008 5.59744 11.7484 5.81769 12.8557C6.03793 13.9629 6.58156 14.98 7.37983 15.7783C8.17811 16.5765 9.19517 17.1202 10.3024 17.3404C11.4096 17.5606 12.5573 17.4476 13.6003 17.0156C14.6433 16.5836 15.5348 15.852 16.162 14.9133C16.7892 13.9746 17.1239 12.871 17.1239 11.7421C17.1239 10.2283 16.5226 8.77642 15.4521 7.70597C14.3817 6.63552 12.9298 6.03415 11.416 6.03415Z" fill="white"/>
</svg>
