<svg width="24" height="24" viewBox="0 0 24 24" fill="none" xmlns="http://www.w3.org/2000/svg">
<path d="M16.9966 2.42687C18.2571 2.43063 19.4649 2.93302 20.3561 3.82431C21.2474 4.7156 21.7498 5.92337 21.7536 7.18385V16.6968C21.7498 17.9573 21.2474 19.165 20.3561 20.0563C19.4649 20.9476 18.2571 21.45 16.9966 21.4538H7.48368C6.22321 21.45 5.01544 20.9476 4.12415 20.0563C3.23286 19.165 2.73047 17.9573 2.7267 16.6968V7.18385C2.73047 5.92337 3.23286 4.7156 4.12415 3.82431C5.01544 2.93302 6.22321 2.43063 7.48368 2.42687H16.9966ZM16.9966 0.524384H7.48368C3.8209 0.524384 0.824219 3.52106 0.824219 7.18385V16.6968C0.824219 20.3596 3.8209 23.3562 7.48368 23.3562H16.9966C20.6594 23.3562 23.6561 20.3596 23.6561 16.6968V7.18385C23.6561 3.52106 20.6594 0.524384 16.9966 0.524384Z" fill="#1E82BD"/>
<path d="M18.4238 7.18368C18.1415 7.18368 17.8656 7.09999 17.631 6.94319C17.3963 6.78639 17.2134 6.56352 17.1054 6.30277C16.9974 6.04203 16.9691 5.75511 17.0242 5.4783C17.0792 5.20149 17.2152 4.94722 17.4147 4.74765C17.6143 4.54808 17.8686 4.41218 18.1454 4.35712C18.4222 4.30206 18.7091 4.33031 18.9698 4.43832C19.2306 4.54633 19.4535 4.72923 19.6103 4.96389C19.7671 5.19856 19.8507 5.47446 19.8507 5.75669C19.8512 5.9442 19.8145 6.12994 19.7429 6.30325C19.6714 6.47656 19.5663 6.63403 19.4337 6.76662C19.3011 6.89921 19.1436 7.00431 18.9703 7.07588C18.797 7.14745 18.6113 7.18408 18.4238 7.18368Z" fill="#1E82BD"/>
<path d="M12.2401 8.13483C12.9928 8.13483 13.7285 8.35802 14.3543 8.77617C14.9802 9.19432 15.4679 9.78866 15.7559 10.484C16.044 11.1794 16.1193 11.9445 15.9725 12.6827C15.8257 13.4209 15.4632 14.099 14.931 14.6312C14.3988 15.1634 13.7207 15.5258 12.9825 15.6727C12.2444 15.8195 11.4792 15.7441 10.7838 15.4561C10.0885 15.1681 9.49414 14.6803 9.07599 14.0545C8.65784 13.4287 8.43465 12.693 8.43465 11.9403C8.43573 10.9314 8.83701 9.96405 9.55044 9.25062C10.2639 8.53719 11.2312 8.13591 12.2401 8.13483ZM12.2401 6.23235C11.1112 6.23235 10.0076 6.56711 9.06896 7.19431C8.13029 7.82151 7.39868 8.71297 6.96666 9.75597C6.53464 10.799 6.4216 11.9466 6.64185 13.0539C6.86209 14.1611 7.40572 15.1782 8.20399 15.9765C9.00227 16.7747 10.0193 17.3184 11.1266 17.5386C12.2338 17.7588 13.3815 17.6458 14.4245 17.2138C15.4675 16.7818 16.3589 16.0502 16.9861 15.1115C17.6133 14.1728 17.9481 13.0692 17.9481 11.9403C17.9481 10.4265 17.3467 8.97462 16.2763 7.90417C15.2058 6.83372 13.754 6.23235 12.2401 6.23235Z" fill="#1E82BD"/>
</svg>
