<svg width="91" height="91" viewBox="0 0 91 91" fill="none" xmlns="http://www.w3.org/2000/svg">
<path d="M25.1427 67.7632L23.0215 65.6421L10.7677 77.8959C10.4857 78.1765 10.3266 78.559 10.3266 78.958C10.3266 79.3554 10.4841 79.7365 10.7661 80.0185C12.5197 81.7735 12.5211 84.6282 10.7691 86.3831C9.01549 88.1381 6.158 88.1427 4.40441 86.3877C2.65083 84.6327 2.64942 81.7781 4.40142 80.0231C5.25044 79.1725 6.38142 78.7045 7.58305 78.7029L7.58007 75.7029C5.57757 75.7045 3.69496 76.4844 2.28045 77.9019C-0.641546 80.8285 -0.638558 85.5867 2.28643 88.5087C3.74752 89.9698 5.66599 90.7003 7.58604 90.7003C9.50768 90.6989 11.4307 89.9684 12.8916 88.5043C15.4506 85.9407 15.7672 81.9732 13.8412 79.0645L25.1427 67.7632Z" fill="white"/>
<path d="M33.5219 55.1397L29.0215 59.6401L31.1428 61.7615L35.6433 57.261L33.5219 55.1397Z" fill="white"/>
<path d="M48.5219 40.1411L44.0215 44.6416L46.1428 46.7629L50.6433 42.2625L48.5219 40.1411Z" fill="white"/>
<path d="M59.0166 29.6462L54.5161 34.1466L56.6374 36.2679L61.1379 31.7675L59.0166 29.6462Z" fill="white"/>
<path d="M74.0171 14.6455L69.5166 19.146L71.6379 21.2673L76.1384 16.7669L74.0171 14.6455Z" fill="white"/>
<path d="M87.5185 1.14169L80.0195 8.64062L82.1409 10.762L89.6398 3.26303L87.5185 1.14169Z" fill="white"/>
<path d="M89.6443 16.1405L74.6437 1.14013C74.0571 0.55355 73.1091 0.55355 72.5226 1.14013L66.5225 7.14023C65.9359 7.72681 65.9359 8.67479 66.5225 9.26137L81.5229 24.2618C81.8154 24.5543 82.1994 24.7012 82.5834 24.7012C82.9674 24.7012 83.3513 24.5543 83.6438 24.2618L89.6439 18.2617C90.2307 17.6751 90.2307 16.7269 89.6443 16.1405ZM82.5835 21.0802L69.7041 8.20071L73.5832 4.32158L86.4627 17.201L82.5835 21.0802Z" fill="white"/>
<path d="M77.0289 24.5168L66.2736 13.7615C64.5726 12.0604 61.607 12.0634 59.9104 13.7615L53.6506 20.0196C51.8971 21.7732 51.8971 24.6293 53.6506 26.3829L64.4075 37.1382C65.2566 37.9872 66.3861 38.4553 67.5892 38.4553C68.7906 38.4553 69.9218 37.9872 70.7708 37.1398L77.0289 30.8816C78.7839 29.1265 78.7839 26.272 77.0289 24.5168ZM74.9078 28.7589L68.6497 35.0156C68.0826 35.5827 67.0942 35.5811 66.5285 35.0156L55.7716 24.2603C55.1866 23.6753 55.1866 22.7243 55.7716 22.1392L62.0327 15.881C62.5952 15.317 63.5822 15.3126 64.1523 15.881L74.9076 26.6363C75.4928 27.2229 75.4928 28.1739 74.9078 28.7589Z" fill="white"/>
<path d="M64.1436 41.6412L49.1432 26.6407C48.5566 26.0542 47.6086 26.0542 47.0221 26.6407L41.022 32.641C40.4354 33.2276 40.4354 34.1756 41.022 34.7622L56.0224 49.7626C56.3149 50.0551 56.699 50.202 57.0829 50.202C57.4669 50.202 57.8509 50.0551 58.1434 49.7626L64.1434 43.7623C64.7302 43.1757 64.7302 42.2277 64.1436 41.6412ZM57.0829 46.5808L44.2034 33.7013L48.0825 29.8222L60.962 42.7016L57.0829 46.5808Z" fill="white"/>
<path d="M51.5282 50.0191L40.7729 39.2637C39.0163 37.5072 36.1618 37.5087 34.4082 39.2637L28.1501 45.5219C27.2995 46.3709 26.8315 47.5005 26.8315 48.7035C26.8315 49.905 27.2995 51.0361 28.1501 51.8851L38.9054 62.6405C39.7829 63.518 40.935 63.956 42.0884 63.956C43.2405 63.956 44.3926 63.518 45.2701 62.6405L51.5282 56.3823C52.3772 55.5333 52.8467 54.4023 52.8467 53.2007C52.8467 51.9976 52.3772 50.8667 51.5282 50.0191ZM49.4086 54.2598L43.1505 60.5179C42.5639 61.1045 41.6099 61.1029 41.0279 60.5179L30.2726 49.7626C29.9891 49.4791 29.8332 49.1025 29.8332 48.7021C29.8332 48.3001 29.9891 47.9252 30.2712 47.643C30.2712 47.6414 30.2712 47.6414 30.2712 47.6414L36.5294 41.3833C36.8234 41.0922 37.2073 40.9453 37.5914 40.9453C37.9755 40.9453 38.3594 41.0922 38.6535 41.3833L49.4088 52.1402C49.6923 52.4221 49.8483 52.7973 49.8483 53.1993C49.8483 53.5997 49.6908 53.9762 49.4086 54.2598Z" fill="white"/>
<path d="M38.6433 67.1421L23.6429 52.1417C23.0563 51.5551 22.1083 51.5551 21.5217 52.1417L15.5215 58.1418C14.9349 58.7284 14.9349 59.6764 15.5215 60.263L30.5219 75.2634C30.8144 75.5559 31.1985 75.7028 31.5824 75.7028C31.9665 75.7028 32.3504 75.5559 32.6429 75.2634L38.6431 69.2633C39.2297 68.6767 39.2297 67.7285 38.6433 67.1421ZM31.5826 72.0817L18.7031 59.2023L22.5822 55.3232L35.4617 68.2026L31.5826 72.0817Z" fill="white"/>
<path d="M63.0831 20.2009H60.083V23.201H63.0831V20.2009Z" fill="white"/>
<path d="M67.5831 24.7014H64.583V27.7015H67.5831V24.7014Z" fill="white"/>
<path d="M39.0831 45.7019H36.083V48.702H39.0831V45.7019Z" fill="white"/>
</svg>
