<svg width="70" height="91" viewBox="0 0 70 91" fill="none" xmlns="http://www.w3.org/2000/svg">
<path d="M66.6615 56.7607C64.5164 54.6154 61.6643 53.4343 58.6306 53.4343C55.5968 53.4343 52.7449 54.6156 50.5998 56.7607L25.935 81.4257C23.6877 83.6726 20.7002 84.9102 17.5225 84.9102C14.3447 84.9102 11.3572 83.6726 9.10995 81.4257C6.86291 79.1787 5.62547 76.191 5.62547 73.0131C5.62547 69.8354 6.86309 66.8478 9.10995 64.6007L9.52553 64.1851C11.2619 65.2394 13.2264 65.7742 15.1978 65.7742C17.6535 65.7742 20.1187 64.9474 22.1613 63.2728L56.502 35.1206C59.5416 34.3397 62.3288 32.7583 64.6059 30.481C67.9589 27.128 69.8055 22.67 69.8055 17.9282C69.8055 13.1864 67.9589 8.72838 64.6059 5.37557C61.2531 2.0226 56.7951 0.176025 52.0533 0.176025C47.3115 0.176025 42.8537 2.0226 39.5007 5.37557C37.2234 7.65285 35.6419 10.4401 34.8611 13.4796L6.70891 47.8202C3.68995 51.5028 3.42801 56.5568 5.79582 60.4565L5.38076 60.8715C2.13749 64.1146 0.351562 68.4268 0.351562 73.0131C0.351562 77.5997 2.13766 81.9116 5.38076 85.1547C8.72829 88.5023 13.1253 90.176 17.5224 90.176C21.9194 90.176 26.3164 88.5023 29.664 85.1547L54.329 60.4899C55.478 59.3409 57.0057 58.7082 58.6306 58.7082C60.2555 58.7082 61.7833 59.3409 62.9323 60.4901C64.0813 61.6391 64.7142 63.1667 64.7142 64.7916C64.7142 66.4165 64.0813 67.9442 62.9323 69.0932L52.6552 79.3703C51.6254 80.4001 51.6254 82.0697 52.6552 83.0995C53.6849 84.1293 55.3546 84.1293 56.3844 83.0995L66.6615 72.8226C68.8066 70.6775 69.9881 67.8254 69.9881 64.7916C69.9881 61.7579 68.8066 58.9058 66.6615 56.7607ZM60.3961 27.2071C59.1291 28.3491 57.6653 29.2029 56.0849 29.7409L40.2408 13.897C40.7786 12.3166 41.6326 10.8527 42.7746 9.58574L60.3961 27.2071ZM11.1654 58.8161C9.08165 56.7324 8.91921 53.4427 10.7874 51.1637L37.4841 18.5985L51.3832 32.4975L18.8178 59.1941C16.539 61.0623 13.2493 60.8998 11.1654 58.8161ZM60.8767 9.10476C63.2335 11.4617 64.5315 14.5951 64.5315 17.9282C64.5315 19.6557 64.18 21.3286 63.5158 22.8686L47.1127 6.46552C48.6529 5.80153 50.3257 5.44994 52.0533 5.44994C55.3864 5.44994 58.52 6.74785 60.8767 9.10476Z" fill="white"/>
</svg>
