<svg width="91" height="91" viewBox="0 0 91 91" fill="none" xmlns="http://www.w3.org/2000/svg">
<path d="M18.3834 75.7329C19.1115 75.7329 19.7018 75.1426 19.7018 74.4146C19.7018 73.6865 19.1115 73.0962 18.3834 73.0962H9.98193C9.25385 73.0962 8.66357 73.6865 8.66357 74.4146C8.66357 75.1426 9.25385 75.7329 9.98193 75.7329H18.3834Z" fill="white"/>
<path d="M26.8209 75.7329C27.549 75.7329 28.1393 75.1426 28.1393 74.4146C28.1393 73.6865 27.549 73.0962 26.8209 73.0962H23.6929C22.9648 73.0962 22.3745 73.6865 22.3745 74.4146C22.3745 75.1426 22.9648 75.7329 23.6929 75.7329H26.8209Z" fill="white"/>
<path d="M40.7437 80.1433C40.0156 80.1433 39.4253 80.7336 39.4253 81.4617C39.4253 82.1898 40.0156 82.78 40.7437 82.78H44.399C45.1271 82.78 45.7174 82.1898 45.7174 81.4617C45.7174 80.7336 45.1271 80.1433 44.399 80.1433H40.7437Z" fill="white"/>
<path d="M20.9683 81.4617C20.9683 82.1898 21.5585 82.78 22.2866 82.78H35.4342C36.1623 82.78 36.7525 82.1898 36.7525 81.4617C36.7525 80.7336 36.1623 80.1433 35.4342 80.1433H22.2866C21.5585 80.1433 20.9683 80.7336 20.9683 81.4617Z" fill="white"/>
<path d="M68.0939 73.0962H56.1768C55.4487 73.0962 54.8584 73.6865 54.8584 74.4146C54.8584 75.1426 55.4487 75.7329 56.1768 75.7329H68.0939C68.8219 75.7329 69.4122 75.1426 69.4122 74.4146C69.4122 73.6865 68.8219 73.0962 68.0939 73.0962Z" fill="white"/>
<path d="M50.8673 75.7329C51.5954 75.7329 52.1856 75.1426 52.1856 74.4146C52.1856 73.6865 51.5954 73.0962 50.8673 73.0962H45.9814C45.2534 73.0962 44.6631 73.6865 44.6631 74.4146C44.6631 75.1426 45.2534 75.7329 45.9814 75.7329H50.8673Z" fill="white"/>
<path d="M58.9829 81.4617C58.9829 82.1898 59.5732 82.78 60.3013 82.78H78.6096C79.3377 82.78 79.928 82.1898 79.928 81.4617C79.928 80.7336 79.3377 80.1433 78.6096 80.1433H60.3013C59.5732 80.1433 58.9829 80.7336 58.9829 81.4617Z" fill="white"/>
<path d="M88.7692 88.251H72.7007C71.9726 88.251 71.3823 88.8412 71.3823 89.5693C71.3823 90.2974 71.9726 90.8877 72.7007 90.8877H88.7692C89.4973 90.8877 90.0876 90.2974 90.0876 89.5693C90.0876 88.8412 89.4973 88.251 88.7692 88.251Z" fill="white"/>
<path d="M88.769 61.6445C86.4152 61.6445 85.1933 62.8272 84.2116 63.7773C83.3773 64.5846 82.7746 65.1681 81.4877 65.1681C80.2008 65.1681 79.598 64.5846 78.7637 63.7773C77.782 62.827 76.56 61.6445 74.2063 61.6445C71.8526 61.6445 70.6309 62.8272 69.6491 63.7773C68.8151 64.5846 68.2125 65.1681 66.9259 65.1681C65.6394 65.1681 65.0366 64.5848 64.2026 63.7773C63.2208 62.827 61.999 61.6445 59.6454 61.6445C57.2919 61.6445 56.07 62.8272 55.0883 63.7775C54.2542 64.5848 53.6516 65.1681 52.3651 65.1681C51.0786 65.1681 50.476 64.5848 49.6419 63.7773C48.6603 62.827 47.4385 61.6445 45.0849 61.6445C42.7316 61.6445 41.5099 62.8272 40.5283 63.7775C39.6944 64.5848 39.0919 65.1681 37.8057 65.1681C36.5193 65.1681 35.9165 64.5848 35.0826 63.7775C34.1011 62.8272 32.8792 61.6445 30.5257 61.6445C28.1721 61.6445 26.9503 62.8272 25.9686 63.7775C25.1345 64.5848 24.5319 65.1681 23.2454 65.1681C21.9588 65.1681 21.3562 64.5848 20.5221 63.7773C19.5406 62.827 18.3187 61.6445 15.9652 61.6445C13.6117 61.6445 12.39 62.8272 11.4084 63.7775C10.5743 64.5848 9.97176 65.1681 8.68539 65.1681C7.39902 65.1681 6.79645 64.5848 5.96254 63.7775C4.98098 62.8272 3.7593 61.6445 1.40576 61.6445C0.677676 61.6445 0.0874023 62.2348 0.0874023 62.9629C0.0874023 63.691 0.677676 64.2812 1.40576 64.2812C2.69213 64.2812 3.29471 64.8645 4.12861 65.6719C5.11018 66.6221 6.33186 67.8048 8.68539 67.8048C11.0389 67.8048 12.2606 66.6221 13.2422 65.6719C14.0763 64.8645 14.6788 64.2812 15.9652 64.2812C17.2516 64.2812 17.8543 64.8645 18.6884 65.672C19.67 66.6223 20.8918 67.8048 23.2454 67.8048C25.5989 67.8048 26.8206 66.6221 27.8023 65.672C28.6364 64.8647 29.239 64.2812 30.5255 64.2812C31.812 64.2812 32.4146 64.8645 33.2487 65.672C34.2303 66.6223 35.4521 67.8048 37.8057 67.8048C40.159 67.8048 41.3807 66.6221 42.3623 65.6719C43.1962 64.8645 43.7986 64.2812 45.0849 64.2812C46.3715 64.2812 46.9741 64.8645 47.8081 65.672C48.7897 66.6223 50.0116 67.8048 52.3651 67.8048C54.7186 67.8048 55.9403 66.6221 56.9221 65.672C57.7561 64.8647 58.3587 64.2812 59.6453 64.2812C60.9318 64.2812 61.5345 64.8645 62.3686 65.672C63.3504 66.6223 64.5722 67.8048 66.9259 67.8048C69.2796 67.8048 70.5013 66.6221 71.4831 65.672C72.3171 64.8647 72.9197 64.2812 74.2063 64.2812C75.4932 64.2812 76.0959 64.8647 76.9302 65.672C77.9119 66.6223 79.1339 67.8048 81.4877 67.8048C83.8414 67.8048 85.0634 66.6221 86.0451 65.672C86.8794 64.8647 87.4821 64.2812 88.769 64.2812C89.4971 64.2812 90.0874 63.691 90.0874 62.9629C90.0874 62.2348 89.4971 61.6445 88.769 61.6445Z" fill="white"/>
<path d="M66.5735 88.251H1.40576C0.677676 88.251 0.0874023 88.8412 0.0874023 89.5693C0.0874023 90.2974 0.677676 90.8877 1.40576 90.8877H66.5735C67.3016 90.8877 67.8919 90.2974 67.8919 89.5693C67.8919 88.8412 67.3016 88.251 66.5735 88.251Z" fill="white"/>
<path d="M1.40576 59.0317H42.9017C43.6298 59.0317 44.2201 58.4415 44.2201 57.7134C44.2201 56.9853 43.6298 56.395 42.9017 56.395H30.3982L44.5688 35.6936L49.3406 40.4673C49.5878 40.7146 49.9231 40.8537 50.2729 40.8537C50.6228 40.8537 50.9581 40.7146 51.2053 40.4673L56.1454 35.5252L61.0856 40.4673C61.3328 40.7146 61.6681 40.8537 62.018 40.8537C62.3678 40.8537 62.7031 40.7146 62.9503 40.4673L67.6999 35.7158L81.8554 56.395H48.9546C48.2265 56.395 47.6362 56.9853 47.6362 57.7134C47.6362 58.4415 48.2265 59.0317 48.9546 59.0317H88.769C89.4971 59.0317 90.0874 58.4415 90.0874 57.7134C90.0874 56.9853 89.4971 56.395 88.769 56.395H85.0509L57.2149 15.7305C56.9692 15.3715 56.5621 15.1567 56.127 15.1567C55.6919 15.1567 55.2848 15.3714 55.0391 15.7305L39.825 37.9561L33.389 28.5539C33.1432 28.195 32.7361 27.9802 32.3011 27.9802C31.866 27.9802 31.4589 28.1948 31.2132 28.5539L12.1551 56.395H1.40576C0.677676 56.395 0.0874023 56.9853 0.0874023 57.7134C0.0874023 58.4415 0.677676 59.0317 1.40576 59.0317ZM56.127 18.8091L66.1848 33.5023L62.0183 37.6706L57.0781 32.7285C56.831 32.4812 56.4956 32.3422 56.1458 32.3422C55.796 32.3422 55.4606 32.4812 55.2135 32.7285L50.2729 37.6704L46.0841 33.48L56.127 18.8091ZM32.3011 31.6325L38.2274 40.2899L27.2029 56.395H15.3505L32.3011 31.6325Z" fill="white"/>
<path d="M19.2464 20.2643C22.2704 20.2643 24.7306 17.8033 24.7306 14.7785C24.7306 11.7537 22.2704 9.29272 19.2464 9.29272C16.2224 9.29272 13.7622 11.7537 13.7622 14.7785C13.7622 17.8033 16.2224 20.2643 19.2464 20.2643ZM19.2464 11.9294C20.8165 11.9294 22.0939 13.2075 22.0939 14.7785C22.0939 16.3496 20.8165 17.6276 19.2464 17.6276C17.6763 17.6276 16.3989 16.3495 16.3989 14.7785C16.3989 13.2075 17.6763 11.9294 19.2464 11.9294Z" fill="white"/>
<path d="M17.9282 24.2216V27.3508C17.9282 28.0789 18.5185 28.6692 19.2466 28.6692C19.9747 28.6692 20.5649 28.0789 20.5649 27.3508V24.2216C20.5649 23.4935 19.9747 22.9032 19.2466 22.9032C18.5185 22.9032 17.9282 23.4935 17.9282 24.2216Z" fill="white"/>
<path d="M19.2466 6.65385C19.9747 6.65385 20.5649 6.06357 20.5649 5.33549V2.20605C20.5649 1.47797 19.9747 0.887695 19.2466 0.887695C18.5185 0.887695 17.9282 1.47797 17.9282 2.20605V5.33549C17.9282 6.06357 18.5185 6.65385 19.2466 6.65385Z" fill="white"/>
<path d="M6.6792 16.0968H9.80723C10.5353 16.0968 11.1256 15.5065 11.1256 14.7784C11.1256 14.0504 10.5353 13.4601 9.80723 13.4601H6.6792C5.95111 13.4601 5.36084 14.0504 5.36084 14.7784C5.36084 15.5065 5.95111 16.0968 6.6792 16.0968Z" fill="white"/>
<path d="M27.3672 14.7784C27.3672 15.5065 27.9575 16.0968 28.6855 16.0968H31.8136C32.5417 16.0968 33.1319 15.5065 33.1319 14.7784C33.1319 14.0504 32.5417 13.4601 31.8136 13.4601H28.6855C27.9575 13.4601 27.3672 14.0504 27.3672 14.7784Z" fill="white"/>
<path d="M11.6393 20.5237L9.42748 22.7364C8.91279 23.2512 8.91279 24.086 9.42783 24.6007C9.68517 24.8581 10.0225 24.9867 10.3598 24.9867C10.6971 24.9867 11.0348 24.8579 11.2922 24.6004L13.504 22.3876C14.0187 21.8728 14.0187 21.038 13.5037 20.5233C12.989 20.0086 12.1542 20.0086 11.6393 20.5237Z" fill="white"/>
<path d="M25.9209 9.4196C26.2584 9.4196 26.5959 9.29075 26.8533 9.03323L29.0651 6.8205C29.58 6.30546 29.5798 5.47085 29.0648 4.95616C28.5497 4.4413 27.7149 4.44165 27.2004 4.95651L24.9886 7.16925C24.4737 7.68429 24.4739 8.5189 24.9889 9.03358C25.2463 9.29093 25.5836 9.4196 25.9209 9.4196Z" fill="white"/>
<path d="M11.6394 9.03323C11.8967 9.29075 12.2342 9.4196 12.5717 9.4196C12.9091 9.4196 13.2464 9.29093 13.5037 9.03358C14.0188 8.51889 14.0189 7.68411 13.5041 7.16925L11.2922 4.95634C10.7775 4.4413 9.94276 4.44112 9.42789 4.95598C8.91285 5.47067 8.91268 6.30546 9.42754 6.82032L11.6394 9.03323Z" fill="white"/>
<path d="M24.9889 20.5234C24.4739 21.0381 24.4737 21.8728 24.9886 22.3877L27.2004 24.6004C27.4578 24.858 27.7953 24.9868 28.1328 24.9868C28.4701 24.9868 28.8074 24.8581 29.0648 24.6008C29.5798 24.0861 29.58 23.2513 29.0651 22.7365L26.8533 20.5237C26.3386 20.0087 25.5038 20.0085 24.9889 20.5234Z" fill="white"/>
</svg>
