<svg width="92" height="76" viewBox="0 0 92 76" fill="none" xmlns="http://www.w3.org/2000/svg">
<path d="M76.8169 7.56531H72.3751C71.712 7.56531 71.2922 7.97606 71.2922 8.42993H71.292V22.4785C71.292 23.062 71.9992 23.3647 72.7284 23.3647C73.4356 23.3647 74.1649 23.0622 74.1649 22.4785V17.4643H76.6402C79.5571 17.4643 81.8334 16.1025 81.8334 12.558V12.4285C81.8334 8.88379 79.6234 7.56531 76.8169 7.56531ZM78.9603 12.7742C78.9603 14.46 78.0765 15.2598 76.64 15.2598H74.1649V10.0293H76.64C78.0765 10.0293 78.9603 10.8291 78.9603 12.5149V12.7742Z" fill="white"/>
<path d="M52.8402 13.0574C48.645 8.95441 43.0673 6.69482 37.1344 6.69482C31.2015 6.69482 25.6238 8.95441 21.4286 13.0574C20.9222 13.5525 20.9222 14.3552 21.4286 14.8505C21.9348 15.3455 22.7556 15.3455 23.2617 14.8505C26.9673 11.2265 31.8939 9.23062 37.1342 9.23062C42.3745 9.23062 47.3013 11.2265 51.0067 14.8505C51.26 15.098 51.5918 15.2218 51.9234 15.2218C52.2551 15.2218 52.5869 15.098 52.8402 14.8505C53.3464 14.3554 53.3464 13.5525 52.8402 13.0574Z" fill="white"/>
<path d="M47.4915 18.288C41.7802 12.7022 32.4874 12.7022 26.7763 18.288C26.2699 18.783 26.2699 19.5859 26.7763 20.081C27.2824 20.5761 28.1034 20.5761 28.6096 20.081C33.3099 15.4841 40.9578 15.4841 45.6581 20.081C45.9112 20.3285 46.2429 20.4523 46.5747 20.4523C46.9064 20.4523 47.2382 20.3285 47.4915 20.081C47.9977 19.5859 47.9977 18.783 47.4915 18.288Z" fill="white"/>
<path d="M42.2282 23.4357C39.4193 20.6886 34.8488 20.6886 32.0399 23.4357C31.5336 23.9308 31.5336 24.7335 32.0399 25.2288C32.5461 25.724 33.3671 25.7238 33.8733 25.2288C35.6714 23.4703 38.5969 23.4703 40.395 25.2288C40.6481 25.4765 40.9799 25.6001 41.3116 25.6001C41.6432 25.6001 41.9751 25.4763 42.2282 25.2288C42.7345 24.7335 42.7345 23.931 42.2282 23.4357Z" fill="white"/>
<path d="M64.5449 48.1291C63.984 47.8271 63.4305 47.4965 62.9001 47.1461L54.3254 41.4807C51.723 39.7612 48.6873 38.8524 45.5468 38.8524H29.8083C25.6306 38.8524 21.6999 40.4407 18.7399 43.3245C17.2185 44.8071 15.4852 46.0471 13.5883 47.0105C12.4664 47.5803 11.7695 48.7017 11.7695 49.9371C11.7695 51.7563 13.2828 53.2363 15.1429 53.2363H20.5087C21.2246 53.2363 21.8051 52.6686 21.8051 51.9684C21.8051 51.2682 21.2246 50.7005 20.5087 50.7005H15.1429C14.7124 50.7005 14.3621 50.3579 14.3621 49.9369C14.3621 49.6516 14.5233 49.3926 14.783 49.2609C16.9142 48.1786 18.8613 46.7856 20.5697 45.1208C23.0402 42.7136 26.3211 41.388 29.8081 41.388H33.3317V50.7005H29.0248C28.3089 50.7005 27.7284 51.2682 27.7284 51.9684C27.7284 52.6686 28.3089 53.2363 29.0248 53.2363H64.5712C65.6369 53.2363 66.5039 52.3884 66.5039 51.3461C66.5039 50.0114 65.7531 48.7787 64.5449 48.1291ZM35.9248 50.7007V41.3882H45.5469C48.1683 41.3882 50.7021 42.1468 52.8742 43.5819L61.4489 49.2473C62.0444 49.6407 62.6655 50.012 63.2958 50.3509C63.4589 50.4387 63.5956 50.5594 63.6983 50.7007H35.9248Z" fill="white"/>
<path d="M39.1367 55.1637H35.1323C34.4164 55.1637 33.8359 55.7314 33.8359 56.4316C33.8359 57.1318 34.4164 57.6995 35.1323 57.6995H39.1367C39.8526 57.6995 40.4331 57.1318 40.4331 56.4316C40.4331 55.7314 39.8526 55.1637 39.1367 55.1637Z" fill="white"/>
<path d="M90.6335 54.0996L90.224 53.4349C88.6807 50.9302 86.1137 49.1665 83.1813 48.596L79.8344 47.945V31.3537H88.4957C90.2791 31.3537 91.7297 29.9348 91.7297 28.1908V3.49841C91.7297 1.75423 90.2789 0.335449 88.4957 0.335449H63.2484C61.4651 0.335449 60.0144 1.7544 60.0144 3.49841V12.8651C60.0144 13.5653 60.5947 14.133 61.3108 14.133C62.0269 14.133 62.6072 13.5653 62.6072 12.8651V3.49841C62.6072 3.1525 62.8949 2.87107 63.2486 2.87107H88.496C88.8497 2.87107 89.1375 3.1525 89.1375 3.49841V28.1909C89.1375 28.5369 88.8497 28.8183 88.496 28.8183H63.2484C62.8948 28.8183 62.607 28.5369 62.607 28.1909V21.1077C62.607 20.4075 62.0267 19.8398 61.3106 19.8398C60.5945 19.8398 60.0142 20.4075 60.0142 21.1077V28.1909C60.0142 29.9351 61.4651 31.3539 63.2483 31.3539H73.07V46.6297L71.3495 46.2951C68.975 45.8332 66.66 44.4316 65.1251 43.4174L56.5506 37.7522C53.2882 35.5969 49.4832 34.4576 45.5463 34.4576H29.808C24.5711 34.4576 19.6438 36.4484 15.934 40.0632C13.5865 42.3506 10.6315 43.9107 7.38835 44.5751L5.52712 44.9562C2.76017 45.5229 0.751953 47.9412 0.751953 50.7061V62.9853C0.751953 64.45 1.63618 65.781 3.00491 66.3758L8.16842 68.6202C8.4807 70.2172 9.26735 71.7422 10.5289 72.976C12.2055 74.6157 14.4078 75.4357 16.6102 75.4357C18.8127 75.4357 21.0148 74.6157 22.6916 72.976C23.7699 71.9214 24.4993 70.6537 24.8841 69.3105H67.9376C68.3224 70.6537 69.052 71.9214 70.1303 72.976C71.7548 74.5646 73.9142 75.4397 76.2116 75.4397C78.5088 75.4397 80.6687 74.5648 82.2931 72.976C83.3715 71.9214 84.1009 70.6537 84.4857 69.3105H86.945C89.5955 69.3105 91.752 67.2015 91.752 64.6092V58.0329C91.7516 56.6468 91.3648 55.2868 90.6335 54.0996ZM75.6628 31.3537H77.2418V47.4408L75.6628 47.1336V31.3537ZM20.8581 71.1832C19.7234 72.2929 18.2148 72.9041 16.6101 72.9041C15.0053 72.9041 13.4967 72.2929 12.3621 71.1832C10.5419 69.403 10.137 66.7558 11.1455 64.5888C11.1536 64.5715 11.1615 64.5539 11.1696 64.5365C11.2004 64.4722 11.2329 64.4086 11.2661 64.3453C11.2818 64.3154 11.2974 64.2857 11.3138 64.2561C11.3438 64.2012 11.3751 64.1466 11.4071 64.0924C11.4291 64.055 11.4517 64.018 11.4746 63.9811C11.5043 63.9333 11.5343 63.8857 11.5656 63.8386C11.5939 63.796 11.623 63.754 11.6525 63.7121C11.6817 63.6705 11.7107 63.6288 11.7409 63.5879C11.7755 63.5412 11.8116 63.4953 11.8479 63.4494C11.8761 63.4136 11.9037 63.3774 11.9328 63.3422C11.9755 63.2905 12.0201 63.2401 12.0645 63.1897C12.0899 63.161 12.1143 63.1316 12.1402 63.1033C12.2064 63.0315 12.2744 62.9611 12.3445 62.8921C12.3505 62.8862 12.356 62.8799 12.3621 62.874C12.3754 62.861 12.3894 62.8488 12.4029 62.836C12.4623 62.779 12.522 62.7226 12.583 62.6686C12.5988 62.6545 12.6155 62.6415 12.6315 62.6275C12.6923 62.5749 12.7534 62.5226 12.816 62.4727C12.8218 62.468 12.8281 62.4636 12.8339 62.4589C15.0313 60.7198 18.2004 60.7219 20.3951 62.4659C20.3976 62.468 20.4002 62.4697 20.4029 62.4718C20.4699 62.5252 20.5355 62.5811 20.6007 62.6378C20.6124 62.6479 20.6245 62.6574 20.6361 62.6677C20.7114 62.7343 20.7854 62.8029 20.8579 62.8739C20.9361 62.9503 21.0115 63.0291 21.0847 63.1089C21.1169 63.144 21.1472 63.18 21.1784 63.2156C21.2164 63.2591 21.2546 63.3027 21.2912 63.347C21.3323 63.3969 21.3719 63.4477 21.411 63.4984C21.433 63.5268 21.4549 63.5553 21.4762 63.584C21.5237 63.6479 21.5699 63.7126 21.6145 63.7781C21.6222 63.7892 21.6296 63.8005 21.6371 63.8117C23.162 66.0897 22.9025 69.1835 20.8581 71.1832ZM80.4595 71.1832C79.3246 72.2929 77.816 72.9041 76.2113 72.9041C74.6065 72.9041 73.0981 72.2929 71.9634 71.1832C69.9186 69.1835 69.6591 66.0891 71.1842 63.8113C71.1915 63.8004 71.1988 63.7894 71.2063 63.7786C71.2509 63.7129 71.2973 63.6481 71.3449 63.5838C71.3661 63.5553 71.3878 63.5271 71.4096 63.4991C71.4489 63.448 71.4887 63.3971 71.5301 63.3468C71.5666 63.3029 71.6042 63.2598 71.6421 63.2167C71.6736 63.1807 71.7043 63.1442 71.7368 63.1089C71.8101 63.0291 71.8854 62.9505 71.9636 62.874C73.0983 61.7643 74.6067 61.1531 76.2114 61.1531C77.8162 61.1531 79.3248 61.7643 80.4595 62.874C80.5377 62.9505 80.613 63.0293 80.6862 63.1091C80.7186 63.1442 80.749 63.1803 80.7803 63.2161C80.8183 63.2594 80.8563 63.3029 80.8928 63.347C80.934 63.3971 80.9736 63.4478 81.0129 63.4988C81.0348 63.5271 81.0566 63.5554 81.078 63.5841C81.1254 63.6483 81.1718 63.7128 81.2163 63.7783C81.2239 63.7894 81.2314 63.8005 81.2388 63.8117C82.7634 66.0895 82.5039 69.1836 80.4595 71.1832ZM89.1593 64.6092H89.159C89.159 65.8034 88.1656 66.7749 86.9446 66.7749H84.8104C84.7596 64.936 84.0959 63.1815 82.9015 61.7431C82.8935 61.7334 82.8859 61.7233 82.8777 61.7136C82.8038 61.6254 82.7272 61.539 82.6493 61.4532C82.6294 61.4313 82.6106 61.4087 82.5905 61.3868C82.508 61.2979 82.4227 61.2109 82.336 61.125C82.3212 61.1104 82.3077 61.0951 82.2928 61.0807C81.1759 59.9885 79.8061 59.2336 78.3126 58.8685C77.6337 58.7025 76.9293 58.6172 76.2113 58.6172C75.637 58.6172 75.0713 58.6719 74.5203 58.7787C72.8676 59.0992 71.3483 59.8892 70.1299 61.0807C70.1154 61.0949 70.102 61.1099 70.0876 61.1243C70.0005 61.2107 69.9149 61.2979 69.8322 61.3871C69.8127 61.4081 69.7946 61.43 69.7754 61.4513C69.6968 61.5378 69.6193 61.6251 69.5448 61.7141C69.5374 61.723 69.5304 61.7322 69.523 61.7412C68.3277 63.1798 67.6634 64.9353 67.6123 66.7751H25.209C25.158 64.933 24.4922 63.1755 23.2939 61.7356C23.2884 61.7289 23.2831 61.7221 23.2776 61.7153C23.1994 61.6218 23.1181 61.5302 23.0355 61.4394C23.0202 61.4228 23.006 61.4055 22.9905 61.3889C22.8937 61.2844 22.7941 61.1815 22.6912 61.0808C22.2721 60.6709 21.82 60.3122 21.3435 60.0047C19.9134 59.0823 18.2617 58.6212 16.6101 58.6212C14.4078 58.6212 12.2053 59.4411 10.5287 61.0808C10.4329 61.1745 10.3403 61.2706 10.2497 61.368C10.2228 61.3969 10.1971 61.4262 10.1706 61.4553C10.1066 61.526 10.0437 61.5975 9.98237 61.6698C9.95518 61.7019 9.92799 61.7342 9.90133 61.7669C9.83788 61.8443 9.77602 61.9225 9.7156 62.0016C9.69676 62.0263 9.67738 62.0504 9.65908 62.0753C9.49663 62.2928 9.34591 62.517 9.20657 62.747C9.20266 62.7534 9.19892 62.76 9.19501 62.7664C9.12694 62.8796 9.06171 62.9943 8.99933 63.1103C8.99755 63.1136 8.99577 63.1171 8.99382 63.1204C8.54184 63.9615 8.23792 64.8713 8.09857 65.815L4.05815 64.0587C3.62484 63.8702 3.34491 63.4489 3.34491 62.9853V50.7061C3.34491 49.1345 4.48649 47.7601 6.05926 47.4378L7.92049 47.0566C11.6564 46.2912 15.0604 44.494 17.7644 41.8593C20.985 38.7212 25.2623 36.993 29.8086 36.993H45.5469C48.9645 36.993 52.2677 37.9821 55.0997 39.853L63.6743 45.5182C65.3949 46.6552 68.0103 48.2305 70.8443 48.7818L82.676 51.083C84.8945 51.5146 86.8362 52.8487 88.0037 54.7434L88.4132 55.4081C88.9015 56.2003 89.1593 57.108 89.1593 58.0329V64.6092Z" fill="white"/>
<path d="M19.3937 64.3068C18.65 63.5796 17.6618 63.1793 16.6105 63.1793C15.5592 63.1793 14.5709 63.5798 13.8276 64.3068C13.0843 65.0337 12.6748 66.0004 12.6748 67.0286C12.6748 68.0568 13.0843 69.0234 13.8276 69.7504C14.5709 70.4773 15.5592 70.8778 16.6107 70.8778C17.662 70.8778 18.6504 70.4775 19.3937 69.7504C20.9282 68.2495 20.9282 65.8076 19.3937 64.3068ZM17.5602 67.9573C17.3065 68.2054 16.9692 68.342 16.6105 68.342C16.2517 68.342 15.9145 68.2054 15.6609 67.9571C15.4073 67.7091 15.2674 67.3793 15.2674 67.0284C15.2674 66.6774 15.4071 66.3477 15.6609 66.0996C15.9145 65.8516 16.2517 65.7148 16.6105 65.7148C16.9692 65.7148 17.3065 65.8514 17.5602 66.0996C18.0838 66.6119 18.0838 67.4452 17.5602 67.9573Z" fill="white"/>
<path d="M78.9944 64.3069C78.2511 63.5798 77.2627 63.1793 76.2113 63.1793C75.16 63.1793 74.1718 63.5796 73.4281 64.3068C71.8938 65.8076 71.8938 68.2495 73.4281 69.7504C74.1716 70.4775 75.16 70.8778 76.2113 70.8778C77.2627 70.8778 78.2509 70.4775 78.9942 69.7505C79.7377 69.0236 80.147 68.0569 80.147 67.0287C80.147 66.0005 79.7377 65.0339 78.9944 64.3069ZM77.1609 67.9575C76.9073 68.2055 76.5701 68.3422 76.2113 68.3422C75.8526 68.3422 75.5153 68.2055 75.2616 67.9575C74.738 67.4454 74.738 66.6121 75.2616 66.1C75.5153 65.8519 75.8526 65.7151 76.2113 65.7151C76.5701 65.7151 76.9073 65.8517 77.1611 66.1C77.4147 66.348 77.5544 66.6778 77.5544 67.0287C77.5544 67.3793 77.4149 67.7093 77.1609 67.9575Z" fill="white"/>
</svg>
