<svg width="92" height="86" viewBox="0 0 92 86" fill="none" xmlns="http://www.w3.org/2000/svg">
<path d="M88.3728 30.8434H78.7864L74.3704 10.8063C72.9798 4.49709 67.576 0.0905762 61.2297 0.0905762H31.1098C24.7631 0.0905762 19.3595 4.49709 17.9689 10.8065L13.5529 30.8434H3.96652C2.14884 30.8434 0.669922 32.2896 0.669922 34.0677V40.1009C0.669922 41.7717 1.97626 43.1493 3.64251 43.309L6.84136 67.4806C6.84225 67.5294 6.84544 67.5786 6.8522 67.6275L7.06566 69.1759L8.64091 81.0798C8.98624 83.6898 11.276 85.6582 13.9672 85.6582H15.7154C15.8007 85.6756 15.889 85.6848 15.9797 85.6848H24.6365C24.7272 85.6848 24.8155 85.6756 24.9008 85.6582H33.0291C33.1144 85.6756 33.2028 85.6848 33.2934 85.6848H41.9504C42.0411 85.6848 42.1294 85.6756 42.2147 85.6582H50.343C50.4283 85.6756 50.5167 85.6848 50.6073 85.6848H59.2642C59.3548 85.6848 59.4431 85.6756 59.5284 85.6582H67.6567C67.742 85.6756 67.8304 85.6848 67.921 85.6848H76.578C76.6687 85.6848 76.757 85.6756 76.8423 85.6582H78.3723C81.0631 85.6582 83.3531 83.6898 83.6988 81.0798L88.6972 43.3089C90.3634 43.1491 91.6699 41.7717 91.6699 40.1007V34.0675C91.6694 32.2896 90.1905 30.8434 88.3728 30.8434ZM20.5009 11.3401C21.6318 6.20807 25.9944 2.62376 31.1098 2.62376H61.2297C66.3449 2.62376 70.7073 6.20807 71.8384 11.34L76.1367 30.8434H73.0803L68.9177 11.9555C68.0858 8.18171 64.9243 5.54597 61.2297 5.54597H31.1098C27.4151 5.54597 24.2535 8.18171 23.4216 11.9558L19.2591 30.8434H16.2026L20.5009 11.3401ZM70.4304 30.8434H21.9087L25.9534 12.4898C26.5259 9.89303 28.6462 8.07932 31.1096 8.07932H61.2295C63.6929 8.07932 65.8131 9.89303 66.3854 12.4895L70.4304 30.8434ZM7.04184 49.2614L6.25626 43.3249H14.6846V49.2816L7.04184 49.2614ZM14.6846 83.1248H13.9672C12.574 83.125 11.3885 82.106 11.2097 80.7545L10.7389 77.1972L14.6846 77.2128V83.1248ZM14.6846 74.6796L10.4357 74.6626L9.6339 68.8481L9.61826 68.7297L14.6846 68.7469V74.6796ZM14.6846 66.2137L9.28288 66.1955L8.49765 60.2626L14.6846 60.281V66.2137ZM14.6847 57.748H14.6846L8.16263 57.7285L7.3774 51.7958L14.6847 51.8149V57.748ZM23.3414 83.1248H17.2747V77.2178H23.3414V83.1248ZM23.3414 74.6847H17.2747V68.7512H23.3414V74.6847ZM23.3414 66.2181H17.2747V60.2846H23.3414V66.2181ZM23.3414 57.7516H17.2747V51.8182H23.3414V57.7516ZM17.2747 49.285V43.7292L22.4586 49.285H17.2747ZM31.9983 83.1248H25.9315V77.2178H31.9983V83.1248ZM31.9983 74.6847H25.9315V68.7512H31.9983V74.6847ZM31.9983 66.2181H25.9315V60.2846H31.9983V66.2181ZM25.9315 57.7516V53.0072L30.3583 57.7516H25.9315ZM33.2932 57.1392L20.4287 43.3515H24.6365H26.3362L36.247 53.9735L33.2932 57.1392ZM38.0003 55.8526L39.7721 57.7516H36.2283L38.0003 55.8526ZM40.6553 83.1248H34.5884V77.2178H40.6553V83.1248ZM40.6553 74.6847H34.5884V68.7512H40.6553V74.6847ZM40.6553 66.2181H34.5884V60.2846H40.6553V66.2181ZM49.312 83.1248H43.2452V77.2178H49.312V83.1248ZM49.312 74.6847H43.2452V68.7512H49.312V74.6847ZM43.2452 66.2181V61.4738L47.6719 66.2181H43.2452ZM57.9688 83.1248H51.9021V77.2178H57.9688V83.1248ZM57.9688 74.6847H51.9021V68.7512H57.9688V74.6847ZM57.9688 66.2181H53.5422L57.9688 61.4738V66.2181ZM66.6257 83.1248H60.5589V77.2178H66.6257V83.1248ZM66.6257 74.6847H60.5589V68.7512H66.6257V74.6847ZM66.6257 66.2181H60.5589V60.2846H66.6257V66.2181ZM66.6257 57.7516H61.4419L66.6257 52.1959V57.7516ZM50.6071 65.6057L29.8427 43.3515H71.3715L50.6071 65.6057ZM75.2827 83.1248H69.2158V77.2178H75.2827V83.1248ZM75.2827 74.6847H69.2158V68.7512H75.2827V74.6847ZM75.2827 66.2181H69.2158V60.2846H75.2827V66.2181ZM75.2827 57.7515H69.2158V51.8181H75.2827V57.7515ZM75.2827 49.285H69.3418L74.8782 43.3515H75.2827V49.285ZM81.1298 80.7544C80.9508 82.1059 79.7652 83.1248 78.3719 83.1248H77.8728V77.2126L81.6004 77.1973L81.1298 80.7544ZM81.9356 74.6629L77.8728 74.6796V68.7471L82.7209 68.73L81.9356 74.6629ZM83.0564 66.1958L77.8728 66.2137V60.281L83.8415 60.2629L83.0564 66.1958ZM84.1767 57.7285L77.8727 57.7476V51.8147L84.9617 51.7956L84.1767 57.7285ZM85.2973 49.2614L77.8728 49.2814V43.3247H86.0831L85.2973 49.2614ZM88.3728 40.7917H87.5565H4.78267H3.96652C3.57693 40.7917 3.26003 40.4816 3.26003 40.1007V34.0675C3.26003 33.6865 3.57711 33.3766 3.96652 33.3766H13.3668H21.3503H70.9887H78.9721H88.3726C88.7622 33.3766 89.0791 33.6867 89.0791 34.0675V40.1007H89.0793C89.0793 40.4817 88.7622 40.7917 88.3728 40.7917Z" fill="white"/>
</svg>
