<svg width="90" height="91" viewBox="0 0 90 91" fill="none" xmlns="http://www.w3.org/2000/svg">
<path d="M46.6124 4.43143C46.5788 4.22879 46.504 4.0352 46.3926 3.86266C46.2811 3.69012 46.1354 3.5423 45.9645 3.42838L41.4645 0.428381C41.1571 0.223478 40.7849 0.139224 40.4192 0.191765C40.0535 0.244306 39.7201 0.429945 39.4828 0.713109L0.482787 47.2614L2.78223 49.1881L33.393 12.6528L35.8587 14.2966L0.198242 60.7633L2.57826 62.5896L46.3225 5.58957C46.4475 5.42665 46.5377 5.23979 46.5876 5.04058C46.6375 4.84136 46.6459 4.63403 46.6124 4.43143ZM40.9189 3.67026L42.9664 5.03513L40.8272 7.82245L38.7471 6.26235L40.9189 3.67026ZM35.3311 10.3395L36.8176 8.56531L39.0007 10.2026L37.6892 11.9115L35.3311 10.3395Z" fill="white"/>
<path d="M88.3883 74.3987L58.7099 23.3514C57.7862 21.7627 56.4617 20.4442 54.8688 19.5277C53.2759 18.6112 51.4703 18.1289 49.6326 18.1289C47.7948 18.1289 45.9892 18.6113 44.3963 19.5278C42.8034 20.4443 41.479 21.7628 40.5553 23.3516L10.8769 74.3983C9.94908 75.994 9.45834 77.8062 9.45413 79.652C9.44991 81.4978 9.93237 83.3122 10.8529 84.9121C11.7734 86.5121 13.0994 87.8411 14.6972 88.7653C16.2951 89.6894 18.1083 90.176 19.9541 90.176H79.3111C81.1569 90.176 82.9701 89.6894 84.5679 88.7653C86.1658 87.8412 87.4918 86.5122 88.4122 84.9123C89.3327 83.3124 89.8152 81.4981 89.811 79.6523C89.8068 77.8065 89.3161 75.9944 88.3883 74.3987ZM85.812 83.4159C85.1607 84.5641 84.2149 85.5179 83.0722 86.1788C81.9295 86.8398 80.6311 87.184 79.3111 87.176H19.9541C18.6357 87.1759 17.3405 86.8284 16.1992 86.1683C15.0579 85.5082 14.1107 84.5589 13.4533 83.416C12.7958 82.2732 12.4512 80.9773 12.4542 79.6588C12.4572 78.3404 12.8077 77.046 13.4704 75.9062L43.1488 24.8593C43.8086 23.7245 44.7546 22.7827 45.8924 22.1281C47.0302 21.4735 48.3199 21.1289 49.6326 21.1289C50.9452 21.1289 52.2349 21.4734 53.3727 22.128C54.5105 22.7826 55.4566 23.7243 56.1164 24.8591L85.7948 75.9066C86.4653 77.0436 86.8203 78.3389 86.8233 79.6589C86.8263 80.9789 86.4772 82.2758 85.812 83.4159Z" fill="white"/>
<path d="M54.8195 25.6132C54.2917 24.7053 53.5349 23.9519 52.6246 23.4282C51.7144 22.9045 50.6827 22.6289 49.6325 22.6289C48.5824 22.6289 47.5507 22.9045 46.6404 23.4282C45.7302 23.9519 44.9733 24.7053 44.4455 25.6132V25.6133L14.7671 76.6602C14.2369 77.5721 13.9565 78.6076 13.9541 79.6623C13.9517 80.7171 14.2274 81.7538 14.7534 82.6681C15.2794 83.5823 16.0371 84.3417 16.9501 84.8698C17.8632 85.3979 18.8993 85.676 19.9541 85.676H79.311C80.3657 85.676 81.4018 85.3979 82.3149 84.8699C83.2279 84.3418 83.9856 83.5824 84.5116 82.6682C85.0376 81.7539 85.3133 80.7172 85.3109 79.6625C85.3085 78.6077 85.0281 77.5722 84.498 76.6604L54.8195 25.6132ZM49.6325 51.176C50.5225 51.176 51.3926 51.4399 52.1326 51.9344C52.8726 52.4288 53.4494 53.1316 53.79 53.9539C54.1306 54.7762 54.2197 55.681 54.0461 56.5539C53.8724 57.4268 53.4438 58.2286 52.8145 58.8579C52.1852 59.4873 51.3833 59.9159 50.5104 60.0895C49.6375 60.2631 48.7327 60.174 47.9105 59.8334C47.0882 59.4928 46.3854 58.9161 45.8909 58.176C45.3965 57.436 45.1325 56.566 45.1325 55.676C45.1339 54.4829 45.6084 53.3391 46.4521 52.4955C47.2957 51.6519 48.4395 51.1773 49.6325 51.176ZM43.6325 61.676C44.5225 61.676 45.3926 61.9399 46.1326 62.4344C46.8726 62.9288 47.4494 63.6316 47.79 64.4539C48.1306 65.2762 48.2197 66.181 48.0461 67.0539C47.8724 67.9268 47.4438 68.7286 46.8145 69.3579C46.1852 69.9873 45.3834 70.4159 44.5104 70.5895C43.6375 70.7631 42.7327 70.674 41.9105 70.3334C41.0882 69.9928 40.3854 69.4161 39.8909 68.676C39.3964 67.936 39.1325 67.066 39.1325 66.176C39.1339 64.9829 39.6084 63.8391 40.4521 62.9955C41.2957 62.1519 42.4395 61.6773 43.6325 61.676ZM55.6325 61.676C56.5225 61.676 57.3926 61.9399 58.1326 62.4344C58.8726 62.9288 59.4494 63.6316 59.79 64.4539C60.1306 65.2762 60.2197 66.181 60.0461 67.0539C59.8724 67.9268 59.4438 68.7286 58.8145 69.3579C58.1852 69.9873 57.3833 70.4159 56.5104 70.5895C55.6375 70.7631 54.7327 70.674 53.9105 70.3334C53.0882 69.9928 52.3854 69.4161 51.8909 68.676C51.3965 67.936 51.1325 67.066 51.1325 66.176C51.1339 64.9829 51.6084 63.8391 52.4521 62.9955C53.2957 62.1519 54.4395 61.6773 55.6325 61.676ZM67.6325 70.676C66.7425 70.676 65.8725 70.412 65.1325 69.9176C64.3924 69.4231 63.8157 68.7203 63.4751 67.898C63.1345 67.0758 63.0454 66.171 63.219 65.2981C63.3926 64.4252 63.8212 63.6233 64.4505 62.994C65.0799 62.3647 65.8817 61.9361 66.7546 61.7624C67.6275 61.5888 68.5323 61.6779 69.3546 62.0185C70.1769 62.3591 70.8797 62.9359 71.3741 63.6759C71.8686 64.4159 72.1325 65.286 72.1325 66.176C72.1312 67.369 71.6566 68.5128 70.813 69.3564C69.9694 70.2001 68.8256 70.6746 67.6325 70.676ZM61.6325 60.176C60.7425 60.176 59.8725 59.912 59.1325 59.4176C58.3924 58.9231 57.8157 58.2203 57.4751 57.398C57.1345 56.5758 57.0454 55.671 57.219 54.7981C57.3926 53.9252 57.8212 53.1233 58.4506 52.494C59.0799 51.8647 59.8817 51.4361 60.7546 51.2624C61.6275 51.0888 62.5323 51.1779 63.3546 51.5185C64.1769 51.8591 64.8797 52.4359 65.3741 53.1759C65.8686 53.9159 66.1325 54.786 66.1325 55.676C66.1312 56.869 65.6566 58.0128 64.813 58.8564C63.9694 59.7001 62.8256 60.1746 61.6325 60.176ZM55.6325 49.676C54.7425 49.676 53.8725 49.412 53.1325 48.9176C52.3924 48.4231 51.8157 47.7203 51.4751 46.898C51.1345 46.0758 51.0454 45.171 51.219 44.2981C51.3926 43.4251 51.8212 42.6233 52.4506 41.994C53.0799 41.3647 53.8817 40.9361 54.7546 40.7624C55.6275 40.5888 56.5323 40.6779 57.3546 41.0185C58.1769 41.3591 58.8797 41.9359 59.3741 42.6759C59.8686 43.4159 60.1325 44.286 60.1325 45.176C60.1312 46.369 59.6566 47.5128 58.813 48.3564C57.9694 49.2001 56.8256 49.6746 55.6325 49.676ZM48.1325 45.176C48.1325 46.066 47.8686 46.936 47.3741 47.676C46.8797 48.4161 46.1769 48.9928 45.3546 49.3334C44.5323 49.674 43.6275 49.7631 42.7546 49.5895C41.8817 49.4159 41.0799 48.9873 40.4505 48.3579C39.8212 47.7286 39.3926 46.9268 39.219 46.0539C39.0454 45.181 39.1345 44.2762 39.4751 43.4539C39.8157 42.6316 40.3924 41.9288 41.1325 41.4344C41.8725 40.9399 42.7425 40.676 43.6325 40.676C44.8256 40.6773 45.9694 41.1519 46.813 41.9955C47.6566 42.8391 48.1312 43.9829 48.1325 45.176ZM42.1325 55.676C42.1325 56.566 41.8686 57.436 41.3741 58.176C40.8797 58.9161 40.1769 59.4928 39.3546 59.8334C38.5323 60.174 37.6275 60.2631 36.7546 60.0895C35.8817 59.9159 35.0799 59.4873 34.4505 58.8579C33.8212 58.2286 33.3926 57.4268 33.219 56.5539C33.0454 55.681 33.1345 54.7762 33.4751 53.9539C33.8157 53.1316 34.3924 52.4288 35.1325 51.9344C35.8725 51.4399 36.7425 51.176 37.6325 51.176C38.8256 51.1773 39.9694 51.6519 40.813 52.4955C41.6566 53.3391 42.1312 54.4829 42.1325 55.676ZM36.1325 66.176C36.1325 67.066 35.8686 67.936 35.3741 68.676C34.8797 69.4161 34.1769 69.9928 33.3546 70.3334C32.5323 70.674 31.6275 70.7631 30.7546 70.5895C29.8817 70.4159 29.0799 69.9873 28.4505 69.3579C27.8212 68.7286 27.3926 67.9268 27.219 67.0539C27.0454 66.181 27.1345 65.2762 27.4751 64.4539C27.8157 63.6316 28.3924 62.9288 29.1325 62.4344C29.8725 61.9399 30.7425 61.676 31.6325 61.676C32.8256 61.6773 33.9694 62.1519 34.813 62.9955C35.6566 63.8391 36.1312 64.9829 36.1325 66.176ZM37.6325 72.176C38.5225 72.176 39.3926 72.4399 40.1326 72.9344C40.8726 73.4288 41.4494 74.1316 41.79 74.9539C42.1306 75.7762 42.2197 76.681 42.0461 77.5539C41.8724 78.4268 41.4438 79.2286 40.8145 79.8579C40.1852 80.4873 39.3834 80.9159 38.5104 81.0895C37.6375 81.2631 36.7327 81.174 35.9105 80.8334C35.0882 80.4928 34.3854 79.9161 33.8909 79.176C33.3964 78.436 33.1325 77.566 33.1325 76.676C33.1339 75.4829 33.6084 74.3391 34.4521 73.4955C35.2957 72.6519 36.4395 72.1773 37.6325 72.176ZM49.6325 72.176C50.5225 72.176 51.3926 72.4399 52.1326 72.9344C52.8726 73.4288 53.4494 74.1316 53.79 74.9539C54.1306 75.7762 54.2197 76.681 54.0461 77.5539C53.8724 78.4268 53.4438 79.2286 52.8145 79.8579C52.1852 80.4873 51.3833 80.9159 50.5104 81.0895C49.6375 81.2631 48.7327 81.174 47.9105 80.8334C47.0882 80.4928 46.3854 79.9161 45.8909 79.176C45.3965 78.436 45.1325 77.566 45.1325 76.676C45.1339 75.4829 45.6084 74.3391 46.4521 73.4955C47.2957 72.6519 48.4395 72.1773 49.6325 72.176ZM61.6325 72.176C62.5225 72.176 63.3926 72.4399 64.1326 72.9344C64.8726 73.4288 65.4494 74.1316 65.79 74.9539C66.1306 75.7762 66.2197 76.681 66.0461 77.5539C65.8724 78.4268 65.4438 79.2286 64.8145 79.8579C64.1852 80.4873 63.3833 80.9159 62.5104 81.0895C61.6375 81.2631 60.7327 81.174 59.9105 80.8334C59.0882 80.4928 58.3854 79.9161 57.8909 79.176C57.3965 78.436 57.1325 77.566 57.1325 76.676C57.1339 75.4829 57.6084 74.3391 58.4521 73.4955C59.2957 72.6519 60.4395 72.1773 61.6325 72.176ZM68.482 58.7254C68.8431 57.9178 69.0573 57.0522 69.1145 56.1693L71.054 59.5053C70.2511 59.0914 69.3796 58.8271 68.482 58.7254ZM62.482 48.2254C62.8212 47.4667 63.0309 46.6565 63.1024 45.8285L64.9049 48.9289C64.1432 48.5582 63.3238 48.3203 62.482 48.2254ZM56.482 37.7255C56.8002 37.0147 57.0048 36.2584 57.0883 35.4842L58.7618 38.3626C58.0408 38.0299 57.2711 37.8148 56.482 37.7255ZM54.1325 34.676C54.1325 35.566 53.8686 36.436 53.3741 37.176C52.8797 37.9161 52.1769 38.4928 51.3546 38.8334C50.5323 39.174 49.6275 39.2631 48.7546 39.0895C47.8817 38.9159 47.0799 38.4873 46.4506 37.858C45.8212 37.2286 45.3926 36.4268 45.219 35.5539C45.0454 34.681 45.1345 33.7762 45.4751 32.9539C45.8157 32.1316 46.3924 31.4288 47.1325 30.9344C47.8725 30.4399 48.7425 30.176 49.6325 30.176C50.8256 30.1773 51.9694 30.6519 52.813 31.4955C53.6566 32.3391 54.1312 33.4829 54.1325 34.676ZM42.7831 37.7255C41.994 37.8148 41.2243 38.0299 40.5032 38.3627L42.1767 35.4842C42.2602 36.2584 42.4648 37.0147 42.7831 37.7255ZM36.7831 48.2254C35.9412 48.3202 35.1218 48.5582 34.3601 48.9289L36.1627 45.8284C36.2341 46.6564 36.4438 47.4667 36.7831 48.2254ZM30.7831 58.7254C29.8854 58.8271 29.0138 59.0914 28.2109 59.5054L30.1506 56.1693C30.2078 57.0521 30.422 57.9177 30.7831 58.7254ZM24.7831 69.2254C23.8293 69.3328 22.9052 69.6236 22.0618 70.0819L24.1409 66.5059C24.1814 67.4448 24.3993 68.3676 24.7831 69.2254ZM25.6325 72.176C26.5225 72.176 27.3926 72.4399 28.1326 72.9344C28.8726 73.4288 29.4494 74.1316 29.79 74.9539C30.1306 75.7762 30.2197 76.681 30.0461 77.5539C29.8724 78.4268 29.4438 79.2286 28.8145 79.8579C28.1852 80.4873 27.3834 80.9159 26.5104 81.0895C25.6375 81.2631 24.7327 81.174 23.9105 80.8334C23.0882 80.4928 22.3854 79.9161 21.8909 79.176C21.3965 78.436 21.1325 77.566 21.1325 76.676C21.1339 75.4829 21.6084 74.3391 22.4521 73.4955C23.2957 72.6519 24.4395 72.1773 25.6325 72.176ZM31.6325 81.1707C32.0608 81.7409 32.5676 82.2477 33.1378 82.676H30.1273C30.6975 82.2477 31.2042 81.7409 31.6325 81.1707ZM43.6325 81.1707C44.0608 81.7409 44.5676 82.2477 45.1378 82.676H42.1273C42.6975 82.2477 43.2042 81.7409 43.6325 81.1707ZM55.6325 81.1707C56.0608 81.7409 56.5676 82.2477 57.1378 82.676H54.1273C54.6975 82.2477 55.2042 81.7409 55.6325 81.1707ZM67.6325 81.1707C68.0608 81.7409 68.5676 82.2477 69.1378 82.676H66.1273C66.6975 82.2477 67.2042 81.7409 67.6325 81.1707ZM73.6325 81.176C72.7425 81.176 71.8725 80.912 71.1325 80.4176C70.3924 79.9231 69.8157 79.2203 69.4751 78.398C69.1345 77.5758 69.0454 76.671 69.219 75.7981C69.3926 74.9251 69.8212 74.1233 70.4505 73.494C71.0799 72.8647 71.8817 72.4361 72.7546 72.2624C73.6275 72.0888 74.5323 72.1779 75.3546 72.5185C76.1769 72.8591 76.8797 73.4359 77.3741 74.1759C77.8686 74.9159 78.1325 75.786 78.1325 76.676C78.1312 77.869 77.6566 79.0128 76.813 79.8564C75.9694 80.7001 74.8256 81.1746 73.6325 81.176ZM74.482 69.2254C74.8658 68.3676 75.0837 67.4449 75.1241 66.506L77.2031 70.0818C76.3597 69.6236 75.4357 69.3328 74.482 69.2254ZM49.6325 25.6289C50.1582 25.626 50.6752 25.7625 51.1308 26.0247C51.5865 26.2868 51.9644 26.6651 52.226 27.121L52.6198 27.7983C51.6774 27.3878 50.6605 27.176 49.6325 27.176C48.6046 27.176 47.5877 27.3878 46.6452 27.7983L47.039 27.121V27.1212C47.3006 26.6653 47.6785 26.2869 48.1342 26.0247C48.5898 25.7625 49.1069 25.626 49.6325 25.6289ZM17.3536 81.1719C17.0876 80.7159 16.948 80.1971 16.9492 79.6691C16.9504 79.1411 17.0924 78.623 17.3606 78.1681L18.1365 76.8334C18.1602 77.9713 18.4428 79.0887 18.9629 80.1011C19.4829 81.1134 20.2267 81.994 21.1378 82.676H19.9541C19.426 82.6792 18.9067 82.5415 18.4496 82.2771C17.9925 82.0127 17.6141 81.6312 17.3536 81.1719ZM81.9115 81.1719C81.6509 81.6312 81.2726 82.0127 80.8155 82.2771C80.3584 82.5415 79.839 82.6792 79.311 82.676H78.1273C79.0384 81.994 79.7821 81.1135 80.3022 80.1012C80.8222 79.0889 81.1048 77.9714 81.1285 76.8336L81.9045 78.1683C82.1726 78.6231 82.3146 79.1412 82.3158 79.6692C82.3171 80.1971 82.1775 80.7159 81.9115 81.1719Z" fill="white"/>
<path d="M58.6323 15.176C60.1157 15.176 61.5657 14.7362 62.7991 13.912C64.0325 13.0879 64.9938 11.9166 65.5614 10.5462C66.1291 9.17571 66.2776 7.66771 65.9882 6.21285C65.6988 4.75799 64.9845 3.42162 63.9356 2.37273C62.8867 1.32383 61.5504 0.609528 60.0955 0.320139C58.6406 0.03075 57.1326 0.179275 55.7622 0.746932C54.3918 1.31459 53.2204 2.27588 52.3963 3.50925C51.5722 4.74262 51.1323 6.19267 51.1323 7.67603C51.1346 9.66445 51.9255 11.5708 53.3315 12.9768C54.7376 14.3828 56.6439 15.1738 58.6323 15.176ZM58.6323 3.17603C59.5223 3.17603 60.3924 3.43995 61.1324 3.93442C61.8724 4.42888 62.4492 5.13169 62.7898 5.95395C63.1304 6.77622 63.2195 7.68102 63.0459 8.55394C62.8722 9.42685 62.4436 10.2287 61.8143 10.858C61.185 11.4873 60.3831 11.9159 59.5102 12.0896C58.6373 12.2632 57.7325 12.1741 56.9103 11.8335C56.088 11.4929 55.3852 10.9161 54.8907 10.1761C54.3962 9.43607 54.1323 8.56604 54.1323 7.67603C54.1337 6.48297 54.6082 5.33917 55.4519 4.49555C56.2955 3.65194 57.4393 3.17739 58.6323 3.17603Z" fill="white"/>
</svg>
