<svg width="92" height="62" viewBox="0 0 92 62" fill="none" xmlns="http://www.w3.org/2000/svg">
<path d="M91.5044 35.0782C91.5044 34.3583 90.9079 33.7749 90.1718 33.7749C89.4357 33.7749 88.8392 34.3583 88.8392 35.0782V38.9769C82.5484 39.3858 80.9888 42.9759 75.4493 42.9155C70.051 42.8564 68.0369 39.0176 60.7264 38.9396C58.6884 38.9178 57.1405 39.2329 55.8662 39.6529V20.8392H88.8394V29.3993C88.8394 30.1193 89.4359 30.7026 90.172 30.7026C90.9081 30.7026 91.5045 30.1193 91.5045 29.3993V19.5359C91.5045 18.816 90.9081 18.2326 90.172 18.2326H55.8662V11.9944C55.8662 10.0895 57.45 8.53982 59.3966 8.53982C61.3443 8.53982 62.9288 10.0895 62.9288 11.9944C62.9288 14.2461 64.8019 16.078 67.1042 16.078C69.4066 16.078 71.2796 14.2461 71.2796 11.9944C71.2796 5.58605 65.949 0.372559 59.3966 0.372559C56.4579 0.372559 53.7669 1.42388 51.6904 3.15933C49.5496 1.37661 46.8077 0.372559 43.9832 0.372559C37.4319 0.372559 32.102 5.58605 32.102 11.9944V18.2326H17.2002C16.4643 18.2326 15.8677 18.816 15.8677 19.5359C15.8677 20.2558 16.4643 20.8392 17.2002 20.8392H32.102V38.9564C25.2614 38.3223 22.2507 42.9153 16.5597 42.9153C11.5903 42.9153 8.07656 39.3245 3.17092 38.9848V20.8392H11.392C12.1279 20.8392 12.7246 20.2558 12.7246 19.5359C12.7246 18.816 12.1279 18.2326 11.392 18.2326H1.83799C1.10205 18.2326 0.505416 18.816 0.505416 19.5359L0.504883 55.7487C0.504883 56.4686 1.10152 57.0612 1.83746 57.0519C7.72938 56.9786 9.53671 61.028 16.5595 61.028C23.8843 61.028 25.8865 56.8929 31.2816 57.0519C36.9877 57.2202 38.3203 61.028 46.0036 61.028C53.9114 61.028 55.3284 57.0519 60.726 57.0519C66.1247 57.0519 67.6813 61.028 75.449 61.028C82.8281 61.028 84.7742 57.0519 90.172 57.0519C90.9081 57.0519 91.5045 56.4686 91.5045 55.7487L91.5044 35.0782ZM50.1802 11.9944C50.1802 7.02349 54.3145 2.97913 59.3963 2.97913C64.4789 2.97913 68.6141 7.02331 68.6141 11.9944C68.6141 12.8089 67.9366 13.4715 67.1039 13.4715C66.2711 13.4715 65.5936 12.8089 65.5936 11.9944C65.5936 8.65242 62.8135 5.93325 59.3963 5.93325C55.9799 5.93325 53.2007 8.65225 53.2007 11.9944V40.8319C53.0383 40.9183 51.1052 41.9618 50.1802 42.2864V11.9944ZM34.7668 11.9944C34.7668 7.02349 38.9011 2.97913 43.9828 2.97913C46.131 2.97913 48.2178 3.73 49.8646 5.06421C49.2504 5.87034 48.7433 6.75796 48.3572 7.70519C47.2356 6.61095 45.6885 5.93325 43.9828 5.93325C40.5665 5.93325 37.7873 8.65225 37.7873 11.9944V40.3158C36.93 39.9103 35.9606 39.5365 34.7668 39.281V11.9944ZM40.4524 32.8303V28.1385H47.515V32.8303H40.4524ZM47.515 35.4369V42.8494C44.8499 43.2316 42.3157 42.7537 40.4524 41.701V35.4369H47.515ZM40.4524 25.5319V20.8401H47.515V25.5319H40.4524ZM40.4524 18.2335V11.9944C40.4524 10.0895 42.0362 8.53982 43.9828 8.53982C45.9305 8.53982 47.515 10.0895 47.515 11.9944V18.2335H40.4524ZM88.8397 46.7381C83.5835 47.1412 81.4518 50.5421 75.4495 50.6688C69.6804 50.7904 67.0596 46.6634 60.7255 46.6929C56.0199 46.7148 52.9896 49.6269 48.6559 50.4439C47.9333 50.5802 47.4603 51.2636 47.5998 51.9703C47.7393 52.6771 48.4374 53.1397 49.1605 53.0032C53.3688 52.2096 56.2585 49.2995 60.7255 49.2995C66.1338 49.2995 69.9391 53.3141 75.4495 53.2754C82.8728 53.2232 83.1394 49.6175 88.8397 49.3502V54.4899C82.4286 54.7872 80.6963 58.4213 75.4493 58.4213C70.0506 58.4213 67.2819 54.4504 60.7264 54.4452C53.6897 54.4396 52.4015 58.4213 46.0039 58.4213C40.6258 58.4213 38.8093 54.4831 31.282 54.4452C24.5946 54.4117 21.9575 58.4213 16.5599 58.4213C11.5901 58.4213 8.07656 54.8292 3.17038 54.4899V49.35C8.04707 49.7376 11.4469 53.2752 16.5606 53.2752C22.0389 53.2752 25.8842 49.2993 31.2811 49.2993C35.7189 49.2993 38.6765 52.2187 42.8503 53.0032C43.5735 53.139 44.2717 52.6764 44.4105 51.9695C44.5494 51.2627 44.0761 50.5795 43.3535 50.4436C38.9146 49.6091 36.0972 46.6927 31.2811 46.6927C25.803 46.6927 21.9577 50.6686 16.5606 50.6686C11.5908 50.6686 8.07656 47.0773 3.17038 46.7379V41.5958C8.07408 41.9854 9.848 45.5337 16.5599 45.5217C24.3304 45.5078 25.8845 41.5458 31.282 41.5458C36.5974 41.5458 38.0536 45.5088 46.0039 45.5217C53.4231 45.5337 55.3479 41.5458 60.7264 41.5458C66.7722 41.5458 67.8594 45.5093 75.4493 45.5217C82.9173 45.5337 84.0071 41.9797 88.8397 41.5958V46.7381Z" fill="white"/>
</svg>
