<svg width="91" height="64" viewBox="0 0 91 64" fill="none" xmlns="http://www.w3.org/2000/svg">
<path d="M33.8794 51.2312C33.1021 51.2312 32.4663 50.6029 32.4663 49.825C32.4663 49.047 33.0877 48.4187 33.8643 48.4187H33.8794C34.656 48.4187 35.2857 49.047 35.2857 49.825C35.2857 50.6029 34.656 51.2312 33.8794 51.2312Z" fill="white"/>
<path d="M40.9107 51.2312C40.1334 51.2312 39.4976 50.6029 39.4976 49.825C39.4976 49.047 40.119 48.4187 40.8956 48.4187H40.9107C41.6873 48.4187 42.3169 49.047 42.3169 49.825C42.3169 50.6029 41.6873 51.2312 40.9107 51.2312Z" fill="white"/>
<path d="M26.8482 51.2312C26.0709 51.2312 25.4351 50.6029 25.4351 49.825C25.4351 49.047 26.0565 48.4187 26.8331 48.4187H26.8482C27.6248 48.4187 28.2544 49.047 28.2544 49.825C28.2544 50.6029 27.6248 51.2312 26.8482 51.2312Z" fill="white"/>
<path d="M83.0562 59.6687H7.11865C3.22331 59.6687 0.0874023 55.0531 0.0874023 51.2312V30.1375C0.0874023 26.2607 3.24185 23.1062 7.11865 23.1062C7.89662 23.1062 8.5249 23.7345 8.5249 24.5125C8.5249 25.2904 7.89662 25.9187 7.11865 25.9187C4.79298 25.9187 2.8999 27.8118 2.8999 30.1375V51.2312C2.8999 53.6866 4.94611 56.8562 7.11865 56.8562H83.0562C85.3818 56.8562 87.2749 54.9631 87.2749 52.6375V30.1375C87.2749 27.8118 85.3818 25.9187 83.0562 25.9187C82.2782 25.9187 81.6499 25.2904 81.6499 24.5125C81.6499 23.7345 82.2782 23.1062 83.0562 23.1062C86.933 23.1062 90.0874 26.2607 90.0874 30.1375V52.6375C90.0874 56.5143 86.933 59.6687 83.0562 59.6687Z" fill="white"/>
<path d="M33.8374 45.6062C25.3086 45.6062 18.3687 38.6663 18.3687 30.1375C18.3687 21.6086 25.3086 14.6687 33.8374 14.6687C42.3662 14.6687 49.3062 21.6086 49.3062 30.1375C49.3062 38.6663 42.3662 45.6062 33.8374 45.6062ZM33.8374 17.4812C26.8583 17.4812 21.1812 23.1584 21.1812 30.1375C21.1812 37.1165 26.8583 42.7937 33.8374 42.7937C40.8165 42.7937 46.4937 37.1165 46.4937 30.1375C46.4937 23.1584 40.8165 17.4812 33.8374 17.4812Z" fill="white"/>
<path d="M33.8374 39.9812C28.4108 39.9812 23.9937 35.564 23.9937 30.1375C23.9937 24.7109 28.4108 20.2937 33.8374 20.2937C39.264 20.2937 43.6812 24.7109 43.6812 30.1375C43.6812 35.564 39.264 39.9812 33.8374 39.9812ZM33.8374 23.1062C29.9606 23.1062 26.8062 26.2607 26.8062 30.1375C26.8062 34.0143 29.9606 37.1687 33.8374 37.1687C37.7142 37.1687 40.8687 34.0143 40.8687 30.1375C40.8687 26.2607 37.7142 23.1062 33.8374 23.1062Z" fill="white"/>
<path d="M10.6343 39.9812C8.69519 39.9812 7.11865 38.4047 7.11865 36.4656C7.11865 34.5265 8.69519 32.95 10.6343 32.95C12.5734 32.95 14.1499 34.5265 14.1499 36.4656C14.1499 38.4047 12.5734 39.9812 10.6343 39.9812ZM10.6343 35.7625C10.2477 35.7625 9.93115 36.079 9.93115 36.4656C9.93115 36.8522 10.2477 37.1687 10.6343 37.1687C11.0209 37.1687 11.3374 36.8522 11.3374 36.4656C11.3374 36.079 11.0209 35.7625 10.6343 35.7625Z" fill="white"/>
<path d="M10.6343 51.2312C8.69519 51.2312 7.11865 49.6547 7.11865 47.7156C7.11865 45.7765 8.69519 44.2 10.6343 44.2C12.5734 44.2 14.1499 45.7765 14.1499 47.7156C14.1499 49.6547 12.5734 51.2312 10.6343 51.2312ZM10.6343 47.0125C10.2477 47.0125 9.93115 47.329 9.93115 47.7156C9.93115 48.1022 10.2477 48.4187 10.6343 48.4187C11.0209 48.4187 11.3374 48.1022 11.3374 47.7156C11.3374 47.329 11.0209 47.0125 10.6343 47.0125Z" fill="white"/>
<path d="M54.9312 30.1375C54.1532 30.1375 53.5249 29.5092 53.5249 28.7312V24.5125C53.5249 23.7345 54.1532 23.1062 54.9312 23.1062C55.7091 23.1062 56.3374 23.7345 56.3374 24.5125V28.7312C56.3374 29.5092 55.7091 30.1375 54.9312 30.1375Z" fill="white"/>
<path d="M83.0562 30.1375H54.9312C54.1532 30.1375 53.5249 29.5092 53.5249 28.7312C53.5249 27.9532 54.1532 27.325 54.9312 27.325H83.0562C83.8341 27.325 84.4624 27.9532 84.4624 28.7312C84.4624 29.5092 83.8341 30.1375 83.0562 30.1375Z" fill="white"/>
<path d="M83.0562 30.1375C82.2782 30.1375 81.6499 29.5092 81.6499 28.7312V24.5125C81.6499 23.7345 82.2782 23.1062 83.0562 23.1062C83.8341 23.1062 84.4624 23.7345 84.4624 24.5125V28.7312C84.4624 29.5092 83.8341 30.1375 83.0562 30.1375Z" fill="white"/>
<path d="M88.6812 39.9812H54.9312C54.1532 39.9812 53.5249 39.3529 53.5249 38.575C53.5249 37.797 54.1532 37.1687 54.9312 37.1687H88.6812C89.4591 37.1687 90.0874 37.797 90.0874 38.575C90.0874 39.3529 89.4591 39.9812 88.6812 39.9812Z" fill="white"/>
<path d="M88.6812 45.6062H54.9312C54.1532 45.6062 53.5249 44.9779 53.5249 44.2C53.5249 43.422 54.1532 42.7937 54.9312 42.7937H88.6812C89.4591 42.7937 90.0874 43.422 90.0874 44.2C90.0874 44.9779 89.4591 45.6062 88.6812 45.6062Z" fill="white"/>
<path d="M88.6812 51.2312H54.9312C54.1532 51.2312 53.5249 50.6029 53.5249 49.825C53.5249 49.047 54.1532 48.4187 54.9312 48.4187H88.6812C89.4591 48.4187 90.0874 49.047 90.0874 49.825C90.0874 50.6029 89.4591 51.2312 88.6812 51.2312Z" fill="white"/>
<path d="M11.3374 63.8875C10.5594 63.8875 9.93115 63.2592 9.93115 62.4812V58.2625C9.93115 57.4845 10.5594 56.8562 11.3374 56.8562C12.1154 56.8562 12.7437 57.4845 12.7437 58.2625V62.4812C12.7437 63.2592 12.1154 63.8875 11.3374 63.8875Z" fill="white"/>
<path d="M26.8075 63.8875H11.3374C10.5594 63.8875 9.93115 63.2592 9.93115 62.4812C9.93115 61.7032 10.5594 61.075 11.3374 61.075H26.8075C27.5855 61.075 28.2138 61.7032 28.2138 62.4812C28.2138 63.2592 27.5855 63.8875 26.8075 63.8875Z" fill="white"/>
<path d="M26.8076 63.8875C26.0303 63.8875 25.4014 63.2592 25.4014 62.4812V58.2625C25.4014 57.4845 26.0303 56.8562 26.8076 56.8562C27.5856 56.8562 28.2139 57.4845 28.2139 58.2625V62.4812C28.2139 63.2592 27.5856 63.8875 26.8076 63.8875Z" fill="white"/>
<path d="M63.3687 63.8875C62.5907 63.8875 61.9624 63.2592 61.9624 62.4812V58.2625C61.9624 57.4845 62.5907 56.8562 63.3687 56.8562C64.1466 56.8562 64.7749 57.4845 64.7749 58.2625V62.4812C64.7749 63.2592 64.1466 63.8875 63.3687 63.8875Z" fill="white"/>
<path d="M78.8388 63.8875H63.3687C62.5907 63.8875 61.9624 63.2592 61.9624 62.4812C61.9624 61.7032 62.5907 61.075 63.3687 61.075H78.8388C79.6167 61.075 80.245 61.7032 80.245 62.4812C80.245 63.2592 79.6167 63.8875 78.8388 63.8875Z" fill="white"/>
<path d="M78.8389 63.8875C78.0616 63.8875 77.4326 63.2592 77.4326 62.4812V58.2625C77.4326 57.4845 78.0616 56.8562 78.8389 56.8562C79.6168 56.8562 80.2451 57.4845 80.2451 58.2625V62.4812C80.2451 63.2592 79.6168 63.8875 78.8389 63.8875Z" fill="white"/>
<path d="M20.9463 25.9187H7.11865C6.34068 25.9187 5.7124 25.2904 5.7124 24.5125C5.7124 23.7345 6.34068 23.1062 7.11865 23.1062H20.9463C21.7243 23.1062 22.3526 23.7345 22.3526 24.5125C22.3526 25.2904 21.7243 25.9187 20.9463 25.9187Z" fill="white"/>
<path d="M83.0563 25.9187H46.73C45.9527 25.9187 45.3237 25.2904 45.3237 24.5125C45.3237 23.7345 45.9527 23.1062 46.73 23.1062H83.0563C83.8342 23.1062 84.4625 23.7345 84.4625 24.5125C84.4625 25.2904 83.8342 25.9187 83.0563 25.9187Z" fill="white"/>
<path d="M33.8374 10.45C33.0594 10.45 32.4312 9.82167 32.4312 9.0437V2.01245C32.4312 1.23448 33.0594 0.606201 33.8374 0.606201C34.6154 0.606201 35.2437 1.23448 35.2437 2.01245V9.0437C35.2437 9.82167 34.6154 10.45 33.8374 10.45Z" fill="white"/>
<path d="M23.2921 13.2762C22.8053 13.2762 22.3328 13.0249 22.0726 12.5731L18.557 6.48461C18.169 5.81101 18.3997 4.95133 19.072 4.56338C19.7428 4.17543 20.6032 4.40476 20.9932 5.07836L24.5088 11.1668C24.8968 11.8404 24.6661 12.7001 23.9938 13.0881C23.7727 13.2158 23.531 13.2762 23.2921 13.2762Z" fill="white"/>
<path d="M15.5686 20.9967C15.3296 20.9967 15.0879 20.9363 14.8668 20.8086L8.77836 17.2929C8.10476 16.9043 7.87405 16.0453 8.26201 15.3717C8.64996 14.6981 9.51239 14.4674 10.1832 14.8567L16.2717 18.3723C16.9453 18.761 17.176 19.6213 16.7867 20.2936C16.5265 20.7447 16.0541 20.9967 15.5686 20.9967Z" fill="white"/>
<path d="M52.106 20.9968C51.6192 20.9968 51.1468 20.7448 50.8866 20.2937C50.4986 19.6201 50.7293 18.7611 51.4016 18.3725L57.4873 14.8568C58.1581 14.4689 59.0192 14.6982 59.4085 15.3718C59.7965 16.0454 59.5658 16.9044 58.8935 17.2931L52.8078 20.8087C52.5867 20.9364 52.345 20.9968 52.106 20.9968Z" fill="white"/>
<path d="M44.383 13.2761C44.1441 13.2761 43.9024 13.2157 43.6813 13.088C43.0077 12.7 42.777 11.839 43.1663 11.1668L46.6792 5.07965C47.0678 4.40743 47.9295 4.17534 48.6004 4.56467C49.274 4.95262 49.5047 5.81368 49.1147 6.4859L45.6025 12.573C45.3423 13.0235 44.8699 13.2761 44.383 13.2761Z" fill="white"/>
</svg>
