<svg width="61" height="57" viewBox="0 0 61 57" fill="none" xmlns="http://www.w3.org/2000/svg">
<path fill-rule="evenodd" clip-rule="evenodd" d="M44.257 30.8678C40.61 30.8678 39.0243 33.3949 39.0293 36.3829C39.0293 39.2767 40.6199 41.7988 44.2619 41.7988C47.904 41.7988 49.4797 39.2767 49.4797 36.4027C49.4748 33.3899 47.8891 30.8678 44.257 30.8678ZM44.257 39.0884C43.4146 39.0884 43.3204 37.6861 43.3204 36.1946C43.3204 34.7922 43.4096 33.2958 44.252 33.2958C45.0944 33.2958 45.1885 34.7823 45.1885 36.1896C45.1836 37.6861 45.0894 39.0884 44.257 39.0884ZM38.1819 31.1601H34.6241V34.4206C34.6247 34.6344 34.6396 34.848 34.6687 35.0598C34.6687 35.2333 34.7133 35.3522 34.7133 35.3522C34.7133 35.3522 34.4358 34.8864 34.1534 34.5098L31.6312 31.1502H28.1626V41.6155H31.7155V37.5077C31.7119 37.292 31.6937 37.0767 31.6609 36.8635C31.6609 36.6901 31.6163 36.5711 31.6163 36.5711C31.7596 36.8786 31.9578 37.1573 32.2011 37.3937L35.0949 41.5957H38.1819V31.1601ZM23.703 31.1601H19.5902L15.7598 41.6254H19.6843L20.0609 40.2231H22.7664L23.143 41.6254H27.5283L23.703 31.1601ZM20.5316 38.2609L21.1808 35.3621C21.3011 34.9321 21.3954 34.4953 21.4632 34.0539C21.4632 34.0539 21.4632 34.2174 21.5326 34.4652C21.602 34.713 21.6466 35.035 21.7407 35.3621L22.3056 38.2559L20.5316 38.2609ZM12.9552 36.8635C13.9859 36.4869 14.9373 35.377 14.9373 34.4305C14.9373 32.3741 13.2525 30.8826 9.32802 30.8876C7.86375 30.8747 6.4068 31.0955 5.01208 31.5417V41.6304H9.11991V37.2351L10.8939 41.6254H15.4724L12.9552 36.8635ZM9.31316 36.3036H9.12982V33.0332C9.16695 32.9975 9.21157 32.9705 9.26042 32.9542C9.30928 32.938 9.36115 32.9328 9.41226 32.939C10.5321 32.939 10.7204 33.499 10.7204 34.6188C10.7155 35.5553 10.2497 36.3036 9.31316 36.3036ZM44.2471 30.8529C40.6001 30.8529 39.0144 33.38 39.0194 36.368C39.0194 39.2618 40.61 41.784 44.252 41.784C47.8941 41.784 49.4797 39.2767 49.4797 36.4027C49.4748 33.3899 47.8891 30.8678 44.257 30.8678L44.2471 30.8529ZM44.2471 39.0735C43.4047 39.0735 43.3105 37.6712 43.3105 36.1797C43.3105 34.7774 43.3997 33.2809 44.2421 33.2809C45.0845 33.2809 45.1786 34.7675 45.1786 36.1747C45.1836 37.6861 45.0894 39.0884 44.257 39.0884L44.2471 39.0735ZM18.8122 22.776C19.4068 22.5877 19.9568 21.0565 20.3979 21.5372C21.6961 22.9544 22.7565 21.1903 23.1628 21.5075C23.3759 21.6759 23.5047 22.2606 23.4056 23.0436C23.1834 23.6679 22.9065 24.2715 22.5781 24.8472C23.2223 24.2179 23.5692 23.7075 24.139 23.1476C24.5602 22.7363 25.13 22.3845 25.6256 21.9831C25.8684 21.8097 26.1211 21.6363 26.3292 21.4579C27.9842 20.1596 29.7978 19.2083 31.0168 19.1983C31.8195 19.1983 32.2011 22.3498 32.8006 22.5381C33.7124 22.8206 34.2872 23.0336 34.6043 23.1873C35.0571 23.6938 35.3952 24.2921 35.5953 24.9414C35.5696 24.042 35.3676 23.1565 35.0007 22.335C35.7341 22.3003 36.8044 22.4142 36.9828 22.5877C37.495 22.6008 37.9978 22.7287 38.4541 22.9619C38.9103 23.1952 39.3084 23.5279 39.6189 23.9355C39.1234 22.8057 39.0144 22.553 38.9252 22.2755C38.836 21.998 37.7409 21.2498 36.9828 20.9525C36.5533 20.8089 36.1146 20.6947 35.6697 20.6106C35.1742 20.5115 34.7728 20.4272 34.7579 20.4124C33.7478 19.0068 32.5603 17.7377 31.2249 16.6365L31.0713 16.5077L28.4599 18.8218L28.3261 18.9357C28.3261 18.8366 28.2815 18.792 28.227 18.797H28.1725H28.1477C27.8508 19.0207 27.5842 19.2823 27.3549 19.5749C27.0824 19.897 26.8197 20.2389 26.5968 20.4817L26.5423 20.5412L26.4878 20.6056L26.4283 20.67L26.3688 20.7295L26.3143 20.7939L26.2549 20.8534L26.1954 20.9178L26.1359 20.9772H26.1112C25.8104 21.2147 25.4906 21.4269 25.1548 21.6115H25.1251H25.1003H25.0755L25.026 21.6462H25.0012L24.8476 21.7849C24.8228 21.562 24.7931 21.334 24.7534 21.116V21.0714V20.9872V20.9426V20.9029C24.7237 20.7642 24.694 20.6254 24.6543 20.4966V20.457V20.4173V20.3777V20.343V20.3033V20.2687V20.234V20.1943V20.1596V20.125V20.0853V20.0556V20.0209C24.6563 20.0094 24.6563 19.9977 24.6543 19.9862V19.9515V19.9218V19.8871V19.8574V19.8227V19.7979V19.7632V19.7335L23.9408 20.0506V20.0159V19.9862H23.916V19.9614L23.8912 19.9317V19.9069L23.8665 19.8822H23.8417H23.812H23.7872H23.7426L23.698 19.9119H23.6732H23.6484H23.6237H23.5989H23.5741H23.5493H23.5246L23.48 19.9416H23.4552H23.4304H23.4056H23.3809L23.3363 19.9714L22.3452 19.2033C22.0727 18.9952 21.8497 18.8317 21.7258 18.7375H20.4722C19.8032 19.2727 19.3028 20.011 18.609 20.5462L18.5446 20.5957L18.4802 20.6453L18.4207 20.6948C15.517 23.6084 13.0394 25.536 11.3051 28.8361C11.2946 28.8459 11.2861 28.8577 11.2804 28.8708C11.1367 29.1533 10.9979 29.4506 10.874 29.7677C11.0509 29.3994 11.2633 29.0492 11.5083 28.7222C13.0394 27.6271 17.7914 23.1129 18.8122 22.776ZM34.6241 31.1502V34.4206C34.6247 34.6344 34.6396 34.848 34.6687 35.0598C34.6687 35.2333 34.7133 35.3522 34.7133 35.3522C34.7133 35.3522 34.4358 34.8864 34.1534 34.5098L31.6312 31.1502H28.1626V41.6155H31.7155V37.5077C31.7119 37.292 31.6937 37.0767 31.6609 36.8635C31.6609 36.6901 31.6163 36.5711 31.6163 36.5711C31.7596 36.8786 31.9578 37.1573 32.2011 37.3937L35.0949 41.5957H38.1819V31.1502H34.6241ZM19.5852 31.1502L15.7598 41.6254H19.6843L20.0609 40.2231H22.7664L23.143 41.6254H27.5283L23.698 31.17L19.5852 31.1502ZM20.5267 38.251L21.1758 35.3522C21.2975 34.9256 21.3934 34.492 21.4632 34.0539C21.4632 34.0539 21.4632 34.2174 21.5326 34.4652C21.602 34.713 21.6466 35.035 21.7407 35.3621L22.3056 38.2559L20.5267 38.251ZM14.9174 34.4206C14.9174 32.3642 13.2327 30.8727 9.3082 30.8777C7.85004 30.8701 6.39993 31.0943 5.01208 31.5417V41.6304H9.11991V37.2351L10.8939 41.6254H15.4724L12.9453 36.8635C13.9859 36.4869 14.9174 35.367 14.9174 34.4206ZM9.31316 36.3036H9.12982V33.0332C9.16695 32.9975 9.21157 32.9705 9.26042 32.9542C9.30928 32.938 9.36115 32.9328 9.41226 32.939C10.5321 32.939 10.7204 33.499 10.7204 34.6188C10.7155 35.5553 10.2497 36.3036 9.31316 36.3036ZM47.0517 4.09501C47.0053 4.02555 46.9522 3.96082 46.8931 3.90176C46.8564 3.87399 46.8165 3.8507 46.7742 3.83238C46.8908 3.82596 47.0013 3.77857 47.0864 3.6986C47.1198 3.6638 47.1458 3.62258 47.1628 3.57744C47.1799 3.5323 47.1876 3.48417 47.1855 3.43597C47.192 3.3539 47.1711 3.27198 47.126 3.20308C47.0907 3.1381 47.0324 3.08863 46.9625 3.06433C46.8684 3.03271 46.7692 3.01926 46.6701 3.02469H46.0161V4.49142H46.239V3.83734H46.462H46.5661C46.5988 3.84225 46.6297 3.85595 46.6553 3.87698C46.6955 3.90194 46.7294 3.93586 46.7544 3.97608C46.805 4.039 46.8513 4.10522 46.8931 4.17429L47.0864 4.48151H47.3341L47.0517 4.09501ZM46.6305 3.6986H46.239V3.20308H46.6999C46.7852 3.19411 46.8706 3.21903 46.9377 3.27245C46.9614 3.29362 46.9803 3.3196 46.9931 3.34866C47.0059 3.37771 47.0124 3.40917 47.012 3.44093C47.0104 3.48817 46.9968 3.53422 46.9724 3.57472C46.9435 3.61453 46.904 3.64544 46.8584 3.66391C46.7849 3.68793 46.7079 3.69964 46.6305 3.6986ZM47.5769 2.76702C47.3808 2.57113 47.1311 2.43775 46.8592 2.38373C46.5873 2.32971 46.3055 2.35748 46.0494 2.46353C45.7933 2.56958 45.5744 2.74914 45.4203 2.97955C45.2662 3.20996 45.1838 3.48087 45.1836 3.75806C45.1825 3.94189 45.2179 4.12411 45.2876 4.29421C45.3574 4.4643 45.4601 4.6189 45.5899 4.74909C45.8556 4.99763 46.2075 5.13318 46.5713 5.12712C46.935 5.12105 47.2822 4.97385 47.5395 4.71659C47.7967 4.45932 47.9439 4.11215 47.95 3.74838C47.9561 3.38461 47.8205 3.03272 47.572 2.76702H47.5769ZM47.453 4.63017C47.2805 4.80061 47.0616 4.91644 46.8237 4.96318C46.5857 5.00993 46.3393 4.98552 46.1151 4.893C45.891 4.80048 45.699 4.64396 45.5633 4.44299C45.4276 4.24201 45.3541 4.00551 45.3521 3.76301C45.3511 3.55956 45.4005 3.35903 45.4959 3.17929C45.5912 2.99955 45.7295 2.84617 45.8985 2.73281C46.0674 2.61946 46.2618 2.54964 46.4642 2.52959C46.6667 2.50953 46.871 2.53985 47.0589 2.61785C47.2468 2.69585 47.4125 2.81911 47.5413 2.97665C47.67 3.1342 47.7578 3.32113 47.7968 3.52081C47.8358 3.7205 47.8249 3.92673 47.7649 4.12114C47.7049 4.31556 47.5978 4.49213 47.453 4.63512V4.63017ZM46.8931 3.8968C46.8564 3.86904 46.8165 3.84575 46.7742 3.82743C46.8901 3.82236 47.0006 3.77677 47.0864 3.6986C47.1198 3.6638 47.1458 3.62258 47.1628 3.57744C47.1799 3.5323 47.1876 3.48417 47.1855 3.43597C47.192 3.3539 47.1711 3.27198 47.126 3.20308C47.0907 3.1381 47.0324 3.08863 46.9625 3.06433C46.8684 3.03271 46.7692 3.01926 46.6701 3.02469H46.0161V4.49142H46.239V3.83734H46.462H46.5661C46.5988 3.84225 46.6297 3.85595 46.6553 3.87698C46.6955 3.90194 46.7294 3.93586 46.7544 3.97608C46.805 4.039 46.8513 4.10522 46.8931 4.17429L47.0864 4.48151H47.3341L47.0765 4.08014C47.0217 4.01295 46.9603 3.95152 46.8931 3.8968ZM46.6305 3.6986H46.239V3.20308H46.6999C46.7852 3.19411 46.8706 3.21903 46.9377 3.27245C46.9614 3.29362 46.9803 3.3196 46.9931 3.34866C47.0059 3.37771 47.0124 3.40917 47.012 3.44093C47.0104 3.48817 46.9968 3.53422 46.9724 3.57472C46.9435 3.61453 46.904 3.64544 46.8584 3.66391C46.7849 3.68793 46.7079 3.69964 46.6305 3.6986ZM47.0517 4.11483C47.0053 4.04537 46.9522 3.98064 46.8931 3.92158C46.8564 3.89381 46.8165 3.87052 46.7742 3.85221C46.8934 3.84042 47.0043 3.78585 47.0864 3.6986C47.1198 3.6638 47.1458 3.62258 47.1628 3.57744C47.1799 3.5323 47.1876 3.48417 47.1855 3.43597C47.192 3.3539 47.1711 3.27198 47.126 3.20308C47.0907 3.1381 47.0324 3.08863 46.9625 3.06433C46.8684 3.03271 46.7692 3.01926 46.6701 3.02469H46.0161V4.49142H46.239V3.83734H46.462H46.5661C46.5988 3.84225 46.6297 3.85595 46.6553 3.87698C46.6955 3.90194 46.7294 3.93586 46.7544 3.97608C46.805 4.039 46.8513 4.10522 46.8931 4.17429L47.0864 4.48151H47.3341L47.0517 4.11483ZM46.6305 3.6986H46.239V3.20308H46.6999C46.7852 3.19411 46.8706 3.21903 46.9377 3.27245C46.9614 3.29362 46.9803 3.3196 46.9931 3.34866C47.0059 3.37771 47.0124 3.40917 47.012 3.44093C47.0104 3.48817 46.9968 3.53422 46.9724 3.57472C46.9435 3.61453 46.904 3.64544 46.8584 3.66391C46.7849 3.68793 46.7079 3.69964 46.6305 3.6986ZM60.9608 22.5282C60.165 22.7152 59.3503 22.81 58.5328 22.8107C58.3445 22.8107 58.4436 22.6224 58.3445 22.6224C57.4321 22.5937 56.5253 22.4691 55.639 22.2507C55.4507 22.2507 55.7331 21.9683 55.5448 21.9683C54.8908 21.6858 54.1425 21.5025 53.3943 21.2201C53.206 21.2201 53.3943 21.0367 53.3051 21.0367C52.8157 20.9042 52.3194 20.7983 51.8186 20.7196C52.077 20.4651 52.3218 20.1972 52.5519 19.9168C52.651 19.7285 51.9969 19.6344 52.0861 19.4213C52.9168 18.4728 53.6959 17.4804 54.42 16.4482C54.5142 16.1658 53.8601 16.4482 53.9542 16.2599C54.6318 15.2651 55.2554 14.2346 55.8223 13.1729C55.9115 12.9846 55.4457 12.9846 55.5399 12.8012C56.1018 11.7541 56.571 10.6598 56.9422 9.53082C57.0314 9.24838 56.2881 9.71912 56.3773 9.43667C56.7539 8.31681 57.408 7.00864 57.6855 5.88878C57.7796 5.70048 57.403 5.79463 57.403 5.60633C57.7747 4.29817 57.7747 2.99001 57.963 1.6868C57.2918 2.65391 56.4364 3.47902 55.4457 4.11483C55.3466 4.20402 55.2574 3.92653 55.0691 4.02068C54.0686 4.78862 52.9684 5.41707 51.7987 5.88878C51.6154 5.98293 51.7046 5.51714 51.5212 5.61129C50.5847 5.89373 49.5392 6.26537 48.5481 6.63701C48.2657 6.73116 48.454 6.44871 48.1716 6.44871C47.0517 6.94423 45.5602 7.85598 44.3412 8.32176C44.252 8.32176 44.252 7.76183 44.0637 7.85598L43.8259 7.95508C43.8754 7.24154 43.8754 6.46853 43.8754 5.79958C43.8754 5.61624 43.5038 6.08203 43.4988 5.89373C43.5484 4.96117 43.5484 4.02663 43.4988 3.09407C43.4988 2.90577 43.2213 3.09406 43.2213 2.99496C43.0622 2.05902 42.8387 1.13517 42.5524 0.22998C42.3298 1.04531 41.9474 1.8083 41.4276 2.47467C41.4276 2.56386 41.2442 2.47467 41.2442 2.56386C40.6843 3.2229 40.1244 4.05041 39.4703 4.71936C39.282 4.80855 39.282 4.43691 39.0986 4.53106C38.5585 4.98198 38.0184 5.5221 37.399 6.0523C32.2081 3.68342 26.3895 3.06001 20.8145 4.27542C15.2396 5.49084 10.2084 8.47966 6.47463 12.7943C2.74081 17.1089 0.505283 22.517 0.102871 28.2087C-0.299542 33.9003 1.15282 39.5692 4.24243 44.3662C7.33203 49.1633 11.8926 52.8302 17.2411 54.818C22.5895 56.8057 28.438 57.0072 33.9106 55.3922C39.3832 53.7773 44.1853 50.4328 47.5977 45.8598C51.0101 41.2867 52.8491 35.7313 52.8393 30.0254C52.8393 29.6785 52.8393 29.3317 52.8393 28.9848C53.4884 28.7321 54.2169 28.5487 54.8214 28.2465C54.9106 28.1573 54.6331 27.964 54.8214 27.8748C55.5647 27.4982 56.3079 27.0325 57.0611 26.5667C57.1553 26.4725 56.5953 26.3784 56.7787 26.2842C57.4327 25.8184 58.3693 25.3527 59.0234 24.7977C59.2067 24.6986 58.9292 24.6094 59.0234 24.5152C59.7161 23.9004 60.3636 23.2363 60.9608 22.5282ZM51.3329 8.44564C51.3352 8.46208 51.3352 8.47876 51.3329 8.49519C51.2883 8.3069 51.2784 8.23257 51.3329 8.44564ZM34.8025 10.6953L34.7777 10.6556C34.7777 10.6556 34.7926 10.6804 34.8025 10.6953ZM27.6919 6.83521L28.6829 6.969L29.9712 12.2463L28.6779 12.0679L28.445 10.9827L26.8445 10.7647L26.3143 11.7557L25.0359 11.5823L27.6919 6.83521ZM21.2501 7.07802L23.5543 9.81822L23.1232 6.82035L24.2678 6.67169L24.9566 11.6814L23.9111 11.8251L21.5722 9.06504L22.0132 12.0827L20.8537 12.2413L20.1699 7.23658L21.2501 7.07802ZM14.5607 10.0759C14.6827 9.75281 14.8671 9.45692 15.1035 9.20512C15.3399 8.95332 15.6235 8.75054 15.9382 8.60836C16.253 8.46618 16.5926 8.38739 16.9378 8.37647C17.283 8.36555 17.6269 8.42274 17.95 8.54475C18.2731 8.66676 18.569 8.85121 18.8208 9.08757C19.0726 9.32393 19.2754 9.60757 19.4175 9.9223C19.5597 10.237 19.6385 10.5767 19.6494 10.9219C19.6603 11.267 19.6032 11.611 19.4812 11.9341C19.297 12.4211 18.9724 12.8423 18.5483 13.1444C18.1243 13.4465 17.62 13.6157 17.0996 13.6305C16.5792 13.6454 16.0661 13.5053 15.6255 13.2279C15.1849 12.9506 14.8367 12.5485 14.6251 12.0728C14.4755 11.763 14.3921 11.4255 14.3802 11.0817C14.3682 10.7379 14.428 10.3953 14.5557 10.0759H14.5607ZM9.18928 13.272L12.1376 14.9716L10.8195 11.835L11.984 10.8093L15.3238 14.6L14.4418 15.373L12.5687 13.2422C12.5291 13.2026 12.4993 13.163 12.4646 13.1233L13.6539 16.0865L13.0394 16.6217L10.2645 15.0608C10.2992 15.1004 10.3389 15.1401 10.3686 15.1797L12.2466 17.3104L11.3695 18.0686L8.02977 14.2729L9.18928 13.272ZM4.0805 20.5462L4.9873 20.8583L7.22703 23.5192L7.80679 21.8345L8.45096 22.0575L5.47786 18.0042L6.00806 17.1717L11.3448 18.1627L10.656 19.2578L9.57083 19.0249L8.71358 20.3925L9.38748 21.2746L8.82755 22.1615H8.86224L7.80679 25.2238L6.9545 24.9315L4.67017 22.2606L4.12015 23.8859L3.05479 23.5192L4.0805 20.5462ZM44.257 43.1566C42.6329 43.2278 41.0413 42.6867 39.7973 41.6403C39.7081 41.7443 39.6189 41.8434 39.5248 41.9425L38.4991 42.9782C35.231 46.0039 30.9414 47.6847 26.4878 47.6847C22.0341 47.6847 17.7445 46.0039 14.4764 42.9782H3.65932V41.6304V31.5417V30.5506L4.59584 30.2434C5.34197 29.9955 6.10783 29.8115 6.88513 29.6934C7.54156 29.5936 8.20348 29.534 8.86719 29.515C8.97715 26.5043 9.85486 23.5716 11.417 20.9955C12.9791 18.4194 15.1737 16.2854 17.7926 14.796C20.4114 13.3066 23.3675 12.5113 26.3801 12.4857C29.3927 12.4601 32.3619 13.2049 35.0057 14.6495V14.6049V14.5653V14.5256V14.486L34.9759 14.4017V14.377V14.3373V14.2977V14.2481V14.2085V14.1738V14.1044V14.0648V14.0301V13.9954V13.9607V13.9261V13.8864V13.8567V13.817V13.7873V13.7427V13.713V13.5098V13.485V13.4404V13.4157V13.3909V13.3661V13.3413V13.3166V13.2918V13.2522L34.3466 13.1134V13.0886V13.0639V13.0391V13.0143V12.9747V12.935V12.9102V12.8855V12.8508V12.826V12.8012V12.7765V12.7517V12.7269V12.7021V12.6774V12.6526L34.3863 12.6922L34.416 12.717L34.4457 12.7467C34.4435 12.7582 34.4435 12.77 34.4457 12.7814L34.4854 12.8211V12.8458V12.8706V12.8954V12.9202V12.9449V12.9697V12.9994L34.3466 12.6179V12.6427V12.6674V12.6922V12.7219V12.7517V12.7864V12.8211V12.8557L34.3764 12.8904L34.4011 12.9301C34.8669 13.6733 35.2039 14.4711 35.4962 14.8874L35.5408 14.9518L35.8976 15.1748C35.9967 15.1748 36.0958 15.0757 36.1999 14.8973C36.1999 14.8973 36.1999 14.8626 36.1999 14.8477C36.3889 14.5093 36.4959 14.1313 36.5122 13.744C36.5286 13.3567 36.4539 12.971 36.294 12.6179C35.7841 12.0519 35.3123 11.4527 34.8818 10.8241C35.402 11.3814 35.8744 11.9814 36.294 12.6179C36.8391 13.1976 37.3643 13.5742 37.513 13.1134C37.8846 11.9935 37.1364 10.502 36.4823 9.56551C35.8282 8.62898 38.1671 11.4336 38.6329 10.7795C38.8453 10.5083 38.9819 10.1857 39.029 9.84445C39.076 9.50321 39.0316 9.15561 38.9004 8.8371C38.4049 8.20284 37.9986 7.21676 38.4446 7.88075C38.6422 8.17568 38.7958 8.49785 38.9004 8.8371C39.2572 9.2682 39.6734 9.53082 39.941 9.00558C39.9468 8.98241 39.9569 8.96055 39.9708 8.94116C39.9781 8.92257 39.9863 8.90438 39.9955 8.88665V8.8371C39.9974 8.81898 39.9974 8.80071 39.9955 8.78259V8.72809C39.9976 8.70997 39.9976 8.69169 39.9955 8.67358V8.62403C39.9967 8.60753 39.9967 8.59097 39.9955 8.57448V8.52492C40 8.5087 40 8.49159 39.9955 8.47537C39.9955 8.47537 39.9955 8.44069 39.9955 8.42582C39.9955 8.42582 39.9955 8.39114 39.9955 8.38122V8.33663C39.9977 8.32351 39.9977 8.31011 39.9955 8.29699C39.9955 8.29699 39.9955 8.26726 39.9955 8.25239C39.9933 8.23595 39.9933 8.21928 39.9955 8.20284C39.9966 8.18799 39.9966 8.17309 39.9955 8.15824V8.11365C39.9955 8.11365 39.9955 8.11365 39.9955 8.074C39.9955 8.074 39.9955 8.074 39.9955 8.03932V7.86589V7.82129C39.9932 7.81152 39.9932 7.80133 39.9955 7.79156V7.62804C39.9052 7.27267 39.7508 6.9368 39.5397 6.63701C39.2572 6.07707 40.2829 7.85102 40.4712 7.0136C40.7884 6.21086 41.5267 5.92842 40.7884 5.18514C40.1343 4.53106 41.3483 5.74012 41.6307 4.7144C41.9132 3.68868 41.9082 3.02965 41.6307 2.84631C41.3384 2.56386 42.2749 3.4112 42.2749 3.02965C42.2749 2.56386 42.5524 0.884062 42.5524 0.884062C42.5524 1.10704 42.5524 1.33003 42.5524 1.55796C42.5524 3.54003 41.8537 5.75003 40.833 7.96004C39.5455 10.5814 38.1129 13.1291 36.5418 15.591C37.0731 15.954 37.5827 16.3478 38.068 16.7703L38.3653 14.9865V17.0082C38.6956 17.3385 39.026 17.6689 39.3563 17.9992C39.3522 16.6987 39.1959 15.4032 38.8905 14.1391C39.7081 16.4036 39.837 18.0537 40.0649 18.797C40.1838 18.9456 40.3027 19.0893 40.4167 19.238C40.5469 19.2237 40.6696 19.1701 40.7685 19.0844C41.7001 18.4303 41.3235 13.6684 41.1352 12.6427C42.3542 15.1648 41.4177 19.3668 43.2858 17.4095C43.6197 17.0312 43.8611 16.5805 43.9909 16.0929C44.1208 15.6053 44.1355 15.0942 44.034 14.6C43.6485 13.6164 43.3176 12.6123 43.043 11.5922C43.0052 11.5082 42.9721 11.4222 42.9439 11.3345V11.2949C42.982 11.3922 43.0151 11.4914 43.043 11.5922C43.504 12.5469 43.8372 13.5582 44.034 14.6C44.4403 15.591 44.8962 16.255 45.248 15.7396C46.2737 14.5207 46.0854 12.271 45.7138 10.6903C45.6799 10.5963 45.6518 10.5003 45.6296 10.4029C45.6642 10.4029 46.9724 13.8715 47.8594 13.376C48.236 13.1149 48.5461 12.7691 48.7647 12.3663C48.9832 11.9635 49.1043 11.5151 49.118 11.057C48.7216 10.0016 48.6968 8.47537 48.9792 9.54569C49.1106 10.038 49.1576 10.549 49.118 11.057C49.3757 11.7557 49.7919 12.2512 50.3816 11.6962C51.7145 10.3633 51.5212 9.3673 51.3429 8.5497C51.4915 9.04522 51.8731 10.0858 52.2496 9.4565C52.8096 8.61412 53.8403 8.42582 53.2754 7.30595C52.7154 6.09194 53.7411 8.14833 54.5835 7.02351C55.4259 5.80949 55.7034 4.96712 55.4259 4.59548C55.4244 4.58065 55.4244 4.56571 55.4259 4.55088C55.5002 4.67476 56.0403 5.6212 56.194 5.15541C56.6137 4.26107 57.0801 3.38941 57.5913 2.54404C56.6449 5.78472 54.0632 8.87179 50.9415 11.7557C47.8197 14.6396 44.1529 17.3302 41.0312 19.788H41.0064L40.9073 19.8623C41.2195 20.2934 41.5069 20.7444 41.7794 21.2052V21.23C41.8884 21.4232 41.9974 21.6214 42.0965 21.8147C42.1461 21.9039 42.1907 21.9931 42.2353 22.0823C42.3245 22.2606 42.4136 22.4489 42.4979 22.6372V22.662V22.7215V22.7512V22.7809V22.8107V22.8404V22.8652V22.8949V22.9246V22.9494V22.9791C42.6862 23.4251 42.8547 23.876 42.9934 24.3418V24.3666V24.4112C43.033 24.5301 43.0628 24.6441 43.0975 24.758C43.3484 25.6132 43.5339 26.4862 43.6524 27.3694C43.7169 27.7956 43.7565 28.2267 43.7813 28.6677V28.7816V28.9253V29.1087V29.178H44.5592H44.6137H44.7475H44.9259H45.0002L45.1539 29.2028H45.1836H45.243H45.3124H45.3867H45.4462H45.5007H45.5354H45.5701H45.6196H45.6791H45.7485H45.8129H45.8674H45.9021H45.9715H46.026H46.0904H46.1548H46.2143H46.2589H46.2935H46.3233H46.3679L46.4224 29.2276H46.4868L46.5463 29.2524L46.6206 29.2871H46.6553H46.6949H46.7445L46.8039 29.3168L46.8634 29.3465L46.9129 29.3763H46.9476H46.9823H47.0269L47.0765 29.4109L47.126 29.4456L47.1756 29.4754H47.2152H47.2449H47.2846L47.3242 29.5051L47.3738 29.5398L47.4283 29.5794L47.4679 29.6091L47.5076 29.6339H47.5373L47.5769 29.6587L47.6215 29.6934C47.8148 29.8471 47.9985 30.0126 48.1716 30.1889C49.0946 30.9241 49.8215 31.8762 50.2875 32.9603C50.7535 34.0444 50.9441 35.227 50.8424 36.4027C50.8424 40.0001 48.8455 43.1566 44.257 43.1566ZM50.0892 22.3449V22.3895V22.4192L49.9752 22.3449V22.3003V22.2507V22.2111H50.005L50.0892 22.3449ZM52.4181 25.318C51.0555 25.4518 49.6432 25.5211 48.2508 25.5608H47.2846C47.3985 25.4914 47.5026 25.4171 47.6067 25.3428C47.7107 25.2684 47.6612 25.2288 47.6067 25.1495L47.7603 25.0999C47.8334 25.0737 47.9046 25.0422 47.9733 25.0058H48.0031H48.0328H48.0625L48.1716 24.9265H48.2013L48.2806 24.8621H48.3103H48.34V24.8373L48.3698 24.8125L48.4193 24.758H48.4441H48.4738V24.7283V24.6986L48.4986 24.6688V24.6391V24.6143V24.5846L48.5234 24.5549V24.5251V24.4954V24.4657L48.5481 24.436V24.4062V24.3765V24.3517V24.322C48.7612 24.1684 48.9594 24.0098 49.1378 23.8562V23.9949V24.0296V24.208V24.2427V25.0603V25.0999C49.1351 25.1296 49.1351 25.1595 49.1378 25.1891V25.2337V25.2684V25.3031V25.3328C49.1481 25.3557 49.1633 25.376 49.1824 25.3923H49.2121H49.2419H49.6928H49.7275H49.8068H49.8414H49.9108H49.9405H49.9703H50H50.0248H50.0595H50.0892H50.114H50.1437L50.1734 25.3675H50.2081H50.2379V25.3428H50.2676L50.2924 25.313H50.3221L50.3518 25.2833L50.3766 25.2536V25.2238V25.199V25.1693V25.1396V25.1099V25.0553V25.0256V24.9959V24.9662V24.9364V24.9017C50.6442 24.2972 50.9762 23.8463 50.7086 24.4062C50.6311 24.6215 50.5332 24.8289 50.4162 25.0256V25.0653V25.1049V25.1396V25.1743H50.3915V25.2139V25.2387V25.2783V25.3081V25.3428V25.3973V25.4419V25.5509V25.6054V25.8036C50.3915 25.8036 50.3915 25.8333 50.3915 25.8482V25.8878V25.9275V25.9572C50.3915 25.9572 50.3915 25.9572 50.3915 25.9869V26.0167H50.4212H50.4559H50.4906H50.5302H50.6244H50.8226C51.2485 25.9817 51.6547 25.8221 51.9904 25.5577C52.3262 25.2933 52.5766 24.9359 52.7105 24.5301C52.9929 24.0643 52.1505 25.8383 52.8046 25.5608C53.5529 25.2783 54.1128 25.65 54.3952 24.7184C54.5786 23.7819 54.2069 25.4617 55.2327 25.1842C56.1395 24.8522 56.6102 24.5945 56.7688 24.2873C56.7688 24.1139 56.8183 23.9999 56.8183 24.1535C56.807 24.1999 56.7904 24.2448 56.7688 24.2873C56.7688 24.5351 56.7688 24.9216 56.9174 24.8076C57.5474 24.4553 58.1996 24.1441 58.8697 23.876C58.404 24.3418 55.5201 25.0058 52.4132 25.313L52.4181 25.318ZM44.257 30.8678C40.61 30.8678 39.0243 33.3949 39.0293 36.3829C39.0293 39.2767 40.6199 41.7988 44.2619 41.7988C47.904 41.7988 49.4797 39.2767 49.4797 36.4027C49.4748 33.3899 47.8891 30.8678 44.257 30.8678ZM44.257 39.0884C43.4146 39.0884 43.3204 37.6861 43.3204 36.1946C43.3204 34.7922 43.4096 33.2958 44.252 33.2958C45.0944 33.2958 45.1885 34.7823 45.1885 36.1896C45.1836 37.6861 45.0894 39.0884 44.257 39.0884ZM39.6487 23.9355C39.1532 22.8057 39.0441 22.553 38.9549 22.2755C38.8658 21.998 37.7707 21.2498 37.0125 20.9525C36.5831 20.8089 36.1444 20.6947 35.6994 20.6106C35.2039 20.5115 34.8025 20.4272 34.7877 20.4124C33.7776 19.0068 32.59 17.7377 31.2546 16.6365L31.101 16.5077L28.4896 18.8218L28.3559 18.9357C28.3559 18.8366 28.3113 18.792 28.2567 18.797H28.2022H28.1775C27.8805 19.0207 27.614 19.2823 27.3846 19.5749C27.1121 19.897 26.8495 20.2389 26.6265 20.4817L26.572 20.5412L26.5175 20.6056L26.458 20.67L26.3986 20.7295L26.3441 20.7939L26.2846 20.8534L26.2251 20.9178L26.1657 20.9772H26.1409C25.8402 21.2147 25.5203 21.4269 25.1845 21.6115H25.1548H25.13H25.1053L25.0557 21.6462H25.0309L24.8773 21.7849C24.8525 21.562 24.8228 21.334 24.7832 21.116V21.0714V20.9872V20.9426V20.9029C24.7534 20.7642 24.7237 20.6254 24.6841 20.4966V20.457V20.4173V20.3777V20.343V20.3033V20.2687V20.234V20.1943V20.1596V20.125V20.0853V20.0556V20.0209C24.686 20.0094 24.686 19.9977 24.6841 19.9862V19.9515V19.9218V19.8871V19.8574V19.8227V19.7979V19.7632V19.7335L23.9408 20.0506V20.0159V19.9862H23.916V19.9614L23.8912 19.9317V19.9069L23.8665 19.8822H23.8417H23.812H23.7872H23.7426L23.698 19.9119H23.6732H23.6484H23.6237H23.5989H23.5741H23.5493H23.5246L23.48 19.9416H23.4552H23.4304H23.4056H23.3809L23.3363 19.9714L22.3452 19.2033C22.0727 18.9952 21.8497 18.8317 21.7258 18.7375H20.4722C19.8032 19.2727 19.3028 20.011 18.609 20.5462L18.5446 20.5957L18.4802 20.6453L18.4207 20.6948C15.517 23.6084 13.0394 25.536 11.3051 28.8361C11.2946 28.8459 11.2861 28.8577 11.2804 28.8708C11.1367 29.1533 10.9979 29.4506 10.874 29.7677C11.0509 29.3994 11.2633 29.0492 11.5083 28.7222C13.0295 27.6271 17.7914 23.1129 18.8122 22.776C19.4068 22.5877 19.9568 21.0565 20.3979 21.5372C21.6961 22.9544 22.7565 21.1903 23.1628 21.5075C23.3759 21.6759 23.5047 22.2606 23.4056 23.0436C23.1834 23.6679 22.9065 24.2715 22.5781 24.8472C23.2223 24.2179 23.5692 23.7075 24.139 23.1476C24.5602 22.7363 25.13 22.3845 25.6256 21.9831C25.8684 21.8097 26.1211 21.6363 26.3292 21.4579C27.9842 20.1596 29.7978 19.2083 31.0168 19.1983C31.8195 19.1983 32.2011 22.3498 32.8006 22.5381C33.7124 22.8206 34.2872 23.0336 34.6043 23.1873C35.0571 23.6938 35.3952 24.2921 35.5953 24.9414C35.5696 24.042 35.3676 23.1565 35.0007 22.335C35.7341 22.3003 36.8044 22.4142 36.9828 22.5877C37.4993 22.5971 38.0069 22.7232 38.4677 22.9566C38.9285 23.19 39.3306 23.5247 39.6437 23.9355H39.6487ZM34.6241 31.1502V34.4206C34.6247 34.6344 34.6396 34.848 34.6687 35.0598C34.6687 35.2333 34.7133 35.3522 34.7133 35.3522C34.7133 35.3522 34.4358 34.8864 34.1534 34.5098L31.6312 31.1502H28.1626V41.6155H31.7155V37.5077C31.7119 37.292 31.6937 37.0767 31.6609 36.8635C31.6609 36.6901 31.6163 36.5711 31.6163 36.5711C31.7596 36.8786 31.9578 37.1573 32.2011 37.3937L35.0949 41.5957H38.1819V31.1502H34.6241ZM27.9545 8.56952L27.35 9.76867L28.2072 9.88264L27.9545 8.56952ZM19.5852 31.1601L15.7598 41.6254H19.6843L20.0609 40.2231H22.7664L23.143 41.6254H27.5283L23.698 31.17L19.5852 31.1601ZM20.5267 38.2609L21.1758 35.3621C21.2978 34.9322 21.3938 34.4954 21.4632 34.0539C21.4632 34.0539 21.4632 34.2174 21.5326 34.4652C21.602 34.713 21.6466 35.035 21.7407 35.3621L22.3056 38.2559L20.5267 38.2609ZM16.5328 12.3652C16.7058 12.4416 16.8929 12.4807 17.082 12.4801C17.2711 12.4795 17.458 12.439 17.6304 12.3615C17.8029 12.2839 17.9571 12.1709 18.083 12.0298C18.2089 11.8887 18.3037 11.7227 18.3613 11.5426C18.4802 11.1693 18.45 10.7644 18.277 10.4128C18.129 10.0643 17.8495 9.78832 17.4991 9.64479C17.3275 9.57175 17.1426 9.53525 16.9561 9.53763C16.7696 9.54 16.5857 9.58119 16.416 9.65857C16.2463 9.73596 16.0946 9.84784 15.9705 9.98708C15.8465 10.1263 15.7528 10.2899 15.6954 10.4673C15.5678 10.8298 15.5856 11.2276 15.745 11.5773C15.8955 11.9321 16.178 12.2146 16.5328 12.3652ZM14.9174 34.4206C14.9174 32.3642 13.2327 30.8727 9.3082 30.8777C7.85004 30.8701 6.39993 31.0943 5.01208 31.5417V41.6304H9.11991V37.2351L10.8939 41.6254H15.4724L12.9453 36.8635C13.9859 36.4869 14.9174 35.367 14.9174 34.4206ZM9.31316 36.3036H9.12982V33.0332C9.16695 32.9975 9.21157 32.9705 9.26042 32.9542C9.30928 32.938 9.36115 32.9328 9.41226 32.939C10.5321 32.939 10.7204 33.499 10.7204 34.6188C10.7155 35.5553 10.2497 36.3036 9.31316 36.3036ZM7.17748 18.465L8.01986 19.5105L8.48069 18.7772L7.17748 18.465ZM27.9545 8.55466L27.35 9.7538L28.2072 9.86777L27.9545 8.55466ZM18.277 10.4128C18.129 10.0643 17.8495 9.78832 17.4991 9.64479C17.3275 9.57175 17.1426 9.53525 16.9561 9.53763C16.7696 9.54 16.5857 9.58119 16.416 9.65857C16.2463 9.73596 16.0946 9.84784 15.9705 9.98708C15.8465 10.1263 15.7528 10.2899 15.6954 10.4673C15.5678 10.8298 15.5856 11.2276 15.745 11.5773C15.8991 11.9377 16.1894 12.2227 16.5527 12.3701C16.7256 12.4465 16.9127 12.4857 17.1018 12.4851C17.2909 12.4844 17.4778 12.444 17.6502 12.3664C17.8227 12.2888 17.9769 12.1758 18.1028 12.0348C18.2287 11.8937 18.3235 11.7277 18.3811 11.5476C18.4953 11.1702 18.4579 10.7632 18.277 10.4128ZM7.17748 18.46L8.01986 19.5056L8.48069 18.7722L7.17748 18.46ZM27.9545 8.5497L27.35 9.74885L28.2072 9.86282L27.9545 8.5497ZM18.277 10.4128C18.129 10.0643 17.8495 9.78832 17.4991 9.64479C17.3275 9.57175 17.1426 9.53525 16.9561 9.53763C16.7696 9.54 16.5857 9.58119 16.416 9.65857C16.2463 9.73596 16.0946 9.84784 15.9705 9.98708C15.8465 10.1263 15.7528 10.2899 15.6954 10.4673C15.5678 10.8298 15.5856 11.2276 15.745 11.5773C15.8991 11.9377 16.1894 12.2227 16.5527 12.3701C16.7256 12.4465 16.9127 12.4857 17.1018 12.4851C17.2909 12.4844 17.4778 12.444 17.6502 12.3664C17.8227 12.2888 17.9769 12.1758 18.1028 12.0348C18.2287 11.8937 18.3235 11.7277 18.3811 11.5476C18.4953 11.1702 18.4579 10.7632 18.277 10.4128ZM7.17748 18.46L8.01986 19.5056L8.48069 18.7722L7.17748 18.46ZM38.95 22.2755C38.8658 21.9881 37.7657 21.2498 37.0076 20.9525C36.5781 20.8089 36.1394 20.6947 35.6945 20.6106C35.1989 20.5115 34.7976 20.4272 34.7827 20.4124C33.7726 19.0068 32.5851 17.7377 31.2497 16.6365L31.0961 16.5077L28.4847 18.8218L28.3509 18.9357C28.3509 18.8366 28.3063 18.792 28.2518 18.797H28.1973H28.1725C27.8755 19.0207 27.609 19.2823 27.3797 19.5749C27.1071 19.897 26.8445 20.2389 26.6215 20.4817L26.567 20.5412L26.5125 20.6056L26.4531 20.67L26.3936 20.7295L26.3391 20.7939L26.2796 20.8534L26.2202 20.9178L26.1607 20.9772H26.1359C25.8352 21.2147 25.5153 21.4269 25.1796 21.6115H25.1499H25.1251H25.1003L25.0508 21.6462H25.026L24.8724 21.7849C24.8476 21.562 24.8179 21.334 24.7782 21.116V21.0714V20.9872V20.9426V20.9029C24.7485 20.7642 24.7188 20.6254 24.6791 20.4966V20.457V20.4173V20.3777V20.343V20.3033V20.2687V20.234V20.1943V20.1596V20.125V20.0853V20.0556V20.0209C24.6811 20.0094 24.6811 19.9977 24.6791 19.9862V19.9515V19.9218V19.8871V19.8574V19.8227V19.7979V19.7632V19.7335L23.9408 20.0506V20.0159V19.9862H23.916V19.9614L23.8912 19.9317V19.9069L23.8665 19.8822H23.8417H23.812H23.7872H23.7426L23.698 19.9119H23.6732H23.6484H23.6237H23.5989H23.5741H23.5493H23.5246L23.48 19.9416H23.4552H23.4304H23.4056H23.3809L23.3363 19.9714L22.3452 19.2033C22.0727 18.9952 21.8497 18.8317 21.7258 18.7375H20.4722C19.8032 19.2727 19.3028 20.011 18.609 20.5462L18.5446 20.5957L18.4802 20.6453L18.4207 20.6948C15.517 23.6084 13.0394 25.536 11.3051 28.8361C11.2946 28.8459 11.2861 28.8577 11.2804 28.8708C11.1367 29.1533 10.9979 29.4506 10.874 29.7677C11.0509 29.3994 11.2633 29.0492 11.5083 28.7222C13.0295 27.6271 17.7914 23.1129 18.8122 22.776C19.4068 22.5877 19.9568 21.0565 20.3979 21.5372C21.6961 22.9544 22.7565 21.1903 23.1628 21.5075C23.3759 21.6759 23.5047 22.2606 23.4056 23.0436C23.1834 23.6679 22.9065 24.2715 22.5781 24.8472C23.2223 24.2179 23.5692 23.7075 24.139 23.1476C24.5602 22.7363 25.13 22.3845 25.6256 21.9831C25.8684 21.8097 26.1211 21.6363 26.3292 21.4579C27.9842 20.1596 29.7978 19.2083 31.0168 19.1983C31.8195 19.1983 32.2011 22.3498 32.8006 22.5381C33.7124 22.8206 34.2872 23.0336 34.6043 23.1873C35.0571 23.6938 35.3952 24.2921 35.5953 24.9414C35.5696 24.042 35.3676 23.1565 35.0007 22.335C35.7341 22.3003 36.8044 22.4142 36.9828 22.5877C37.495 22.6008 37.9978 22.7287 38.4541 22.9619C38.9103 23.1952 39.3084 23.5279 39.6189 23.9355C39.1482 22.8057 39.0392 22.553 38.95 22.2755Z" fill="white"/>
</svg>
