<svg width="76" height="90" viewBox="0 0 76 90" fill="none" xmlns="http://www.w3.org/2000/svg">
<path d="M20.8274 0.387817C20.0907 0.387817 19.4938 0.971811 19.4938 1.69215V19.9533H15.9685V1.69215C15.9685 0.971811 15.3716 0.387817 14.6349 0.387817C13.8982 0.387817 13.3012 0.971811 13.3012 1.69215V19.9533H9.85456V1.69215C9.85456 0.971811 9.25762 0.387817 8.52092 0.387817C7.78422 0.387817 7.18728 0.971811 7.18728 1.69215V19.9533H3.65508V1.69215C3.65508 0.971811 3.05814 0.387817 2.32144 0.387817C1.58473 0.387817 0.987793 0.971811 0.987793 1.69215V28.5454C0.987793 31.3196 2.51633 33.9005 4.97663 35.2808L7.18728 36.5211V44.5207C6.29658 45.5391 5.79531 46.8502 5.79531 48.1991V49.5345C5.79531 50.3438 6.08195 51.0886 6.56082 51.6773C6.08178 52.266 5.79531 53.0109 5.79531 53.8201V74.2243C5.79531 74.9447 6.39225 75.5287 7.12895 75.5287C7.86566 75.5287 8.4626 74.9447 8.4626 74.2243V53.8199C8.4626 53.3576 8.84722 52.9815 9.31986 52.9815H13.829C14.3016 52.9815 14.6861 53.3576 14.6861 53.8199V83.7357C14.6861 85.4138 13.29 86.7792 11.5743 86.7792C9.85848 86.7792 8.46242 85.4138 8.46242 83.7357V80.2973C8.46242 79.577 7.86548 78.993 7.12878 78.993C6.39207 78.993 5.79513 79.577 5.79513 80.2973V83.7357C5.79513 86.8522 8.38756 89.3878 11.5743 89.3878C14.7609 89.3878 17.3534 86.8522 17.3534 83.7357V53.8199C17.3534 53.0107 17.0667 52.2658 16.5879 51.6771C17.0669 51.0884 17.3534 50.3436 17.3534 49.5344V48.1989C17.3534 46.8539 16.8544 45.5456 15.9683 44.5283V36.5206L18.1754 35.281C20.6336 33.9001 22.1607 31.32 22.1607 28.5475L22.1611 1.69215C22.1611 0.971811 21.5639 0.387817 20.8274 0.387817V0.387817ZM19.4936 28.5475C19.4936 30.3885 18.4795 32.1019 16.8471 33.0187L13.9705 34.6346C13.5564 34.8672 13.3011 35.2985 13.3011 35.7657V45.0454C13.3011 45.4031 13.4513 45.745 13.7164 45.9913C14.3418 46.572 14.6861 47.356 14.6861 48.1989V49.5344C14.6861 49.9966 14.3016 50.3728 13.829 50.3728H9.31986C8.84722 50.3728 8.4626 49.9966 8.4626 49.5344V48.1989C8.4626 47.3537 8.80863 46.5681 9.43704 45.9869C9.70359 45.7405 9.85456 45.3977 9.85456 45.0391V35.7657C9.85456 35.2984 9.59886 34.8669 9.18454 34.6344L6.30387 33.018C4.67007 32.1015 3.65508 30.3876 3.65508 28.5456V22.5622H19.4934V28.5475H19.4936Z" fill="white"/>
<path d="M46.339 22.2553C46.339 24.9091 45.7435 26.9754 44.6624 28.0733C43.631 29.1206 42.0553 29.3406 40.9152 29.3406C39.775 29.3406 38.1993 29.1207 37.168 28.0731C36.087 26.9754 35.4915 24.9093 35.4915 22.2553C35.4915 21.5349 34.8946 20.9509 34.1579 20.9509C33.4212 20.9509 32.8242 21.5349 32.8242 22.2553C32.8242 25.6359 33.6619 28.2735 35.2468 29.8826C36.9283 31.5906 39.2575 31.9491 40.9152 31.9491C42.5728 31.9491 44.9019 31.5905 46.5837 29.8828C48.1686 28.2733 49.0063 25.6357 49.0063 22.2553C49.0063 21.5349 48.4094 20.9509 47.6726 20.9509C46.9359 20.9509 46.339 21.5349 46.339 22.2553Z" fill="white"/>
<path d="M40.915 0.387451C37.2903 0.387451 33.837 3.02533 31.1911 7.81502C28.873 12.0115 27.4893 17.4097 27.4893 22.2552C27.4893 29.6779 30.7663 34.8248 36.5276 36.5498V44.5203C35.6371 45.5387 35.1358 46.8499 35.1358 48.1985V49.534C35.1358 50.343 35.4223 51.0879 35.9013 51.6766C35.4223 52.2653 35.1357 53.0101 35.1357 53.8193V83.7352C35.1357 86.8517 37.7283 89.3873 40.915 89.3873C44.1015 89.3873 46.6939 86.8517 46.6939 83.7352V64.4116C46.6939 63.6912 46.097 63.1072 45.3603 63.1072C44.6236 63.1072 44.0266 63.6912 44.0266 64.4116V83.7353C44.0266 85.4134 42.6306 86.7788 40.9148 86.7788C39.199 86.7788 37.8029 85.4134 37.8029 83.7353V53.8195C37.8029 53.3573 38.1876 52.9811 38.6602 52.9811H43.1693C43.642 52.9811 44.0264 53.3573 44.0264 53.8195V58.3976C44.0264 59.1179 44.6234 59.7019 45.3601 59.7019C46.0968 59.7019 46.6937 59.1179 46.6937 58.3976V53.8195C46.6937 53.0105 46.4073 52.2656 45.9282 51.6769C46.4073 51.0882 46.6939 50.3434 46.6939 49.5342V48.1987C46.6939 46.8537 46.1949 45.5455 45.3087 44.5282V36.5479C51.0656 34.821 54.3401 29.6748 54.3401 22.2554C54.3401 17.4099 52.9563 12.0117 50.6383 7.81519C47.9925 3.02533 44.5394 0.387451 40.915 0.387451V0.387451ZM43.6847 34.2712C43.0749 34.4044 42.6416 34.9335 42.6416 35.5443V45.0452C42.6416 45.4029 42.7918 45.7448 43.057 45.9911C43.6825 46.5718 44.0268 47.3558 44.0268 48.1987V49.5342C44.0268 49.9964 43.6422 50.3726 43.1695 50.3726H38.6604C38.1877 50.3726 37.8033 49.9964 37.8033 49.5342V48.1987C37.8033 47.3535 38.1493 46.568 38.7778 45.9866C39.0441 45.7401 39.1951 45.3974 39.1951 45.0389V35.5458C39.1951 34.9347 38.7614 34.4055 38.1515 34.2726C32.996 33.1497 30.1567 28.8819 30.1567 22.2554C30.1567 17.8227 31.4207 12.8882 33.5381 9.05518C35.6648 5.20444 38.3536 2.99612 40.915 2.99612C43.4763 2.99612 46.1647 5.20444 48.2916 9.055C50.4089 12.888 51.673 17.8227 51.673 22.2552C51.673 28.8789 48.8359 33.1464 43.6847 34.2712Z" fill="white"/>
<path d="M75.0196 55.155C75.0196 53.8098 74.5206 52.5017 73.6344 51.4845V19.0817C73.6344 18.3614 73.0374 17.7774 72.3007 17.7774C71.564 17.7774 70.9671 18.3614 70.9671 19.0817V52.0015C70.9671 52.3592 71.1173 52.7012 71.3826 52.9474C72.008 53.5279 72.3523 54.3119 72.3523 55.1549V56.4903C72.3523 56.9526 71.9678 57.3288 71.4952 57.3288H66.9861C66.5134 57.3288 66.1288 56.9526 66.1288 56.4903V55.1549C66.1288 54.3097 66.4748 53.5241 67.1032 52.9429C67.3698 52.6965 67.5208 52.3537 67.5208 51.9951V45.8505C67.5208 45.1301 66.9238 44.5461 66.1871 44.5461H63.066V13.9126C63.066 9.00742 66.3066 4.78295 70.9673 3.34383V13.1241C70.9673 13.8444 71.5642 14.4284 72.3009 14.4284C73.0376 14.4284 73.6345 13.8444 73.6345 13.1241V1.69185C73.6345 1.30803 73.4617 0.943862 73.1623 0.695865C72.8625 0.448042 72.4663 0.341782 72.0797 0.405607C65.3114 1.51933 60.3989 7.19979 60.3989 13.9126V45.8508C60.3989 46.5711 60.9959 47.1551 61.7326 47.1551H64.8537V51.4768C63.963 52.4952 63.4617 53.8064 63.4617 55.1552V56.4907C63.4617 57.2999 63.7483 58.0447 64.2272 58.6334C63.7482 59.2221 63.4617 59.967 63.4617 60.7762V83.7356C63.4617 86.8521 66.0541 89.3877 69.2408 89.3877C72.4275 89.3877 75.0199 86.8521 75.0199 83.7356V60.776C75.0199 59.9668 74.7333 59.222 74.2544 58.6333C74.7335 58.0446 75.0199 57.2997 75.0199 56.4905V55.155H75.0196ZM72.3523 83.7354C72.3523 85.4135 70.9562 86.7788 69.2405 86.7788C67.5247 86.7788 66.1286 85.4135 66.1286 83.7354V60.776C66.1286 60.3138 66.5131 59.9376 66.9857 59.9376H71.495C71.9677 59.9376 72.3521 60.3138 72.3521 60.776V83.7354H72.3523Z" fill="white"/>
</svg>
