<svg width="51" height="51" viewBox="0 0 51 51" fill="none" xmlns="http://www.w3.org/2000/svg">
<path d="M50.4458 18.8709C50.2602 18.6455 49.9837 18.5149 49.6917 18.5149H43.5393C43.0738 18.5149 42.673 18.8434 42.5817 19.2999L40.9809 27.3039H38.0106C40.068 23.9964 39.9811 19.7047 37.6546 16.4664C38.4539 14.5602 39.9126 13.3229 43.6258 9.59067C44.6152 8.61001 45.7366 7.49858 47.0744 6.16167C47.2576 5.97846 47.3605 5.73012 47.3606 5.47104C47.3606 5.21206 47.2578 4.96362 47.0746 4.78042L42.931 0.636865C42.7479 0.45376 42.4996 0.35083 42.2405 0.35083C41.9814 0.35083 41.7331 0.45376 41.55 0.636865C40.0886 2.09829 38.8515 3.34888 37.8575 4.35376C37.8475 4.35815 34.1372 8.62163 30.4036 4.8896C30.022 4.50815 29.4037 4.50825 29.0225 4.88989C28.6412 5.27124 28.6414 5.8896 29.0227 6.27095C30.3557 7.60346 32.1064 8.26967 33.857 8.26967C33.8677 8.26967 33.8785 8.26899 33.8892 8.26889C32.7922 9.26626 32.1217 9.70483 31.2565 10.0684C30.3828 9.44067 29.4184 8.96645 28.3827 8.6559C27.866 8.50083 27.3217 8.79428 27.1669 9.31089C27.012 9.82758 27.3052 10.3719 27.8218 10.5268C28.7973 10.8192 29.6935 11.2935 30.4855 11.9363C30.7532 12.1536 31.1153 12.2133 31.4388 12.0943C33.594 11.2996 34.5497 10.4618 38.0123 6.97339L40.7412 9.70219C37.2626 13.1645 36.4267 14.1208 35.6291 16.2846C35.5098 16.6081 35.57 16.9703 35.7871 17.2378C38.1939 20.2035 38.0856 24.4606 35.5867 27.304H32.7153C31.4382 24.9631 31.0334 22.1179 31.7663 19.3702C31.9052 18.8491 31.5955 18.314 31.0744 18.1749C30.5534 18.036 30.0181 18.3457 29.8792 18.8668C29.7429 19.3775 29.6382 19.8997 29.5658 20.4262C27.7545 21.2017 25.6049 20.8066 24.1903 19.3911C23.8091 19.0095 23.1908 19.0095 22.8092 19.3907C22.4278 19.7719 22.4276 20.3903 22.809 20.7718C24.554 22.5177 27.1114 23.1671 29.4552 22.5281C29.5062 24.1742 29.878 25.8033 30.541 27.3041H18.3427C18.445 25.787 18.6631 23.9767 19.122 22.5446C19.2684 22.0879 19.0615 21.5926 18.6339 21.3756C17.9182 21.0125 17.2455 20.5686 16.625 20.0506L17.9758 18.7004C18.7425 17.933 19.639 17.3445 20.6406 16.9515C20.9989 16.811 21.2412 16.4731 21.2593 16.0885C21.2775 15.704 21.0681 15.3448 20.7247 15.171C20.0006 14.8047 19.3216 14.3574 18.6968 13.8358C20.0112 12.529 20.1093 12.4051 20.4582 12.1025C20.8656 11.7492 20.9093 11.1323 20.5559 10.7249C20.2025 10.3176 19.5857 10.2737 19.1783 10.6272C18.7322 11.0141 18.6314 11.149 16.5943 13.1762C16.213 13.5576 16.213 14.1759 16.5943 14.5574C17.1157 15.0788 17.6772 15.5513 18.274 15.9714C17.6702 16.3543 17.1087 16.8048 16.5945 17.3197L14.5222 19.391C14.3389 19.5741 14.236 19.8226 14.236 20.0817C14.236 20.3409 14.339 20.5893 14.5224 20.7724C15.2834 21.5327 16.1276 22.1881 17.0398 22.7277C16.6627 24.2131 16.4762 25.8939 16.3856 27.3041H10.3555L8.75476 19.3001C8.66345 18.8434 8.26267 18.5149 7.79715 18.5149H1.6448C1.35291 18.5149 1.07625 18.6455 0.890702 18.8709C0.705253 19.0964 0.630253 19.3929 0.686503 19.6793L6.54588 49.5621C6.63572 50.0203 7.03728 50.3508 7.50418 50.3508H43.8323C44.2992 50.3508 44.7007 50.0203 44.7906 49.5621L50.65 19.6793C50.7061 19.3928 50.6312 19.0963 50.4458 18.8709ZM42.241 2.70893L45.0023 5.47026C43.9652 6.50434 42.1272 8.32612 42.1272 8.32612L39.3864 5.5853C40.2245 4.73813 41.1528 3.80015 42.241 2.70893ZM44.3399 20.468H48.5049L47.1646 27.3039H42.9727L44.3399 20.468ZM45.4413 36.093H41.2149L42.5821 29.2571H46.7817L45.4413 36.093ZM44.2349 42.2453C36.0459 42.2453 15.1514 42.2453 7.10144 42.2453L6.2781 38.0461H45.0583L44.2349 42.2453ZM32.646 48.3977L33.2172 44.1985H37.6716L36.8718 48.3977H32.646ZM26.6448 48.3977V44.1985H31.2461L30.6749 48.3977H26.6448ZM20.6616 48.3977L20.0904 44.1985H24.6917V48.3977H20.6616ZM14.4646 48.3977L13.6648 44.1985H18.1193L18.6905 48.3977H14.4646ZM4.55476 29.2571H8.75437L10.1216 36.093H5.89519L4.55476 29.2571ZM18.0051 29.2571H24.6917V36.093H18.9819L18.0051 29.2571ZM33.3313 29.2571L32.3546 36.093H26.6448V29.2571H33.3313ZM39.2231 36.093H34.3274L35.3042 29.2571H40.5903L39.2231 36.093ZM16.0322 29.2571L17.009 36.093H12.1133L10.7461 29.2571H16.0322ZM6.99656 20.468L8.36375 27.3039H4.17185L2.83152 20.468H6.99656ZM7.48445 44.1985H11.6765L12.4763 48.3977H8.30779L7.48445 44.1985ZM43.0287 48.3977H38.8601L39.6599 44.1985H43.852L43.0287 48.3977Z" fill="white"/>
<path d="M23.7151 10.312C24.2544 10.312 24.6916 9.87479 24.6916 9.33545C24.6916 8.79611 24.2544 8.35889 23.7151 8.35889C23.1757 8.35889 22.7385 8.79611 22.7385 9.33545C22.7385 9.87479 23.1757 10.312 23.7151 10.312Z" fill="white"/>
</svg>
