<svg width="23" height="24" viewBox="0 0 23 24" fill="none" xmlns="http://www.w3.org/2000/svg">
<path d="M22.6408 0.863736C22.4728 0.695788 22.2599 0.579975 22.0276 0.530241C21.7953 0.480506 21.5536 0.49897 21.3316 0.583409L0.793953 8.35707H0.789846C0.553044 8.44815 0.35013 8.61011 0.208818 8.82084C0.067506 9.03156 -0.0053146 9.28077 0.000302107 9.53442C0.00591882 9.78808 0.089699 10.0338 0.2402 10.2381C0.390701 10.4423 0.600585 10.5952 0.841186 10.6757L0.862236 10.6823L7.91126 13.6925C8.04875 13.7343 8.19478 13.7392 8.33478 13.7069C8.47478 13.6745 8.60384 13.606 8.70909 13.5082L20.0224 2.96618C20.0562 2.93247 20.0962 2.90573 20.1402 2.88749C20.1843 2.86924 20.2315 2.85985 20.2792 2.85985C20.3268 2.85985 20.374 2.86924 20.4181 2.88749C20.4621 2.90573 20.5021 2.93247 20.5359 2.96618C20.5696 2.99989 20.5963 3.03992 20.6145 3.08396C20.6328 3.12801 20.6422 3.17522 20.6422 3.22289C20.6422 3.27057 20.6328 3.31778 20.6145 3.36182C20.5963 3.40587 20.5696 3.44589 20.5359 3.4796L9.99363 14.7881C9.89581 14.8934 9.82732 15.0225 9.79497 15.1625C9.76263 15.3025 9.76758 15.4485 9.80932 15.586L12.8204 22.6393C12.8235 22.6496 12.8266 22.6588 12.8302 22.6686C12.9945 23.1445 13.4103 23.4803 13.9129 23.5029H13.9643C14.218 23.5044 14.4663 23.4294 14.6769 23.2879C14.8875 23.1463 15.0507 22.9447 15.1451 22.7092L22.9175 2.17655C23.0032 1.95438 23.0226 1.71216 22.9735 1.47918C22.9244 1.24619 22.8088 1.03243 22.6408 0.863736Z" fill="white"/>
</svg>
