<svg width="24" height="24" viewBox="0 0 24 24" fill="none" xmlns="http://www.w3.org/2000/svg">
<path d="M23.465 0.989254C23.297 0.821306 23.0841 0.705494 22.8518 0.655759C22.6196 0.606025 22.3779 0.624489 22.1558 0.708928L1.61817 8.48259H1.61406C1.37726 8.57367 1.17435 8.73563 1.03304 8.94635C0.891725 9.15708 0.818904 9.40628 0.824521 9.65994C0.830138 9.9136 0.913918 10.1593 1.06442 10.3636C1.21492 10.5679 1.4248 10.7207 1.6654 10.8012L1.68645 10.8079L8.73548 13.818C8.87297 13.8598 9.019 13.8647 9.159 13.8324C9.299 13.8 9.42806 13.7315 9.53331 13.6337L20.8467 3.0917C20.8804 3.05799 20.9204 3.03125 20.9644 3.013C21.0085 2.99476 21.0557 2.98537 21.1034 2.98537C21.151 2.98537 21.1983 2.99476 21.2423 3.013C21.2863 3.03125 21.3264 3.05799 21.3601 3.0917C21.3938 3.12541 21.4205 3.16543 21.4388 3.20948C21.457 3.25353 21.4664 3.30074 21.4664 3.34841C21.4664 3.39609 21.457 3.44329 21.4388 3.48734C21.4205 3.53139 21.3938 3.57141 21.3601 3.60512L10.8178 14.9137C10.72 15.0189 10.6515 15.148 10.6192 15.288C10.5869 15.428 10.5918 15.574 10.6335 15.7115L13.6446 22.7649C13.6477 22.7751 13.6508 22.7844 13.6544 22.7941C13.8187 23.2701 14.2345 23.6058 14.7372 23.6284H14.7885C15.0422 23.6299 15.2906 23.555 15.5011 23.4134C15.7117 23.2718 15.8749 23.0702 15.9693 22.8347L23.7418 2.30206C23.8274 2.0799 23.8468 1.83768 23.7977 1.60469C23.7486 1.37171 23.6331 1.15795 23.465 0.989254Z" fill="#1E82BD"/>
</svg>
