<svg width="91" height="91" viewBox="0 0 91 91" fill="none" xmlns="http://www.w3.org/2000/svg">
<path d="M90.3056 24.1833C90.2891 24.1383 90.27 24.0942 90.2486 24.0513C90.1866 23.9232 90.1069 23.8046 90.0116 23.6988C89.9906 23.6763 89.9756 23.6493 89.9531 23.6283C89.8489 23.5244 89.7296 23.4369 89.5991 23.3688L46.0991 0.868805C45.6677 0.643992 45.1536 0.643992 44.7221 0.868805L1.22214 23.3688C1.09146 23.4374 0.971645 23.5248 0.866645 23.6283C0.845645 23.6493 0.832144 23.6733 0.812644 23.6958C0.715145 23.8021 0.634332 23.9225 0.572645 24.0528C0.55127 24.0952 0.532145 24.1387 0.515645 24.1833C0.449457 24.3479 0.413832 24.5234 0.410645 24.7008V89.2008C0.410645 90.0292 1.08227 90.7008 1.91064 90.7008H7.91064C8.73902 90.7008 9.41064 90.0292 9.41064 89.2008V77.2803L13.8176 36.1533C17.4675 36.005 20.9522 34.5918 23.6741 32.1558C26.5553 34.742 30.289 36.1749 34.1606 36.1803C38.0365 36.1769 41.7748 34.7446 44.6606 32.1573C47.5451 34.7557 51.2905 36.1923 55.1726 36.1893C55.3766 36.1893 55.5836 36.1893 55.7906 36.1758C59.833 36.0232 63.6593 34.3128 66.4691 31.4028C69.3673 34.0181 73.0693 35.5691 76.9661 35.8008L81.4106 77.2803V89.2008C81.4106 90.0292 82.0823 90.7008 82.9106 90.7008H88.9106C89.739 90.7008 90.4106 90.0292 90.4106 89.2008V24.7008C90.4071 24.5232 90.3715 24.3479 90.3056 24.1833ZM45.4106 3.8898L82.7456 23.2008H8.07564L45.4106 3.8898ZM6.41964 77.0418C6.41364 77.0947 6.41064 77.1477 6.41064 77.2008V87.7008H3.41064V32.7633C5.55639 34.4654 8.10977 35.5771 10.8176 35.9883L6.41964 77.0418ZM87.4106 87.7008H84.4106V77.2008C84.4106 77.1477 84.4076 77.0947 84.4016 77.0418L79.9721 35.6988C82.6701 35.3881 85.2371 34.3662 87.4106 32.7378V87.7008ZM87.4106 28.6683C85.158 31.2701 81.8983 32.7815 78.4571 32.8203C74.3115 32.9727 70.3112 31.2822 67.5311 28.2033C67.2401 27.8636 66.808 27.6779 66.3611 27.7008C65.9158 27.7158 65.5003 27.9281 65.2271 28.2798C60.9111 33.8238 52.918 34.8191 47.3741 30.503C46.8026 30.0581 46.2703 29.5653 45.7826 29.0298C45.2245 28.4176 44.2759 28.3737 43.6635 28.9319C43.6294 28.9631 43.5968 28.9957 43.5656 29.0298C41.154 31.6687 37.7445 33.1726 34.1696 33.1743C30.5944 33.1912 27.1817 31.6831 24.7871 29.0283C24.229 28.4161 23.2804 28.3722 22.668 28.9304C22.6339 28.9616 22.6013 28.9942 22.5701 29.0283C20.1574 31.6749 16.7419 33.1835 13.1606 33.1848H13.0856C9.48171 33.1812 6.05346 31.6276 3.67464 28.9203L3.41064 28.6308V26.2008H87.4106V28.6683Z" fill="white"/>
</svg>
