<svg width="240" height="70" viewBox="0 0 240 70" fill="none" xmlns="http://www.w3.org/2000/svg">
<path d="M126.82 39.3644V16.0254H131.629V35.1731H143.755V39.3644H126.82Z" fill="#333333"/>
<path d="M158.329 15.6636C165.222 15.6636 170.371 20.8122 170.371 27.7054C170.371 34.5347 165.222 39.6834 158.329 39.6834C151.5 39.6834 146.351 34.5347 146.351 27.7054C146.33 20.8335 151.478 15.6636 158.329 15.6636ZM158.35 35.2156C162.648 35.2156 165.627 31.9604 165.627 27.7267C165.627 23.4291 162.648 20.2378 158.35 20.2378C154.117 20.2378 151.074 23.4291 151.074 27.7267C151.074 31.9392 154.138 35.2156 158.35 35.2156Z" fill="#333333"/>
<path d="M185.54 20.2379V39.3644H180.732V20.2379H173.03V16.0254H192.944V20.2592H185.54V20.2379Z" fill="#333333"/>
<path d="M201.454 29.1948C201.454 32.8967 203.348 35.2795 207.22 35.2795C211.177 35.2795 213.092 32.769 213.092 29.1735V16.0254H217.9V29.5139C217.9 35.0029 214.198 39.7473 207.22 39.7473C200.327 39.7473 196.646 35.4497 196.646 29.5139V16.0254H201.454V29.1948Z" fill="#333333"/>
<path d="M234.303 26.3862C237.835 27.3224 239.665 29.4712 239.665 32.6412C239.665 36.5133 236.75 39.7046 230.325 39.7046C226.963 39.7046 223.729 38.811 221.942 37.8536L223.325 33.3645C225.048 34.4709 227.963 35.3219 230.495 35.3219C233.452 35.3219 234.686 34.3858 234.686 33.0454C234.686 31.7689 233.835 31.2583 232.154 30.769L227.836 29.535C223.602 28.3436 221.559 26.4075 221.559 23.0886C221.559 18.6846 225.431 15.7061 231.069 15.7061C234.473 15.7061 237.792 16.8762 239.303 17.7272L238.175 22.3014C236.495 21.1951 233.771 20.11 230.963 20.11C228.155 20.11 226.559 21.1738 226.559 22.7269C226.559 24.0034 227.793 24.6204 229.899 25.1948L234.303 26.3862Z" fill="#333333"/>
<path d="M147.776 50.8953C147.712 50.7251 147.606 50.5762 147.5 50.4273C147.393 50.2996 147.244 50.172 147.117 50.0869C146.968 50.0018 146.819 49.9166 146.649 49.8741C146.478 49.8315 146.308 49.8103 146.117 49.8103C145.861 49.8103 145.606 49.8528 145.393 49.9592C145.159 50.0656 144.968 50.1932 144.798 50.3634C144.627 50.5336 144.5 50.7251 144.393 50.9591C144.287 51.1932 144.245 51.4485 144.245 51.7038C144.245 51.9804 144.287 52.2144 144.393 52.4484C144.5 52.6824 144.627 52.8739 144.798 53.0441C144.968 53.2143 145.159 53.342 145.393 53.4483C145.627 53.5547 145.861 53.5973 146.117 53.5973C146.287 53.5973 146.478 53.576 146.649 53.5334C146.819 53.4909 146.968 53.4271 147.117 53.3207C147.266 53.2356 147.393 53.1079 147.5 52.9803C147.606 52.8526 147.712 52.7037 147.776 52.5122H148.755C148.67 52.8101 148.542 53.0867 148.351 53.3207C148.159 53.5547 147.946 53.7462 147.712 53.9164C147.478 54.0866 147.202 54.193 146.925 54.2781C146.649 54.3632 146.372 54.4057 146.095 54.4057C145.84 54.4057 145.585 54.3632 145.351 54.2994C145.117 54.2355 144.883 54.1504 144.67 54.0228C144.457 53.8951 144.266 53.7675 144.096 53.5973C143.925 53.4271 143.776 53.2569 143.649 53.0441C143.521 52.8526 143.436 52.6186 143.372 52.3846C143.308 52.1506 143.266 51.9165 143.266 51.6612C143.266 51.4059 143.308 51.1719 143.372 50.9379C143.436 50.7038 143.542 50.4911 143.649 50.2783C143.776 50.0869 143.925 49.8954 144.096 49.7252C144.266 49.555 144.457 49.4273 144.67 49.2997C144.883 49.172 145.096 49.0869 145.351 49.0231C145.585 48.9593 145.84 48.938 146.095 48.938C146.372 48.938 146.649 48.9805 146.925 49.0656C147.202 49.1507 147.457 49.2571 147.712 49.4273C147.946 49.5975 148.159 49.789 148.351 50.023C148.542 50.2571 148.67 50.5336 148.755 50.8528L147.776 50.8953Z" fill="#333333"/>
<path d="M156.521 51.7037C156.521 51.4484 156.563 51.2144 156.627 50.9803C156.691 50.7463 156.797 50.5336 156.903 50.3208C157.031 50.1293 157.18 49.9379 157.35 49.7677C157.52 49.5975 157.712 49.4698 157.925 49.3422C158.137 49.2145 158.35 49.1294 158.605 49.0656C158.84 49.0017 159.095 48.9805 159.35 48.9805C159.605 48.9805 159.861 49.023 160.095 49.0656C160.329 49.1294 160.563 49.2145 160.776 49.3422C160.988 49.4698 161.18 49.5975 161.35 49.7677C161.52 49.9379 161.669 50.1081 161.797 50.3208C161.924 50.5336 162.01 50.7463 162.073 50.9803C162.137 51.2144 162.18 51.4484 162.18 51.7037C162.18 51.959 162.137 52.193 162.073 52.4271C162.01 52.6611 161.903 52.8738 161.797 53.0866C161.669 53.2781 161.52 53.4696 161.35 53.6398C161.18 53.81 160.988 53.9376 160.776 54.0653C160.563 54.1929 160.35 54.278 160.095 54.3418C159.861 54.4057 159.605 54.4482 159.35 54.4482C159.095 54.4482 158.84 54.4057 158.605 54.3418C158.371 54.278 158.137 54.1929 157.925 54.0653C157.712 53.9376 157.52 53.81 157.35 53.6398C157.18 53.4696 157.031 53.2994 156.903 53.0866C156.776 52.8951 156.691 52.6611 156.627 52.4271C156.563 52.2143 156.521 51.959 156.521 51.7037ZM157.478 51.7037C157.478 51.9803 157.52 52.2143 157.627 52.4483C157.733 52.6824 157.861 52.8738 158.031 53.044C158.201 53.2143 158.393 53.3419 158.627 53.4483C158.861 53.5547 159.095 53.5972 159.35 53.5972C159.605 53.5972 159.861 53.5547 160.073 53.4483C160.308 53.3419 160.499 53.2143 160.669 53.044C160.839 52.8738 160.967 52.6824 161.073 52.4483C161.18 52.2143 161.222 51.959 161.222 51.7037C161.222 51.4271 161.18 51.1931 161.073 50.9591C160.967 50.725 160.839 50.5336 160.669 50.3634C160.499 50.1932 160.308 50.0655 160.073 49.9591C159.839 49.8528 159.605 49.8102 159.35 49.8102C159.095 49.8102 158.84 49.8528 158.627 49.9591C158.393 50.0655 158.201 50.1932 158.031 50.3634C157.861 50.5336 157.733 50.725 157.627 50.9591C157.52 51.1931 157.478 51.4484 157.478 51.7037Z" fill="#333333"/>
<path d="M172.711 52.7885L171.158 50.6823V54.3204H170.222V49.1079H171.052L172.86 51.512L174.669 49.1079H175.498V54.3204H174.541V50.6823L172.988 52.7885H172.711Z" fill="#333333"/>
<path d="M184.732 52.6183V54.3204H183.774V49.1079H185.966C186.221 49.1079 186.476 49.1505 186.689 49.2356C186.902 49.3207 187.093 49.4483 187.264 49.5972C187.434 49.7462 187.54 49.9376 187.647 50.1504C187.753 50.3632 187.774 50.5972 187.774 50.8525C187.774 51.1078 187.732 51.3418 187.647 51.5546C187.561 51.7673 187.434 51.9588 187.285 52.1077C187.115 52.2567 186.944 52.3843 186.71 52.4694C186.498 52.5545 186.242 52.5971 185.987 52.5971H184.732V52.6183ZM185.923 51.7886C186.051 51.7886 186.157 51.7673 186.264 51.7248C186.37 51.6822 186.476 51.6184 186.54 51.5333C186.625 51.4482 186.689 51.3631 186.732 51.2354C186.774 51.1078 186.796 51.0014 186.796 50.8738C186.796 50.7461 186.774 50.6185 186.732 50.5121C186.689 50.4057 186.625 50.2993 186.54 50.2142C186.455 50.1291 186.37 50.0653 186.264 50.0227C186.157 49.9802 186.03 49.9376 185.923 49.9376H184.711V51.8099H185.923V51.7886Z" fill="#333333"/>
<path d="M195.752 49.1079H196.71V53.4906H199.071V54.3204H195.752V49.1079Z" fill="#333333"/>
<path d="M206.985 49.1079H210.56V49.9376H207.943V51.3418H210.198V52.1715H207.943V53.5119H210.602V54.3416H206.985V49.1079Z" fill="#333333"/>
<path d="M220.623 50.9376L221.879 49.1079H223.006L221.219 51.5971L223.176 54.3204H222.049L220.623 52.2566L219.198 54.3204H218.092L220.049 51.5971L218.262 49.1079H219.389L220.623 50.9376Z" fill="#333333"/>
<path d="M138.586 51.7893C138.586 52.0233 138.437 52.2148 138.266 52.2148L126.82 51.7893L138.266 51.3638C138.437 51.3638 138.586 51.5552 138.586 51.7893Z" fill="#333333"/>
<path d="M227.878 51.7893C227.878 52.0233 228.027 52.2148 228.197 52.2148L239.643 51.7893L228.197 51.3638C228.027 51.3638 227.878 51.5552 227.878 51.7893Z" fill="#333333"/>
<path opacity="0.7" d="M56.4896 57.7828C61.1063 55.1234 64.9997 51.3577 67.8506 46.8899C71.1057 41.7838 72.9779 35.7204 72.9779 29.2314C72.9779 26.2741 72.5949 23.4232 71.8503 20.6787C69.5739 12.1473 63.9572 4.97757 56.4896 0.658691C49.0219 4.97757 43.4053 12.1473 41.1288 20.6787C40.4055 23.402 40.0012 26.2741 40.0012 29.2314C40.0012 35.7204 41.8734 41.7838 45.1286 46.8899C47.9582 51.379 51.8728 55.1234 56.4896 57.7828Z" fill="#348300"/>
<path opacity="0.7" d="M56.438 57.7936C61.5831 59.1776 66.9989 59.2679 72.1739 58.1245C78.0862 56.8157 83.6976 53.8521 88.286 49.2637C90.3771 47.1726 92.1222 44.8859 93.5363 42.4187C97.9592 34.7764 99.0574 25.735 96.8309 17.4007C88.4966 15.1742 79.4552 16.2724 71.8129 20.6953C69.3758 22.1095 67.059 23.8545 64.9679 25.9456C60.3795 30.534 57.4159 36.1454 56.1071 42.0577C54.9337 47.2328 55.054 52.6486 56.438 57.7936Z" fill="#348300"/>
<path opacity="0.7" d="M56.4379 57.7939C57.8219 52.6489 57.9122 47.2331 56.7688 42.058C55.46 36.1457 52.4964 30.5344 47.908 25.946C45.8169 23.8549 43.5302 22.1098 41.063 20.6957C33.4207 16.2728 24.3793 15.1745 16.045 17.401C13.8185 25.7354 14.9167 34.7767 19.3396 42.419C20.7537 44.8561 22.4988 47.1729 24.5899 49.264C29.1783 53.8524 34.7897 56.816 40.7019 58.1249C45.877 59.2983 51.2928 59.1779 56.4379 57.7939Z" fill="#348300"/>
<path opacity="0.7" d="M56.4894 57.7826C48.4899 60.2079 38.7246 61.7398 28.1933 61.9525C17.7684 62.144 8.08816 61.0164 0.0673828 58.9527C5.76916 49.1022 16.4281 42.4644 28.6401 42.4644C40.3415 42.4644 50.6387 48.5704 56.4894 57.7826Z" fill="#348300"/>
<path opacity="0.7" d="M56.4895 57.7826C64.489 60.2079 74.2544 61.7398 84.7856 61.9525C95.1892 62.144 104.869 61.0377 112.89 58.9527C107.188 49.1022 96.5296 42.4644 84.3176 42.4644C72.6162 42.4644 62.3402 48.5704 56.4895 57.7826Z" fill="#348300"/>
</svg>
